Foldit-ExtraBold-Expanded.ufo
<glyph name="exclam.color0" format="2">
  <advance width="600"/>
  <unicode hex="0021"/>
  <outline>
    <contour>
      <point x="43" y="274" type="line"/>
      <point x="257" y="274" type="line"/>
      <point x="257" y="736" type="line"/>
      <point x="256" y="736" type="line"/>
      <point x="43" y="629" type="line"/>
    </contour>
  </outline>
</glyph>
<glyph name="dollar.color2" format="2">
  <advance width="600"/>
  <unicode hex="0024"/>
  <outline>
    <contour>
      <point x="306" y="-47" type="line"/>
      <point x="308" y="-47" type="line"/>
      <point x="519" y="-24" type="line"/>
      <point x="517" y="786" type="line"/>
      <point x="515" y="786" type="line"/>
      <point x="305" y="763" type="line"/>
    </contour>
  </outline>
</glyph>
<glyph name="dollar" format="2">
  <advance width="817"/>
  <unicode hex="0024"/>
  <outline>
    <contour>
      <point x="239" y="526" type="line"/>
      <point x="792" y="526" type="line"/>
      <point x="792" y="527" type="line"/>
      <point x="590" y="730" type="line"/>
      <point x="239" y="730" type="line"/>
    </contour>
    <contour>
      <point x="227" y="0" type="line"/>
      <point x="578" y="0" type="line"/>
      <point x="578" y="204" type="line"/>
      <point x="25" y="204" type="line"/>
      <point x="25" y="203" type="line"/>
    </contour>
    <contour>
      <point x="306" y="-47" type="line"/>
      <point x="308" y="-47" type="line"/>
      <point x="519" y="-24" type="line"/>
      <point x="517" y="786" type="line"/>
      <point x="515" y="786" type="line"/>
      <point x="305" y="763" type="line"/>
    </contour>
    <contour>
      <point x="227" y="262" type="line"/>
      <point x="578" y="262" type="line"/>
      <point x="578" y="466" type="line"/>
      <point x="25" y="466" type="line"/>
      <point x="25" y="465" type="line"/>
    </contour>
    <contour>
      <point x="25" y="466" type="line"/>
      <point x="239" y="466" type="line"/>
      <point x="239" y="730" type="line"/>
      <point x="238" y="730" type="line"/>
      <point x="25" y="523" type="line"/>
    </contour>
    <contour>
      <point x="578" y="0" type="line"/>
      <point x="579" y="0" type="line"/>
      <point x="792" y="193" type="line"/>
      <point x="792" y="269" type="line"/>
      <point x="579" y="466" type="line"/>
      <point x="578" y="466" type="line"/>
    </contour>
  </outline>
</glyph>
<glyph name="ampersand.color6" format="2">
  <advance width="600"/>
  <unicode hex="0026"/>
  <outline>
    <contour>
      <point x="705" y="0" type="line"/>
      <point x="706" y="0" type="line"/>
      <point x="933" y="242" type="line"/>
      <point x="1104" y="436" type="line"/>
      <point x="1104" y="439" type="line"/>
      <point x="885" y="439" type="line"/>
      <point x="674" y="204" type="line"/>
    </contour>
  </outline>
</glyph>
<glyph name="ampersand" format="2">
  <advance width="1104"/>
  <unicode hex="0026"/>
  <outline>
    <contour>
      <point x="372" y="526" type="line"/>
      <point x="635" y="526" type="line"/>
      <point x="635" y="730" type="line"/>
      <point x="372" y="730" type="line"/>
    </contour>
    <contour>
      <point x="218" y="466" type="line"/>
      <point x="372" y="466" type="line"/>
      <point x="372" y="730" type="line"/>
      <point x="371" y="730" type="line"/>
      <point x="218" y="603" type="line"/>
    </contour>
    <contour>
      <point x="797" y="0" type="line"/>
      <point x="802" y="0" type="line"/>
      <point x="1073" y="0" type="line"/>
      <point x="1073" y="1" type="line"/>
      <point x="737" y="406" type="line"/>
      <point x="465" y="406" type="line"/>
      <point x="465" y="405" type="line"/>
    </contour>
    <contour>
      <point x="219" y="0" type="line"/>
      <point x="705" y="0" type="line"/>
      <point x="674" y="204" type="line"/>
      <point x="219" y="204" type="line"/>
    </contour>
    <contour>
      <point x="219" y="262" type="line"/>
      <point x="634" y="262" type="line"/>
      <point x="634" y="466" type="line"/>
      <point x="219" y="466" type="line"/>
    </contour>
    <contour>
      <point x="218" y="0" type="line"/>
      <point x="219" y="0" type="line"/>
      <point x="219" y="466" type="line"/>
      <point x="218" y="466" type="line"/>
      <point x="25" y="267" type="line"/>
      <point x="25" y="162" type="line"/>
    </contour>
    <contour>
      <point x="705" y="0" type="line"/>
      <point x="706" y="0" type="line"/>
      <point x="933" y="242" type="line"/>
      <point x="1104" y="436" type="line"/>
      <point x="1104" y="439" type="line"/>
      <point x="885" y="439" type="line"/>
      <point x="674" y="204" type="line"/>
    </contour>
    <contour>
      <point x="634" y="262" type="line"/>
      <point x="635" y="262" type="line"/>
      <point x="788" y="466" type="line"/>
      <point x="788" y="603" type="line"/>
      <point x="636" y="730" type="line"/>
      <point x="635" y="730" type="line"/>
    </contour>
  </outline>
</glyph>
<glyph name="parenleft.color2" format="2">
  <advance width="600"/>
  <unicode hex="0028"/>
  <outline>
    <contour>
      <point x="249" y="526" type="line"/>
      <point x="510" y="526" type="line"/>
      <point x="510" y="730" type="line"/>
      <point x="249" y="730" type="line"/>
    </contour>
  </outline>
</glyph>
<glyph name="parenright.color1" format="2">
  <advance width="600"/>
  <unicode hex="0029"/>
  <outline>
    <contour>
      <point x="35" y="-100" type="line"/>
      <point x="296" y="-100" type="line"/>
      <point x="296" y="104" type="line"/>
      <point x="35" y="104" type="line"/>
    </contour>
  </outline>
</glyph>
<glyph name="parenright.color2" format="2">
  <advance width="600"/>
  <unicode hex="0029"/>
  <outline>
    <contour>
      <point x="35" y="526" type="line"/>
      <point x="510" y="526" type="line"/>
      <point x="510" y="527" type="line"/>
      <point x="308" y="730" type="line"/>
      <point x="35" y="730" type="line"/>
    </contour>
  </outline>
</glyph>
<glyph name="plus.color3" format="2">
  <advance width="600"/>
  <unicode hex="002B"/>
  <outline>
    <contour>
      <point x="286" y="273" type="line"/>
      <point x="749" y="273" type="line"/>
      <point x="749" y="477" type="line"/>
      <point x="489" y="477" type="line"/>
    </contour>
  </outline>
</glyph>
<glyph name="one.color2" format="2">
  <advance width="600"/>
  <unicode hex="0031"/>
  <outline>
    <contour>
      <point x="371" y="0" type="line"/>
      <point x="765" y="0" type="line"/>
      <point x="765" y="204" type="line"/>
      <point x="533" y="204" type="line"/>
    </contour>
  </outline>
</glyph>
<glyph name="three.color0" format="2">
  <advance width="600"/>
  <unicode hex="0033"/>
  <outline>
    <contour>
      <point x="15" y="526" type="line"/>
      <point x="551" y="526" type="line"/>
      <point x="551" y="730" type="line"/>
      <point x="217" y="730" type="line"/>
      <point x="15" y="527" type="line"/>
    </contour>
  </outline>
</glyph>
<glyph name="three.color2" format="2">
  <advance width="600"/>
  <unicode hex="0033"/>
  <outline>
    <contour>
      <point x="116" y="282" type="line"/>
      <point x="551" y="282" type="line"/>
      <point x="551" y="446" type="line"/>
      <point x="116" y="446" type="line"/>
    </contour>
  </outline>
</glyph>
<glyph name="three.color3" format="2">
  <advance width="600"/>
  <unicode hex="0033"/>
  <outline>
    <contour>
      <point x="551" y="366" type="line"/>
      <point x="765" y="366" type="line"/>
      <point x="765" y="523" type="line"/>
      <point x="552" y="730" type="line"/>
      <point x="551" y="730" type="line"/>
    </contour>
  </outline>
</glyph>
<glyph name="four" format="2">
  <advance width="800"/>
  <unicode hex="0034"/>
  <outline>
    <contour>
      <point x="130" y="173" type="line"/>
      <point x="556" y="173" type="line"/>
      <point x="556" y="377" type="line"/>
      <point x="256" y="377" type="line"/>
    </contour>
    <contour>
      <point x="130" y="173" type="line"/>
      <point x="662" y="729" type="line"/>
      <point x="662" y="730" type="line"/>
      <point x="392" y="730" type="line"/>
      <point x="20" y="368" type="line"/>
    </contour>
    <contour>
      <point x="556" y="0" type="line"/>
      <point x="770" y="0" type="line"/>
      <point x="770" y="210" type="line"/>
      <point x="557" y="377" type="line"/>
      <point x="556" y="377" type="line"/>
    </contour>
  </outline>
</glyph>
<glyph name="five.color3" format="2">
  <advance width="600"/>
  <unicode hex="0035"/>
  <outline>
    <contour>
      <point x="541" y="0" type="line"/>
      <point x="542" y="0" type="line"/>
      <point x="755" y="187" type="line"/>
      <point x="755" y="325" type="line"/>
      <point x="542" y="462" type="line"/>
      <point x="541" y="462" type="line"/>
    </contour>
  </outline>
</glyph>
<glyph name="eight.color0" format="2">
  <advance width="600"/>
  <unicode hex="0038"/>
  <outline>
    <contour>
      <point x="279" y="526" type="line"/>
      <point x="521" y="526" type="line"/>
      <point x="521" y="730" type="line"/>
      <point x="279" y="730" type="line"/>
    </contour>
  </outline>
</glyph>
<glyph name="eight.color5" format="2">
  <advance width="600"/>
  <unicode hex="0038"/>
  <outline>
    <contour>
      <point x="561" y="0" type="line"/>
      <point x="562" y="0" type="line"/>
      <point x="775" y="193" type="line"/>
      <point x="775" y="269" type="line"/>
      <point x="562" y="466" type="line"/>
      <point x="561" y="466" type="line"/>
    </contour>
  </outline>
</glyph>
<glyph name="semicolon.color2" format="2">
  <advance width="600"/>
  <unicode hex="003B"/>
  <outline>
    <contour>
      <point x="144" y="-200" type="line"/>
      <point x="145" y="-200" type="line"/>
      <point x="318" y="-93" type="line"/>
      <point x="318" y="0" type="line"/>
      <point x="144" y="0" type="line"/>
    </contour>
  </outline>
</glyph>
<glyph name="at.color8" format="2">
  <advance width="600"/>
  <unicode hex="0040"/>
  <outline>
    <contour>
      <point x="966" y="24" type="line"/>
      <point x="990" y="24" type="line"/>
      <point x="990" y="607" type="line"/>
      <point x="967" y="630" type="line"/>
      <point x="966" y="630" type="line"/>
    </contour>
  </outline>
</glyph>
<glyph name="B.color4" format="2">
  <advance width="600"/>
  <unicode hex="0042"/>
  <outline>
    <contour>
      <point x="738" y="431" type="line"/>
      <point x="738" y="533" type="line"/>
      <point x="505" y="730" type="line"/>
      <point x="504" y="730" type="line"/>
      <point x="504" y="467" type="line"/>
      <point x="699" y="467" type="line"/>
    </contour>
  </outline>
</glyph>
<glyph name="B.color5" format="2">
  <advance width="600"/>
  <unicode hex="0042"/>
  <outline>
    <contour>
      <point x="698" y="0" type="line"/>
      <point x="699" y="0" type="line"/>
      <point x="912" y="193" type="line"/>
      <point x="912" y="274" type="line"/>
      <point x="699" y="467" type="line"/>
      <point x="698" y="467" type="line"/>
    </contour>
  </outline>
</glyph>
<glyph name="B" format="2">
  <advance width="912"/>
  <unicode hex="0042"/>
  <outline>
    <contour>
      <point x="35" y="0" type="line"/>
      <point x="698" y="0" type="line"/>
      <point x="698" y="204" type="line"/>
      <point x="35" y="204" type="line"/>
    </contour>
    <contour>
      <point x="35" y="204" type="line"/>
      <point x="249" y="204" type="line"/>
      <point x="249" y="730" type="line"/>
      <point x="35" y="730" type="line"/>
    </contour>
    <contour>
      <point x="697" y="263" type="line"/>
      <point x="698" y="263" type="line"/>
      <point x="698" y="467" type="line"/>
      <point x="504" y="467" type="line"/>
      <point x="504" y="466" type="line"/>
    </contour>
    <contour>
      <point x="249" y="526" type="line"/>
      <point x="504" y="526" type="line"/>
      <point x="504" y="730" type="line"/>
      <point x="249" y="730" type="line"/>
    </contour>
    <contour>
      <point x="738" y="431" type="line"/>
      <point x="738" y="533" type="line"/>
      <point x="505" y="730" type="line"/>
      <point x="504" y="730" type="line"/>
      <point x="504" y="467" type="line"/>
      <point x="699" y="467" type="line"/>
    </contour>
    <contour>
      <point x="698" y="0" type="line"/>
      <point x="699" y="0" type="line"/>
      <point x="912" y="193" type="line"/>
      <point x="912" y="274" type="line"/>
      <point x="699" y="467" type="line"/>
      <point x="698" y="467" type="line"/>
    </contour>
  </outline>
</glyph>
<glyph name="F.color0" format="2">
  <advance width="600"/>
  <unicode hex="0046"/>
  <outline>
    <contour>
      <point x="249" y="526" type="line"/>
      <point x="590" y="526" type="line"/>
      <point x="792" y="729" type="line"/>
      <point x="792" y="730" type="line"/>
      <point x="249" y="730" type="line"/>
    </contour>
  </outline>
</glyph>
<glyph name="F.color2" format="2">
  <advance width="600"/>
  <unicode hex="0046"/>
  <outline>
    <contour>
      <point x="249" y="193" type="line"/>
      <point x="638" y="193" type="line"/>
      <point x="638" y="397" type="line"/>
      <point x="35" y="397" type="line"/>
      <point x="35" y="396" type="line"/>
    </contour>
  </outline>
</glyph>
<glyph name="F.color3" format="2">
  <advance width="600"/>
  <unicode hex="0046"/>
  <outline>
    <contour>
      <point x="35" y="397" type="line"/>
      <point x="249" y="397" type="line"/>
      <point x="249" y="730" type="line"/>
      <point x="35" y="730" type="line"/>
    </contour>
  </outline>
</glyph>
<glyph name="J.color0" format="2">
  <advance width="600"/>
  <unicode hex="004A"/>
  <outline>
    <contour>
      <point x="306" y="200" type="line"/>
      <point x="520" y="200" type="line"/>
      <point x="520" y="730" type="line"/>
      <point x="468" y="730" type="line"/>
      <point x="306" y="526" type="line"/>
    </contour>
  </outline>
</glyph>
<glyph name="K.color2" format="2">
  <advance width="600"/>
  <unicode hex="004B"/>
  <outline>
    <contour>
      <point x="249" y="243" type="line"/>
      <point x="548" y="243" type="line"/>
      <point x="548" y="447" type="line"/>
      <point x="249" y="447" type="line"/>
    </contour>
  </outline>
</glyph>
<glyph name="K.color3" format="2">
  <advance width="600"/>
  <unicode hex="004B"/>
  <outline>
    <contour>
      <point x="548" y="243" type="line"/>
      <point x="549" y="243" type="line"/>
      <point x="762" y="420" type="line"/>
      <point x="762" y="730" type="line"/>
      <point x="548" y="730" type="line"/>
    </contour>
  </outline>
</glyph>
<glyph name="K" format="2">
  <advance width="871"/>
  <unicode hex="004B"/>
  <anchor x="415" y="0" name="bottom"/>
  <outline>
    <contour>
      <point x="600" y="0" type="line"/>
      <point x="871" y="0" type="line"/>
      <point x="871" y="1" type="line"/>
      <point x="598" y="373" type="line"/>
      <point x="424" y="250" type="line"/>
    </contour>
    <contour>
      <point x="35" y="0" type="line"/>
      <point x="249" y="0" type="line"/>
      <point x="249" y="730" type="line"/>
      <point x="35" y="730" type="line"/>
    </contour>
    <contour>
      <point x="249" y="243" type="line"/>
      <point x="548" y="243" type="line"/>
      <point x="548" y="447" type="line"/>
      <point x="249" y="447" type="line"/>
    </contour>
    <contour>
      <point x="548" y="243" type="line"/>
      <point x="549" y="243" type="line"/>
      <point x="762" y="420" type="line"/>
      <point x="762" y="730" type="line"/>
      <point x="548" y="730" type="line"/>
    </contour>
  </outline>
</glyph>
<glyph name="M.color0" format="2">
  <advance width="600"/>
  <unicode hex="004D"/>
  <outline>
    <contour>
      <point x="532" y="160" type="line"/>
      <point x="649" y="-6" type="line"/>
      <point x="946" y="465" type="line"/>
      <point x="836" y="736" type="line"/>
    </contour>
  </outline>
</glyph>
<glyph name="M.color1" format="2">
  <advance width="600"/>
  <unicode hex="004D"/>
  <outline>
    <contour>
      <point x="35" y="0" type="line"/>
      <point x="249" y="0" type="line"/>
      <point x="249" y="358" type="line"/>
      <point x="35" y="736" type="line"/>
    </contour>
  </outline>
</glyph>
<glyph name="M.color3" format="2">
  <advance width="600"/>
  <unicode hex="004D"/>
  <outline>
    <contour>
      <point x="836" y="0" type="line"/>
      <point x="1050" y="0" type="line"/>
      <point x="1060" y="736" type="line"/>
      <point x="837" y="736" type="line"/>
      <point x="836" y="736" type="line"/>
    </contour>
  </outline>
</glyph>
<glyph name="M" format="2">
  <advance width="1095"/>
  <unicode hex="004D"/>
  <outline>
    <contour>
      <point x="532" y="160" type="line"/>
      <point x="649" y="-6" type="line"/>
      <point x="946" y="465" type="line"/>
      <point x="836" y="736" type="line"/>
    </contour>
    <contour>
      <point x="35" y="0" type="line"/>
      <point x="249" y="0" type="line"/>
      <point x="249" y="358" type="line"/>
      <point x="35" y="736" type="line"/>
    </contour>
    <contour>
      <point x="445" y="-6" type="line"/>
      <point x="649" y="-6" type="line"/>
      <point x="649" y="-5" type="line"/>
      <point x="249" y="736" type="line"/>
      <point x="248" y="736" type="line"/>
      <point x="35" y="736" type="line"/>
    </contour>
    <contour>
      <point x="836" y="0" type="line"/>
      <point x="1050" y="0" type="line"/>
      <point x="1060" y="736" type="line"/>
      <point x="837" y="736" type="line"/>
      <point x="836" y="736" type="line"/>
    </contour>
  </outline>
</glyph>
<glyph name="P" format="2">
  <advance width="822"/>
  <unicode hex="0050"/>
  <outline>
    <contour>
      <point x="35" y="0" type="line"/>
      <point x="249" y="0" type="line"/>
      <point x="249" y="730" type="line"/>
      <point x="248" y="730" type="line"/>
      <point x="35" y="730" type="line"/>
    </contour>
    <contour>
      <point x="249" y="173" type="line"/>
      <point x="598" y="173" type="line"/>
      <point x="598" y="377" type="line"/>
      <point x="249" y="377" type="line"/>
    </contour>
    <contour>
      <point x="598" y="173" type="line"/>
      <point x="599" y="173" type="line"/>
      <point x="812" y="370" type="line"/>
      <point x="812" y="526" type="line"/>
      <point x="598" y="526" type="line"/>
    </contour>
    <contour>
      <point x="249" y="526" type="line"/>
      <point x="812" y="526" type="line"/>
      <point x="812" y="527" type="line"/>
      <point x="610" y="730" type="line"/>
      <point x="249" y="730" type="line"/>
    </contour>
  </outline>
</glyph>
<glyph name="Q" format="2">
  <advance width="861"/>
  <unicode hex="0051"/>
  <outline>
    <contour>
      <point x="740" y="103" type="line"/>
      <point x="802" y="193" type="line"/>
      <point x="802" y="526" type="line"/>
      <point x="588" y="526" type="line"/>
      <point x="588" y="204" type="line"/>
      <point x="659" y="204" type="line"/>
    </contour>
    <contour>
      <point x="227" y="0" type="line"/>
      <point x="861" y="0" type="line"/>
      <point x="861" y="1" type="line"/>
      <point x="659" y="204" type="line"/>
      <point x="25" y="204" type="line"/>
      <point x="25" y="203" type="line"/>
    </contour>
    <contour>
      <point x="25" y="204" type="line"/>
      <point x="239" y="204" type="line"/>
      <point x="239" y="730" type="line"/>
      <point x="238" y="730" type="line"/>
      <point x="25" y="523" type="line"/>
    </contour>
    <contour>
      <point x="239" y="526" type="line"/>
      <point x="802" y="526" type="line"/>
      <point x="802" y="527" type="line"/>
      <point x="600" y="730" type="line"/>
      <point x="239" y="730" type="line"/>
    </contour>
  </outline>
</glyph>
<glyph name="S.color3" format="2">
  <advance width="600"/>
  <unicode hex="0053"/>
  <outline>
    <contour>
      <point x="25" y="466" type="line"/>
      <point x="239" y="466" type="line"/>
      <point x="239" y="730" type="line"/>
      <point x="238" y="730" type="line"/>
      <point x="25" y="523" type="line"/>
    </contour>
  </outline>
</glyph>
<glyph name="T.color2" format="2">
  <advance width="600"/>
  <unicode hex="0054"/>
  <outline>
    <contour>
      <point x="520" y="526" type="line"/>
      <point x="821" y="526" type="line"/>
      <point x="821" y="730" type="line"/>
      <point x="520" y="730" type="line"/>
    </contour>
  </outline>
</glyph>
<glyph name="V.color0" format="2">
  <advance width="600"/>
  <unicode hex="0056"/>
  <outline>
    <contour>
      <point x="318" y="0" type="line"/>
      <point x="319" y="0" type="line"/>
      <point x="457" y="192" type="line"/>
      <point x="244" y="730" type="line"/>
      <point x="0" y="730" type="line"/>
      <point x="0" y="729" type="line"/>
    </contour>
  </outline>
</glyph>
<glyph name="X.color2" format="2">
  <advance width="600"/>
  <unicode hex="0058"/>
  <outline>
    <contour>
      <point x="525" y="0" type="line"/>
      <point x="769" y="0" type="line"/>
      <point x="769" y="1" type="line"/>
      <point x="511" y="365" type="line"/>
      <point x="510" y="365" type="line"/>
      <point x="382" y="187" type="line"/>
    </contour>
  </outline>
</glyph>
<glyph name="Z.color0" format="2">
  <advance width="600"/>
  <unicode hex="005A"/>
  <outline>
    <contour>
      <point x="35" y="526" type="line"/>
      <point x="578" y="526" type="line"/>
      <point x="604" y="730" type="line"/>
      <point x="35" y="730" type="line"/>
    </contour>
  </outline>
</glyph>
<glyph name="Z" format="2">
  <advance width="785"/>
  <unicode hex="005A"/>
  <anchor x="386" y="730" name="top"/>
  <outline>
    <contour>
      <point x="35" y="526" type="line"/>
      <point x="578" y="526" type="line"/>
      <point x="604" y="730" type="line"/>
      <point x="35" y="730" type="line"/>
    </contour>
    <contour>
      <point x="244" y="109" type="line"/>
      <point x="744" y="565" type="line"/>
      <point x="604" y="730" type="line"/>
      <point x="41" y="205" type="line"/>
      <point x="41" y="204" type="line"/>
    </contour>
    <contour>
      <point x="41" y="0" type="line"/>
      <point x="750" y="0" type="line"/>
      <point x="750" y="204" type="line"/>
      <point x="41" y="204" type="line"/>
    </contour>
  </outline>
</glyph>
<glyph name="bracketleft.color0" format="2">
  <advance width="600"/>
  <unicode hex="005B"/>
  <outline>
    <contour>
      <point x="55" y="104" type="line"/>
      <point x="269" y="104" type="line"/>
      <point x="269" y="730" type="line"/>
      <point x="55" y="730" type="line"/>
    </contour>
  </outline>
</glyph>
<glyph name="bracketleft" format="2">
  <advance width="585"/>
  <unicode hex="005B"/>
  <outline>
    <contour>
      <point x="55" y="104" type="line"/>
      <point x="269" y="104" type="line"/>
      <point x="269" y="730" type="line"/>
      <point x="55" y="730" type="line"/>
    </contour>
    <contour>
      <point x="55" y="-100" type="line"/>
      <point x="530" y="-100" type="line"/>
      <point x="530" y="104" type="line"/>
      <point x="55" y="104" type="line"/>
    </contour>
    <contour>
      <point x="269" y="526" type="line"/>
      <point x="530" y="526" type="line"/>
      <point x="530" y="730" type="line"/>
      <point x="269" y="730" type="line"/>
    </contour>
  </outline>
</glyph>
<glyph name="bracketright.color0" format="2">
  <advance width="600"/>
  <unicode hex="005D"/>
  <outline>
    <contour>
      <point x="296" y="-100" type="line"/>
      <point x="510" y="-100" type="line"/>
      <point x="510" y="526" type="line"/>
      <point x="296" y="526" type="line"/>
    </contour>
  </outline>
</glyph>
<glyph name="asciicircum.color1" format="2">
  <advance width="600"/>
  <unicode hex="005E"/>
  <outline>
    <contour>
      <point x="539" y="308" type="line"/>
      <point x="765" y="308" type="line"/>
      <point x="765" y="309" type="line"/>
      <point x="516" y="730" type="line"/>
      <point x="314" y="730" type="line"/>
    </contour>
  </outline>
</glyph>
<glyph name="d.color3" format="2">
  <advance width="600"/>
  <unicode hex="0064"/>
  <outline>
    <contour>
      <point x="45" y="204" type="line"/>
      <point x="259" y="204" type="line"/>
      <point x="259" y="530" type="line"/>
      <point x="258" y="530" type="line"/>
      <point x="45" y="423" type="line"/>
    </contour>
  </outline>
</glyph>
<glyph name="d.color4" format="2">
  <advance width="600"/>
  <unicode hex="0064"/>
  <outline>
    <contour>
      <point x="569" y="0" type="line"/>
      <point x="570" y="0" type="line"/>
      <point x="783" y="107" type="line"/>
      <point x="783" y="326" type="line"/>
      <point x="569" y="326" type="line"/>
    </contour>
  </outline>
</glyph>
<glyph name="f.color3" format="2">
  <advance width="600"/>
  <unicode hex="0066"/>
  <outline>
    <contour>
      <point x="249" y="499" type="line"/>
      <point x="576" y="499" type="line"/>
      <point x="576" y="500" type="line"/>
      <point x="553" y="703" type="line"/>
      <point x="249" y="703" type="line"/>
    </contour>
  </outline>
</glyph>
<glyph name="h" format="2">
  <advance width="807"/>
  <unicode hex="0068"/>
  <anchor x="291" y="653" name="stroke"/>
  <anchor x="508" y="530" name="top"/>
  <outline>
    <contour>
      <point x="35" y="0" type="line"/>
      <point x="249" y="0" type="line"/>
      <point x="249" y="794" type="line"/>
      <point x="35" y="794" type="line"/>
    </contour>
    <contour>
      <point x="558" y="-6" type="line"/>
      <point x="559" y="-6" type="line"/>
      <point x="772" y="41" type="line"/>
      <point x="772" y="326" type="line"/>
      <point x="558" y="326" type="line"/>
    </contour>
    <contour>
      <point x="249" y="326" type="line"/>
      <point x="772" y="326" type="line"/>
      <point x="772" y="327" type="line"/>
      <point x="665" y="530" type="line"/>
      <point x="249" y="530" type="line"/>
    </contour>
  </outline>
</glyph>
<glyph name="l.color1" format="2">
  <advance width="600"/>
  <unicode hex="006C"/>
  <outline>
    <contour>
      <point x="249" y="0" type="line"/>
      <point x="461" y="0" type="line"/>
      <point x="461" y="204" type="line"/>
      <point x="249" y="204" type="line"/>
    </contour>
  </outline>
</glyph>
<glyph name="m" format="2">
  <advance width="1190"/>
  <unicode hex="006D"/>
  <outline>
    <contour>
      <point x="35" y="0" type="line"/>
      <point x="249" y="0" type="line"/>
      <point x="249" y="530" type="line"/>
      <point x="248" y="530" type="line"/>
      <point x="35" y="423" type="line"/>
    </contour>
    <contour>
      <point x="498" y="0" type="line"/>
      <point x="692" y="0" type="line"/>
      <point x="692" y="326" type="line"/>
      <point x="498" y="326" type="line"/>
    </contour>
    <contour>
      <point x="249" y="326" type="line"/>
      <point x="692" y="326" type="line"/>
      <point x="692" y="327" type="line"/>
      <point x="625" y="530" type="line"/>
      <point x="249" y="530" type="line"/>
    </contour>
    <contour>
      <point x="941" y="-6" type="line"/>
      <point x="942" y="-6" type="line"/>
      <point x="1155" y="41" type="line"/>
      <point x="1155" y="326" type="line"/>
      <point x="941" y="326" type="line"/>
    </contour>
    <contour>
      <point x="692" y="326" type="line"/>
      <point x="1155" y="326" type="line"/>
      <point x="1155" y="327" type="line"/>
      <point x="1048" y="530" type="line"/>
      <point x="692" y="530" type="line"/>
    </contour>
  </outline>
</glyph>
<glyph name="p.color2" format="2">
  <advance width="600"/>
  <unicode hex="0070"/>
  <outline>
    <contour>
      <point x="197" y="0" type="line"/>
      <point x="559" y="0" type="line"/>
      <point x="559" y="204" type="line"/>
      <point x="35" y="204" type="line"/>
      <point x="35" y="203" type="line"/>
    </contour>
  </outline>
</glyph>
<glyph name="p" format="2">
  <advance width="808"/>
  <unicode hex="0070"/>
  <outline>
    <contour>
      <point x="249" y="326" type="line"/>
      <point x="773" y="326" type="line"/>
      <point x="773" y="327" type="line"/>
      <point x="671" y="530" type="line"/>
      <point x="249" y="530" type="line"/>
    </contour>
    <contour>
      <point x="35" y="-200" type="line"/>
      <point x="249" y="-200" type="line"/>
      <point x="249" y="0" type="line"/>
      <point x="36" y="201" type="line"/>
      <point x="35" y="201" type="line"/>
    </contour>
    <contour>
      <point x="197" y="0" type="line"/>
      <point x="559" y="0" type="line"/>
      <point x="559" y="204" type="line"/>
      <point x="35" y="204" type="line"/>
      <point x="35" y="203" type="line"/>
    </contour>
    <contour>
      <point x="35" y="204" type="line"/>
      <point x="249" y="204" type="line"/>
      <point x="249" y="530" type="line"/>
      <point x="248" y="530" type="line"/>
      <point x="35" y="423" type="line"/>
    </contour>
    <contour>
      <point x="559" y="0" type="line"/>
      <point x="560" y="0" type="line"/>
      <point x="773" y="107" type="line"/>
      <point x="773" y="326" type="line"/>
      <point x="559" y="326" type="line"/>
    </contour>
  </outline>
</glyph>
<glyph name="q.color0" format="2">
  <advance width="600"/>
  <unicode hex="0071"/>
  <outline>
    <contour>
      <point x="560" y="-200" type="line"/>
      <point x="773" y="-200" type="line"/>
      <point x="773" y="326" type="line"/>
      <point x="559" y="326" type="line"/>
      <point x="559" y="0" type="line"/>
    </contour>
  </outline>
</glyph>
<glyph name="v.color1" format="2">
  <advance width="600"/>
  <unicode hex="0076"/>
  <outline>
    <contour>
      <point x="102" y="0" type="line"/>
      <point x="528" y="0" type="line"/>
      <point x="528" y="204" type="line"/>
      <point x="35" y="204" type="line"/>
      <point x="35" y="203" type="line"/>
    </contour>
  </outline>
</glyph>
<glyph name="w.color4" format="2">
  <advance width="600"/>
  <unicode hex="0077"/>
  <outline>
    <contour>
      <point x="498" y="205" type="line"/>
      <point x="692" y="205" type="line"/>
      <point x="692" y="531" type="line"/>
      <point x="691" y="531" type="line"/>
      <point x="498" y="531" type="line"/>
    </contour>
  </outline>
</glyph>
<glyph name="x.color2" format="2">
  <advance width="600"/>
  <unicode hex="0078"/>
  <outline>
    <contour>
      <point x="0" y="0" type="line"/>
      <point x="242" y="0" type="line"/>
      <point x="510" y="265" type="line"/>
      <point x="268" y="265" type="line"/>
      <point x="0" y="1" type="line"/>
    </contour>
  </outline>
</glyph>
<glyph name="braceleft.color3" format="2">
  <advance width="600"/>
  <unicode hex="007B"/>
  <outline>
    <contour>
      <point x="207" y="-100" type="line"/>
      <point x="421" y="-100" type="line"/>
      <point x="421" y="229" type="line"/>
      <point x="208" y="416" type="line"/>
      <point x="207" y="416" type="line"/>
    </contour>
  </outline>
</glyph>
<glyph name="braceleft" format="2">
  <advance width="687"/>
  <unicode hex="007B"/>
  <outline>
    <contour>
      <point x="421" y="-100" type="line"/>
      <point x="632" y="-100" type="line"/>
      <point x="632" y="104" type="line"/>
      <point x="421" y="104" type="line"/>
    </contour>
    <contour>
      <point x="55" y="214" type="line"/>
      <point x="207" y="214" type="line"/>
      <point x="207" y="418" type="line"/>
      <point x="55" y="418" type="line"/>
    </contour>
    <contour>
      <point x="421" y="526" type="line"/>
      <point x="632" y="526" type="line"/>
      <point x="632" y="730" type="line"/>
      <point x="421" y="730" type="line"/>
    </contour>
    <contour>
      <point x="207" y="-100" type="line"/>
      <point x="421" y="-100" type="line"/>
      <point x="421" y="229" type="line"/>
      <point x="208" y="416" type="line"/>
      <point x="207" y="416" type="line"/>
    </contour>
    <contour>
      <point x="207" y="214" type="line"/>
      <point x="208" y="214" type="line"/>
      <point x="421" y="401" type="line"/>
      <point x="421" y="730" type="line"/>
      <point x="207" y="730" type="line"/>
    </contour>
  </outline>
</glyph>
<glyph name="braceright.color4" format="2">
  <advance width="600"/>
  <unicode hex="007D"/>
  <outline>
    <contour>
      <point x="266" y="-100" type="line"/>
      <point x="480" y="-100" type="line"/>
      <point x="480" y="416" type="line"/>
      <point x="479" y="416" type="line"/>
      <point x="266" y="229" type="line"/>
    </contour>
  </outline>
</glyph>
<glyph name="exclamdown.color0" format="2">
  <advance width="600"/>
  <unicode hex="00A1"/>
  <outline>
    <contour>
      <point x="45" y="-36" type="line"/>
      <point x="46" y="-36" type="line"/>
      <point x="259" y="71" type="line"/>
      <point x="259" y="426" type="line"/>
      <point x="45" y="426" type="line"/>
    </contour>
  </outline>
</glyph>
<glyph name="sterling.color1" format="2">
  <advance width="600"/>
  <unicode hex="00A3"/>
  <outline>
    <contour>
      <point x="70" y="260" type="line"/>
      <point x="852" y="261" type="line"/>
      <point x="852" y="464" type="line"/>
      <point x="70" y="463" type="line"/>
    </contour>
  </outline>
</glyph>
<glyph name="section.color5" format="2">
  <advance width="600"/>
  <unicode hex="00A7"/>
  <outline>
    <contour>
      <point x="676" y="250" type="line"/>
      <point x="796" y="425" type="line"/>
      <point x="796" y="426" type="line"/>
      <point x="198" y="730" type="line"/>
      <point x="78" y="555" type="line"/>
    </contour>
  </outline>
</glyph>
<glyph name="section" format="2">
  <advance width="827"/>
  <unicode hex="00A7"/>
  <outline>
    <contour>
      <point x="224" y="163" type="line"/>
      <point x="407" y="428" type="line"/>
      <point x="204" y="519" type="line"/>
      <point x="145" y="433" type="line"/>
    </contour>
    <contour>
      <point x="590" y="116" type="line"/>
      <point x="676" y="250" type="line"/>
      <point x="510" y="377" type="line"/>
      <point x="434" y="264" type="line"/>
    </contour>
    <contour>
      <point x="233" y="-56" type="line"/>
      <point x="635" y="-56" type="line"/>
      <point x="609" y="148" type="line"/>
      <point x="31" y="148" type="line"/>
      <point x="31" y="147" type="line"/>
    </contour>
    <contour>
      <point x="224" y="526" type="line"/>
      <point x="802" y="526" type="line"/>
      <point x="802" y="527" type="line"/>
      <point x="600" y="730" type="line"/>
      <point x="198" y="730" type="line"/>
    </contour>
    <contour>
      <point x="635" y="-56" type="line"/>
      <point x="755" y="119" type="line"/>
      <point x="145" y="433" type="line"/>
      <point x="25" y="249" type="line"/>
      <point x="25" y="248" type="line"/>
    </contour>
    <contour>
      <point x="676" y="250" type="line"/>
      <point x="796" y="425" type="line"/>
      <point x="796" y="426" type="line"/>
      <point x="198" y="730" type="line"/>
      <point x="78" y="555" type="line"/>
    </contour>
  </outline>
</glyph>
<glyph name="copyright.color0" format="2">
  <advance width="600"/>
  <unicode hex="00A9"/>
  <outline>
    <contour>
      <point x="248" y="32" type="line"/>
      <point x="741" y="32" type="line"/>
      <point x="848" y="231" type="line"/>
      <point x="848" y="232" type="line"/>
      <point x="141" y="232" type="line"/>
      <point x="141" y="231" type="line"/>
    </contour>
  </outline>
</glyph>
<glyph name="copyright.color3" format="2">
  <advance width="600"/>
  <unicode hex="00A9"/>
  <outline>
    <contour>
      <point x="141" y="232" type="line"/>
      <point x="355" y="232" type="line"/>
      <point x="355" y="596" type="line"/>
      <point x="354" y="596" type="line"/>
      <point x="141" y="489" type="line"/>
    </contour>
  </outline>
</glyph>
<glyph name="logicalnot.color0" format="2">
  <advance width="600"/>
  <unicode hex="00AC"/>
  <outline>
    <contour>
      <point x="25" y="326" type="line"/>
      <point x="525" y="326" type="line"/>
      <point x="418" y="490" type="line"/>
      <point x="25" y="490" type="line"/>
    </contour>
  </outline>
</glyph>
<glyph name="logicalnot.color1" format="2">
  <advance width="600"/>
  <unicode hex="00AC"/>
  <outline>
    <contour>
      <point x="351" y="126" type="line"/>
      <point x="352" y="126" type="line"/>
      <point x="525" y="233" type="line"/>
      <point x="525" y="326" type="line"/>
      <point x="351" y="326" type="line"/>
    </contour>
  </outline>
</glyph>
<glyph name="logicalnot" format="2">
  <advance width="550"/>
  <unicode hex="00AC"/>
  <outline>
    <contour>
      <point x="25" y="326" type="line"/>
      <point x="525" y="326" type="line"/>
      <point x="418" y="490" type="line"/>
      <point x="25" y="490" type="line"/>
    </contour>
    <contour>
      <point x="351" y="126" type="line"/>
      <point x="352" y="126" type="line"/>
      <point x="525" y="233" type="line"/>
      <point x="525" y="326" type="line"/>
      <point x="351" y="326" type="line"/>
    </contour>
  </outline>
</glyph>
<glyph name="registered.color1" format="2">
  <advance width="600"/>
  <unicode hex="00AE"/>
  <outline>
    <contour>
      <point x="58" y="431" type="line"/>
      <point x="59" y="431" type="line"/>
      <point x="59" y="776" type="line"/>
      <point x="35" y="776" type="line"/>
      <point x="35" y="454" type="line"/>
    </contour>
  </outline>
</glyph>
<glyph name="registered.color3" format="2">
  <advance width="600"/>
  <unicode hex="00AE"/>
  <outline>
    <contour>
      <point x="362" y="485" type="line"/>
      <point x="583" y="485" type="line"/>
      <point x="583" y="486" type="line"/>
      <point x="471" y="604" type="line"/>
      <point x="260" y="604" type="line"/>
    </contour>
  </outline>
</glyph>
<glyph name="registered.color7" format="2">
  <advance width="600"/>
  <unicode hex="00AE"/>
  <outline>
    <contour>
      <point x="35" y="776" type="line"/>
      <point x="616" y="776" type="line"/>
      <point x="616" y="800" type="line"/>
      <point x="58" y="800" type="line"/>
      <point x="35" y="777" type="line"/>
    </contour>
  </outline>
</glyph>
<glyph name="degree.color0" format="2">
  <advance width="600"/>
  <unicode hex="00B0"/>
  <outline>
    <contour>
      <point x="115" y="699" type="line"/>
      <point x="391" y="699" type="line"/>
      <point x="391" y="700" type="line"/>
      <point x="319" y="800" type="line"/>
      <point x="115" y="800" type="line"/>
    </contour>
  </outline>
</glyph>
<glyph name="plusminus.color3" format="2">
  <advance width="600"/>
  <unicode hex="00B1"/>
  <outline>
    <contour>
      <point x="264" y="438" type="line"/>
      <point x="265" y="438" type="line"/>
      <point x="428" y="602" type="line"/>
      <point x="428" y="772" type="line"/>
      <point x="264" y="772" type="line"/>
    </contour>
  </outline>
</glyph>
<glyph name="threesuperior.color2" format="2">
  <advance width="600"/>
  <unicode hex="00B3"/>
  <outline>
    <contour>
      <point x="46" y="600" type="line"/>
      <point x="264" y="600" type="line"/>
      <point x="264" y="678" type="line"/>
      <point x="46" y="678" type="line"/>
    </contour>
  </outline>
</glyph>
<glyph name="paragraph.color3" format="2">
  <advance width="600"/>
  <unicode hex="00B6"/>
  <outline>
    <contour>
      <point x="474" y="0" type="line"/>
      <point x="688" y="0" type="line"/>
      <point x="688" y="526" type="line"/>
      <point x="474" y="526" type="line"/>
    </contour>
  </outline>
</glyph>
<glyph name="onesuperior.color2" format="2">
  <advance width="600"/>
  <unicode hex="00B9"/>
  <outline>
    <contour>
      <point x="231" y="470" type="line"/>
      <point x="455" y="470" type="line"/>
      <point x="455" y="604" type="line"/>
      <point x="333" y="604" type="line"/>
    </contour>
  </outline>
</glyph>
<glyph name="guillemetright" format="2">
  <advance width="828"/>
  <unicode hex="00BB"/>
  <outline>
    <contour>
      <point x="314" y="0" type="line"/>
      <point x="551" y="0" type="line"/>
      <point x="793" y="268" type="line"/>
      <point x="793" y="269" type="line"/>
      <point x="555" y="269" type="line"/>
      <point x="314" y="1" type="line"/>
    </contour>
    <contour>
      <point x="25" y="-4" type="line"/>
      <point x="262" y="-4" type="line"/>
      <point x="504" y="264" type="line"/>
      <point x="504" y="265" type="line"/>
      <point x="266" y="265" type="line"/>
      <point x="25" y="-3" type="line"/>
    </contour>
    <contour>
      <point x="266" y="265" type="line"/>
      <point x="504" y="265" type="line"/>
      <point x="504" y="266" type="line"/>
      <point x="262" y="526" type="line"/>
      <point x="25" y="526" type="line"/>
      <point x="25" y="522" type="line"/>
    </contour>
    <contour>
      <point x="555" y="269" type="line"/>
      <point x="793" y="269" type="line"/>
      <point x="793" y="270" type="line"/>
      <point x="551" y="530" type="line"/>
      <point x="314" y="530" type="line"/>
      <point x="314" y="526" type="line"/>
    </contour>
  </outline>
</glyph>
<glyph name="threequarters.color2" format="2">
  <advance width="600"/>
  <unicode hex="00BE"/>
  <outline>
    <contour>
      <point x="46" y="600" type="line"/>
      <point x="264" y="600" type="line"/>
      <point x="264" y="678" type="line"/>
      <point x="46" y="678" type="line"/>
    </contour>
  </outline>
</glyph>
<glyph name="threequarters.color7" format="2">
  <advance width="600"/>
  <unicode hex="00BE"/>
  <outline>
    <contour>
      <point x="580" y="59" type="line"/>
      <point x="836" y="319" type="line"/>
      <point x="836" y="320" type="line"/>
      <point x="657" y="320" type="line"/>
      <point x="475" y="144" type="line"/>
    </contour>
  </outline>
</glyph>
<glyph name="questiondown.color3" format="2">
  <advance width="600"/>
  <unicode hex="00BF"/>
  <outline>
    <contour>
      <point x="458" y="234" type="line"/>
      <point x="459" y="234" type="line"/>
      <point x="672" y="431" type="line"/>
      <point x="672" y="468" type="line"/>
      <point x="458" y="468" type="line"/>
    </contour>
  </outline>
</glyph>
<glyph name="Agrave.color4" format="2">
  <advance width="600"/>
  <unicode hex="00C0"/>
  <outline>
    <contour>
      <point x="399" y="760" type="line"/>
      <point x="525" y="760" type="line"/>
      <point x="490" y="900" type="line"/>
      <point x="284" y="900" type="line"/>
      <point x="284" y="899" type="line"/>
    </contour>
  </outline>
</glyph>
<glyph name="Atilde.color6" format="2">
  <advance width="600"/>
  <unicode hex="00C3"/>
  <outline>
    <contour>
      <point x="527" y="756" type="line"/>
      <point x="538" y="756" type="line"/>
      <point x="676" y="826" type="line"/>
      <point x="676" y="827" type="line"/>
      <point x="357" y="923" type="line"/>
      <point x="346" y="923" type="line"/>
      <point x="208" y="854" type="line"/>
      <point x="208" y="853" type="line"/>
    </contour>
  </outline>
</glyph>
<glyph name="Adieresis" format="2">
  <advance width="847"/>
  <unicode hex="00C4"/>
  <anchor x="462" y="0" name="bottom"/>
  <anchor x="446" y="900" name="top"/>
  <outline>
    <contour>
      <point x="35" y="0" type="line"/>
      <point x="249" y="0" type="line"/>
      <point x="249" y="730" type="line"/>
      <point x="248" y="730" type="line"/>
      <point x="35" y="523" type="line"/>
    </contour>
    <contour>
      <point x="249" y="193" type="line"/>
      <point x="598" y="193" type="line"/>
      <point x="598" y="397" type="line"/>
      <point x="249" y="397" type="line"/>
    </contour>
    <contour>
      <point x="598" y="0" type="line"/>
      <point x="812" y="0" type="line"/>
      <point x="812" y="526" type="line"/>
      <point x="599" y="526" type="line"/>
      <point x="598" y="526" type="line"/>
    </contour>
    <contour>
      <point x="249" y="526" type="line"/>
      <point x="812" y="526" type="line"/>
      <point x="812" y="527" type="line"/>
      <point x="650" y="730" type="line"/>
      <point x="249" y="730" type="line"/>
    </contour>
    <contour>
      <point x="498" y="788" type="line"/>
      <point x="644" y="788" type="line"/>
      <point x="644" y="900" type="line"/>
      <point x="498" y="900" type="line"/>
    </contour>
    <contour>
      <point x="250" y="788" type="line"/>
      <point x="396" y="788" type="line"/>
      <point x="396" y="900" type="line"/>
      <point x="250" y="900" type="line"/>
    </contour>
  </outline>
</glyph>
<glyph name="AE.color5" format="2">
  <advance width="600"/>
  <unicode hex="00C6"/>
  <outline>
    <contour>
      <point x="772" y="263" type="line"/>
      <point x="1132" y="263" type="line"/>
      <point x="1132" y="467" type="line"/>
      <point x="772" y="467" type="line"/>
    </contour>
  </outline>
</glyph>
<glyph name="Ecircumflex.color0" format="2">
  <advance width="600"/>
  <unicode hex="00CA"/>
  <outline>
    <contour>
      <point x="237" y="0" type="line"/>
      <point x="761" y="0" type="line"/>
      <point x="761" y="204" type="line"/>
      <point x="35" y="204" type="line"/>
      <point x="35" y="203" type="line"/>
    </contour>
  </outline>
</glyph>
<glyph name="Ecircumflex.color4" format="2">
  <advance width="600"/>
  <unicode hex="00CA"/>
  <outline>
    <contour>
      <point x="509" y="760" type="line"/>
      <point x="666" y="760" type="line"/>
      <point x="666" y="761" type="line"/>
      <point x="508" y="900" type="line"/>
      <point x="375" y="867" type="line"/>
    </contour>
  </outline>
</glyph>
<glyph name="Edieresis.color4" format="2">
  <advance width="600"/>
  <unicode hex="00CB"/>
  <outline>
    <contour>
      <point x="478" y="788" type="line"/>
      <point x="624" y="788" type="line"/>
      <point x="624" y="900" type="line"/>
      <point x="478" y="900" type="line"/>
    </contour>
  </outline>
</glyph>
<glyph name="Iacute.color1" format="2">
  <advance width="600"/>
  <unicode hex="00CD"/>
  <outline>
    <contour>
      <point x="25" y="1" type="line"/>
      <point x="245" y="0" type="line"/>
      <point x="246" y="204" type="line"/>
      <point x="25" y="204" type="line"/>
    </contour>
  </outline>
</glyph>
<glyph name="Icircumflex.color3" format="2">
  <advance width="600"/>
  <unicode hex="00CE"/>
  <outline>
    <contour>
      <point x="25" y="526" type="line"/>
      <point x="246" y="526" type="line"/>
      <point x="408" y="730" type="line"/>
      <point x="25" y="730" type="line"/>
    </contour>
  </outline>
</glyph>
<glyph name="Idieresis.color5" format="2">
  <advance width="600"/>
  <unicode hex="00CF"/>
  <outline>
    <contour>
      <point x="393" y="788" type="line"/>
      <point x="539" y="788" type="line"/>
      <point x="539" y="900" type="line"/>
      <point x="393" y="900" type="line"/>
    </contour>
  </outline>
</glyph>
<glyph name="Eth" format="2">
  <advance width="913"/>
  <unicode hex="00D0"/>
  <anchor x="302" y="361" name="_stroke"/>
  <anchor x="212" y="361" name="stroke"/>
  <anchor x="472" y="730" name="top"/>
  <outline>
    <contour>
      <point x="5" y="269" type="line"/>
      <point x="599" y="269" type="line"/>
      <point x="599" y="453" type="line"/>
      <point x="5" y="453" type="line"/>
    </contour>
    <contour>
      <point x="295" y="526" type="line"/>
      <point x="888" y="526" type="line"/>
      <point x="888" y="527" type="line"/>
      <point x="726" y="730" type="line"/>
      <point x="295" y="730" type="line"/>
    </contour>
    <contour>
      <point x="81" y="-4" type="line"/>
      <point x="674" y="-4" type="line"/>
      <point x="674" y="200" type="line"/>
      <point x="81" y="200" type="line"/>
    </contour>
    <contour>
      <point x="81" y="200" type="line"/>
      <point x="295" y="200" type="line"/>
      <point x="295" y="730" type="line"/>
      <point x="81" y="730" type="line"/>
    </contour>
    <contour>
      <point x="674" y="-4" type="line"/>
      <point x="675" y="-4" type="line"/>
      <point x="888" y="193" type="line"/>
      <point x="888" y="526" type="line"/>
      <point x="674" y="526" type="line"/>
    </contour>
  </outline>
</glyph>
<glyph name="Oacute.color2" format="2">
  <advance width="600"/>
  <unicode hex="00D3"/>
  <outline>
    <contour>
      <point x="25" y="204" type="line"/>
      <point x="239" y="204" type="line"/>
      <point x="239" y="730" type="line"/>
      <point x="238" y="730" type="line"/>
      <point x="25" y="523" type="line"/>
    </contour>
  </outline>
</glyph>
<glyph name="Oacute.color4" format="2">
  <advance width="600"/>
  <unicode hex="00D3"/>
  <outline>
    <contour>
      <point x="352" y="760" type="line"/>
      <point x="478" y="760" type="line"/>
      <point x="593" y="899" type="line"/>
      <point x="593" y="900" type="line"/>
      <point x="387" y="900" type="line"/>
    </contour>
  </outline>
</glyph>
<glyph name="Ocircumflex.color0" format="2">
  <advance width="600"/>
  <unicode hex="00D4"/>
  <outline>
    <contour>
      <point x="239" y="526" type="line"/>
      <point x="802" y="526" type="line"/>
      <point x="802" y="527" type="line"/>
      <point x="640" y="730" type="line"/>
      <point x="239" y="730" type="line"/>
    </contour>
  </outline>
</glyph>
<glyph name="Otilde.color4" format="2">
  <advance width="600"/>
  <unicode hex="00D5"/>
  <outline>
    <contour>
      <point x="198" y="772" type="line"/>
      <point x="338" y="772" type="line"/>
      <point x="338" y="864" type="line"/>
      <point x="198" y="853" type="line"/>
    </contour>
  </outline>
</glyph>
<glyph name="Odieresis.color5" format="2">
  <advance width="600"/>
  <unicode hex="00D6"/>
  <outline>
    <contour>
      <point x="240" y="788" type="line"/>
      <point x="386" y="788" type="line"/>
      <point x="386" y="900" type="line"/>
      <point x="240" y="900" type="line"/>
    </contour>
  </outline>
</glyph>
<glyph name="Uacute.color0" format="2">
  <advance width="600"/>
  <unicode hex="00DA"/>
  <outline>
    <contour>
      <point x="588" y="0" type="line"/>
      <point x="589" y="0" type="line"/>
      <point x="802" y="207" type="line"/>
      <point x="802" y="730" type="line"/>
      <point x="588" y="730" type="line"/>
    </contour>
  </outline>
</glyph>
<glyph name="Udieresis.color3" format="2">
  <advance width="600"/>
  <unicode hex="00DC"/>
  <outline>
    <contour>
      <point x="488" y="788" type="line"/>
      <point x="634" y="788" type="line"/>
      <point x="634" y="900" type="line"/>
      <point x="488" y="900" type="line"/>
    </contour>
  </outline>
</glyph>
<glyph name="Thorn.color0" format="2">
  <advance width="600"/>
  <unicode hex="00DE"/>
  <outline>
    <contour>
      <point x="25" y="0" type="line"/>
      <point x="239" y="0" type="line"/>
      <point x="239" y="730" type="line"/>
      <point x="25" y="730" type="line"/>
    </contour>
  </outline>
</glyph>
<glyph name="Thorn.color2" format="2">
  <advance width="600"/>
  <unicode hex="00DE"/>
  <outline>
    <contour>
      <point x="588" y="93" type="line"/>
      <point x="589" y="93" type="line"/>
      <point x="802" y="290" type="line"/>
      <point x="802" y="446" type="line"/>
      <point x="588" y="446" type="line"/>
    </contour>
  </outline>
</glyph>
<glyph name="germandbls.color3" format="2">
  <advance width="600"/>
  <unicode hex="00DF"/>
  <outline>
    <contour>
      <point x="588" y="416" type="line"/>
      <point x="588" y="603" type="line"/>
      <point x="375" y="800" type="line"/>
      <point x="374" y="800" type="line"/>
      <point x="374" y="507" type="line"/>
    </contour>
  </outline>
</glyph>
<glyph name="germandbls.color4" format="2">
  <advance width="600"/>
  <unicode hex="00DF"/>
  <outline>
    <contour>
      <point x="487" y="273" type="line"/>
      <point x="588" y="273" type="line"/>
      <point x="588" y="507" type="line"/>
      <point x="374" y="507" type="line"/>
      <point x="374" y="506" type="line"/>
    </contour>
  </outline>
</glyph>
<glyph name="atilde" format="2">
  <advance width="827"/>
  <unicode hex="00E3"/>
  <anchor x="441" y="0" name="bottom"/>
  <anchor x="452" y="530" name="top"/>
  <outline>
    <contour>
      <point x="249" y="326" type="line"/>
      <point x="792" y="326" type="line"/>
      <point x="792" y="327" type="line"/>
      <point x="685" y="530" type="line"/>
      <point x="249" y="530" type="line"/>
    </contour>
    <contour>
      <point x="142" y="0" type="line"/>
      <point x="578" y="0" type="line"/>
      <point x="578" y="204" type="line"/>
      <point x="35" y="204" type="line"/>
      <point x="35" y="203" type="line"/>
    </contour>
    <contour>
      <point x="35" y="204" type="line"/>
      <point x="249" y="204" type="line"/>
      <point x="249" y="530" type="line"/>
      <point x="248" y="530" type="line"/>
      <point x="35" y="423" type="line"/>
    </contour>
    <contour>
      <point x="578" y="0" type="line"/>
      <point x="792" y="0" type="line"/>
      <point x="792" y="326" type="line"/>
      <point x="578" y="326" type="line"/>
    </contour>
    <contour>
      <point x="244" y="611" type="line"/>
      <point x="364" y="611" type="line"/>
      <point x="364" y="713" type="line"/>
      <point x="244" y="732" type="line"/>
    </contour>
    <contour>
      <point x="523" y="650" type="line"/>
      <point x="642" y="640" type="line"/>
      <point x="642" y="759" type="line"/>
      <point x="523" y="759" type="line"/>
    </contour>
    <contour>
      <point x="513" y="600" type="line"/>
      <point x="514" y="600" type="line"/>
      <point x="642" y="639" type="line"/>
      <point x="642" y="640" type="line"/>
      <point x="374" y="772" type="line"/>
      <point x="373" y="772" type="line"/>
      <point x="244" y="733" type="line"/>
      <point x="244" y="732" type="line"/>
    </contour>
  </outline>
</glyph>
<glyph name="adieresis.color5" format="2">
  <advance width="600"/>
  <unicode hex="00E4"/>
  <outline>
    <contour>
      <point x="230" y="640" type="line"/>
      <point x="406" y="640" type="line"/>
      <point x="406" y="772" type="line"/>
      <point x="230" y="772" type="line"/>
    </contour>
  </outline>
</glyph>
<glyph name="aring.color4" format="2">
  <advance width="600"/>
  <unicode hex="00E5"/>
  <outline>
    <contour>
      <point x="380" y="736" type="line"/>
      <point x="610" y="736" type="line"/>
      <point x="610" y="737" type="line"/>
      <point x="550" y="820" type="line"/>
      <point x="380" y="820" type="line"/>
    </contour>
  </outline>
</glyph>
<glyph name="aring" format="2">
  <advance width="827"/>
  <unicode hex="00E5"/>
  <anchor x="441" y="0" name="bottom"/>
  <anchor x="446" y="770" name="top"/>
  <outline>
    <contour>
      <point x="249" y="326" type="line"/>
      <point x="792" y="326" type="line"/>
      <point x="792" y="327" type="line"/>
      <point x="685" y="530" type="line"/>
      <point x="249" y="530" type="line"/>
    </contour>
    <contour>
      <point x="142" y="0" type="line"/>
      <point x="578" y="0" type="line"/>
      <point x="578" y="204" type="line"/>
      <point x="35" y="204" type="line"/>
      <point x="35" y="203" type="line"/>
    </contour>
    <contour>
      <point x="35" y="204" type="line"/>
      <point x="249" y="204" type="line"/>
      <point x="249" y="530" type="line"/>
      <point x="248" y="530" type="line"/>
      <point x="35" y="423" type="line"/>
    </contour>
    <contour>
      <point x="578" y="0" type="line"/>
      <point x="792" y="0" type="line"/>
      <point x="792" y="326" type="line"/>
      <point x="578" y="326" type="line"/>
    </contour>
    <contour>
      <point x="380" y="736" type="line"/>
      <point x="610" y="736" type="line"/>
      <point x="610" y="737" type="line"/>
      <point x="550" y="820" type="line"/>
      <point x="380" y="820" type="line"/>
    </contour>
    <contour>
      <point x="344" y="602" type="line"/>
      <point x="514" y="602" type="line"/>
      <point x="514" y="684" type="line"/>
      <point x="284" y="684" type="line"/>
      <point x="284" y="683" type="line"/>
    </contour>
    <contour>
      <point x="284" y="684" type="line"/>
      <point x="380" y="684" type="line"/>
      <point x="380" y="820" type="line"/>
      <point x="379" y="820" type="line"/>
      <point x="284" y="758" type="line"/>
    </contour>
    <contour>
      <point x="514" y="602" type="line"/>
      <point x="515" y="602" type="line"/>
      <point x="610" y="658" type="line"/>
      <point x="610" y="736" type="line"/>
      <point x="514" y="736" type="line"/>
    </contour>
  </outline>
</glyph>
<glyph name="ae.color0" format="2">
  <advance width="600"/>
  <unicode hex="00E6"/>
  <outline>
    <contour>
      <point x="142" y="0" type="line"/>
      <point x="802" y="0" type="line"/>
      <point x="588" y="204" type="line"/>
      <point x="35" y="204" type="line"/>
      <point x="35" y="203" type="line"/>
    </contour>
  </outline>
</glyph>
<glyph name="ae.color4" format="2">
  <advance width="600"/>
  <unicode hex="00E6"/>
  <outline>
    <contour>
      <point x="259" y="326" type="line"/>
      <point x="802" y="326" type="line"/>
      <point x="802" y="327" type="line"/>
      <point x="695" y="530" type="line"/>
      <point x="259" y="530" type="line"/>
    </contour>
  </outline>
</glyph>
<glyph name="ae.color5" format="2">
  <advance width="600"/>
  <unicode hex="00E6"/>
  <outline>
    <contour>
      <point x="802" y="0" type="line"/>
      <point x="1248" y="0" type="line"/>
      <point x="1355" y="199" type="line"/>
      <point x="1355" y="200" type="line"/>
      <point x="802" y="200" type="line"/>
    </contour>
  </outline>
</glyph>
<glyph name="edieresis.color5" format="2">
  <advance width="600"/>
  <unicode hex="00EB"/>
  <outline>
    <contour>
      <point x="468" y="640" type="line"/>
      <point x="644" y="640" type="line"/>
      <point x="644" y="772" type="line"/>
      <point x="468" y="772" type="line"/>
    </contour>
  </outline>
</glyph>
<glyph name="igrave.color1" format="2">
  <advance width="600"/>
  <unicode hex="00EC"/>
  <outline>
    <contour>
      <point x="110" y="590" type="line"/>
      <point x="216" y="590" type="line"/>
      <point x="181" y="820" type="line"/>
      <point x="5" y="820" type="line"/>
      <point x="5" y="819" type="line"/>
    </contour>
  </outline>
</glyph>
<glyph name="iacute" format="2">
  <advance width="304"/>
  <unicode hex="00ED"/>
  <anchor x="151" y="0" name="bottom"/>
  <anchor x="159" y="530" name="top"/>
  <outline>
    <contour>
      <point x="45" y="0" type="line"/>
      <point x="259" y="0" type="line"/>
      <point x="259" y="503" type="line"/>
      <point x="258" y="530" type="line"/>
      <point x="45" y="530" type="line"/>
    </contour>
    <contour>
      <point x="86" y="590" type="line"/>
      <point x="192" y="590" type="line"/>
      <point x="297" y="819" type="line"/>
      <point x="297" y="820" type="line"/>
      <point x="121" y="820" type="line"/>
    </contour>
  </outline>
</glyph>
<glyph name="icircumflex.color1" format="2">
  <advance width="600"/>
  <unicode hex="00EE"/>
  <outline>
    <contour>
      <point x="202" y="592" type="line"/>
      <point x="359" y="592" type="line"/>
      <point x="359" y="593" type="line"/>
      <point x="221" y="770" type="line"/>
      <point x="98" y="739" type="line"/>
    </contour>
  </outline>
</glyph>
<glyph name="idieresis.color0" format="2">
  <advance width="600"/>
  <unicode hex="00EF"/>
  <outline>
    <contour>
      <point x="166" y="640" type="line"/>
      <point x="322" y="640" type="line"/>
      <point x="322" y="772" type="line"/>
      <point x="166" y="772" type="line"/>
    </contour>
  </outline>
</glyph>
<glyph name="idieresis.color2" format="2">
  <advance width="600"/>
  <unicode hex="00EF"/>
  <outline>
    <contour>
      <point x="-22" y="640" type="line"/>
      <point x="134" y="640" type="line"/>
      <point x="134" y="772" type="line"/>
      <point x="-22" y="772" type="line"/>
    </contour>
  </outline>
</glyph>
<glyph name="idieresis" format="2">
  <advance width="300"/>
  <unicode hex="00EF"/>
  <anchor x="162" y="0" name="bottom"/>
  <anchor x="170" y="530" name="top"/>
  <outline>
    <contour>
      <point x="166" y="640" type="line"/>
      <point x="322" y="640" type="line"/>
      <point x="322" y="772" type="line"/>
      <point x="166" y="772" type="line"/>
    </contour>
    <contour>
      <point x="56" y="0" type="line"/>
      <point x="270" y="0" type="line"/>
      <point x="270" y="503" type="line"/>
      <point x="269" y="530" type="line"/>
      <point x="56" y="530" type="line"/>
    </contour>
    <contour>
      <point x="-22" y="640" type="line"/>
      <point x="134" y="640" type="line"/>
      <point x="134" y="772" type="line"/>
      <point x="-22" y="772" type="line"/>
    </contour>
  </outline>
</glyph>
<glyph name="oacute.color4" format="2">
  <advance width="600"/>
  <unicode hex="00F3"/>
  <outline>
    <contour>
      <point x="369" y="590" type="line"/>
      <point x="475" y="590" type="line"/>
      <point x="580" y="819" type="line"/>
      <point x="580" y="820" type="line"/>
      <point x="404" y="820" type="line"/>
    </contour>
  </outline>
</glyph>
<glyph name="otilde.color6" format="2">
  <advance width="600"/>
  <unicode hex="00F5"/>
  <outline>
    <contour>
      <point x="503" y="600" type="line"/>
      <point x="504" y="600" type="line"/>
      <point x="632" y="639" type="line"/>
      <point x="632" y="640" type="line"/>
      <point x="364" y="772" type="line"/>
      <point x="363" y="772" type="line"/>
      <point x="234" y="733" type="line"/>
      <point x="234" y="732" type="line"/>
    </contour>
  </outline>
</glyph>
<glyph name="oslash.color1" format="2">
  <advance width="600"/>
  <unicode hex="00F8"/>
  <outline>
    <contour>
      <point x="285" y="326" type="line"/>
      <point x="858" y="326" type="line"/>
      <point x="858" y="327" type="line"/>
      <point x="751" y="530" type="line"/>
      <point x="285" y="530" type="line"/>
    </contour>
  </outline>
</glyph>
<glyph name="ugrave.color3" format="2">
  <advance width="600"/>
  <unicode hex="00F9"/>
  <outline>
    <contour>
      <point x="373" y="590" type="line"/>
      <point x="479" y="590" type="line"/>
      <point x="444" y="820" type="line"/>
      <point x="268" y="820" type="line"/>
      <point x="268" y="819" type="line"/>
    </contour>
  </outline>
</glyph>
<glyph name="yacute.color1" format="2">
  <advance width="600"/>
  <unicode hex="00FD"/>
  <outline>
    <contour>
      <point x="137" y="-206" type="line"/>
      <point x="530" y="-206" type="line"/>
      <point x="530" y="-26" type="line"/>
      <point x="35" y="-26" type="line"/>
      <point x="35" y="-27" type="line"/>
    </contour>
  </outline>
</glyph>
<glyph name="thorn.color2" format="2">
  <advance width="600"/>
  <unicode hex="00FE"/>
  <outline>
    <contour>
      <point x="249" y="0" type="line"/>
      <point x="559" y="0" type="line"/>
      <point x="559" y="204" type="line"/>
      <point x="35" y="204" type="line"/>
      <point x="35" y="203" type="line"/>
    </contour>
  </outline>
</glyph>
<glyph name="ydieresis.color2" format="2">
  <advance width="600"/>
  <unicode hex="00FF"/>
  <outline>
    <contour>
      <point x="142" y="0" type="line"/>
      <point x="529" y="0" type="line"/>
      <point x="529" y="204" type="line"/>
      <point x="35" y="204" type="line"/>
      <point x="35" y="203" type="line"/>
    </contour>
  </outline>
</glyph>
<glyph name="Abreve" format="2">
  <advance width="847"/>
  <unicode hex="0102"/>
  <anchor x="462" y="0" name="bottom"/>
  <anchor x="446" y="730" name="top"/>
  <outline>
    <contour>
      <point x="35" y="0" type="line"/>
      <point x="249" y="0" type="line"/>
      <point x="249" y="730" type="line"/>
      <point x="248" y="730" type="line"/>
      <point x="35" y="523" type="line"/>
    </contour>
    <contour>
      <point x="249" y="193" type="line"/>
      <point x="598" y="193" type="line"/>
      <point x="598" y="397" type="line"/>
      <point x="249" y="397" type="line"/>
    </contour>
    <contour>
      <point x="598" y="0" type="line"/>
      <point x="812" y="0" type="line"/>
      <point x="812" y="526" type="line"/>
      <point x="599" y="526" type="line"/>
      <point x="598" y="526" type="line"/>
    </contour>
    <contour>
      <point x="249" y="526" type="line"/>
      <point x="812" y="526" type="line"/>
      <point x="812" y="527" type="line"/>
      <point x="650" y="730" type="line"/>
      <point x="249" y="730" type="line"/>
    </contour>
    <contour>
      <point x="314" y="760" type="line"/>
      <point x="559" y="760" type="line"/>
      <point x="653" y="860" type="line"/>
      <point x="220" y="860" type="line"/>
    </contour>
    <contour>
      <point x="220" y="860" type="line"/>
      <point x="399" y="860" type="line"/>
      <point x="362" y="900" type="line"/>
      <point x="186" y="900" type="line"/>
      <point x="186" y="898" type="line"/>
    </contour>
    <contour>
      <point x="474" y="860" type="line"/>
      <point x="653" y="860" type="line"/>
      <point x="687" y="899" type="line"/>
      <point x="687" y="900" type="line"/>
      <point x="511" y="900" type="line"/>
    </contour>
  </outline>
</glyph>
<glyph name="Aogonek.color4" format="2">
  <advance width="600"/>
  <unicode hex="0104"/>
  <outline>
    <contour>
      <point x="541" y="-86" type="line"/>
      <point x="669" y="-86" type="line"/>
      <point x="743" y="-1" type="line"/>
      <point x="743" y="0" type="line"/>
      <point x="618" y="0" type="line"/>
      <point x="541" y="-85" type="line"/>
    </contour>
  </outline>
</glyph>
<glyph name="Aogonek.color5" format="2">
  <advance width="600"/>
  <unicode hex="0104"/>
  <outline>
    <contour>
      <point x="668" y="-230" type="line"/>
      <point x="669" y="-230" type="line"/>
      <point x="669" y="-86" type="line"/>
      <point x="541" y="-86" type="line"/>
      <point x="541" y="-174" type="line"/>
    </contour>
  </outline>
</glyph>
<glyph name="Aogonek.color6" format="2">
  <advance width="600"/>
  <unicode hex="0104"/>
  <outline>
    <contour>
      <point x="669" y="-230" type="line"/>
      <point x="787" y="-230" type="line"/>
      <point x="847" y="-139" type="line"/>
      <point x="847" y="-138" type="line"/>
      <point x="669" y="-138" type="line"/>
    </contour>
  </outline>
</glyph>
<glyph name="aogonek.color3" format="2">
  <advance width="600"/>
  <unicode hex="0105"/>
  <outline>
    <contour>
      <point x="578" y="0" type="line"/>
      <point x="792" y="0" type="line"/>
      <point x="792" y="326" type="line"/>
      <point x="578" y="326" type="line"/>
    </contour>
  </outline>
</glyph>
<glyph name="aogonek.color4" format="2">
  <advance width="600"/>
  <unicode hex="0105"/>
  <outline>
    <contour>
      <point x="304" y="-86" type="line"/>
      <point x="432" y="-86" type="line"/>
      <point x="506" y="-1" type="line"/>
      <point x="506" y="0" type="line"/>
      <point x="381" y="0" type="line"/>
      <point x="304" y="-85" type="line"/>
    </contour>
  </outline>
</glyph>
<glyph name="ccircumflex.color3" format="2">
  <advance width="600"/>
  <unicode hex="0109"/>
  <outline>
    <contour>
      <point x="470" y="592" type="line"/>
      <point x="627" y="592" type="line"/>
      <point x="627" y="593" type="line"/>
      <point x="489" y="770" type="line"/>
      <point x="366" y="739" type="line"/>
    </contour>
  </outline>
</glyph>
<glyph name="cdotaccent" format="2">
  <advance width="757"/>
  <unicode hex="010B"/>
  <anchor x="410" y="0" name="bottom"/>
  <anchor x="422" y="750" name="top"/>
  <outline>
    <contour>
      <point x="147" y="0" type="line"/>
      <point x="640" y="0" type="line"/>
      <point x="747" y="203" type="line"/>
      <point x="747" y="204" type="line"/>
      <point x="40" y="204" type="line"/>
      <point x="40" y="203" type="line"/>
    </contour>
    <contour>
      <point x="40" y="204" type="line"/>
      <point x="254" y="204" type="line"/>
      <point x="254" y="530" type="line"/>
      <point x="253" y="530" type="line"/>
      <point x="40" y="423" type="line"/>
    </contour>
    <contour>
      <point x="254" y="326" type="line"/>
      <point x="747" y="326" type="line"/>
      <point x="747" y="327" type="line"/>
      <point x="640" y="530" type="line"/>
      <point x="254" y="530" type="line"/>
    </contour>
    <contour>
      <point x="320" y="640" type="line"/>
      <point x="534" y="640" type="line"/>
      <point x="534" y="800" type="line"/>
      <point x="320" y="800" type="line"/>
    </contour>
  </outline>
</glyph>
<glyph name="Ccaron.color0" format="2">
  <advance width="600"/>
  <unicode hex="010C"/>
  <outline>
    <contour>
      <point x="227" y="0" type="line"/>
      <point x="620" y="0" type="line"/>
      <point x="822" y="203" type="line"/>
      <point x="822" y="204" type="line"/>
      <point x="25" y="204" type="line"/>
      <point x="25" y="203" type="line"/>
    </contour>
  </outline>
</glyph>
<glyph name="Ccaron.color3" format="2">
  <advance width="600"/>
  <unicode hex="010C"/>
  <outline>
    <contour>
      <point x="362" y="760" type="line"/>
      <point x="495" y="793" type="line"/>
      <point x="361" y="900" type="line"/>
      <point x="204" y="900" type="line"/>
      <point x="204" y="899" type="line"/>
    </contour>
  </outline>
</glyph>
<glyph name="Ccaron.color4" format="2">
  <advance width="600"/>
  <unicode hex="010C"/>
  <outline>
    <contour>
      <point x="362" y="760" type="line"/>
      <point x="516" y="760" type="line"/>
      <point x="670" y="899" type="line"/>
      <point x="670" y="900" type="line"/>
      <point x="516" y="900" type="line"/>
    </contour>
  </outline>
</glyph>
<glyph name="dcaron.color4" format="2">
  <advance width="600"/>
  <unicode hex="010F"/>
  <outline>
    <contour>
      <point x="569" y="0" type="line"/>
      <point x="570" y="0" type="line"/>
      <point x="783" y="107" type="line"/>
      <point x="783" y="326" type="line"/>
      <point x="569" y="326" type="line"/>
    </contour>
  </outline>
</glyph>
<glyph name="dcroat.color1" format="2">
  <advance width="600"/>
  <unicode hex="0111"/>
  <outline>
    <contour>
      <point x="782" y="329" type="line"/>
      <point x="783" y="329" type="line"/>
      <point x="783" y="794" type="line"/>
      <point x="569" y="794" type="line"/>
      <point x="569" y="530" type="line"/>
    </contour>
  </outline>
</glyph>
<glyph name="Emacron.color2" format="2">
  <advance width="600"/>
  <unicode hex="0112"/>
  <outline>
    <contour>
      <point x="249" y="283" type="line"/>
      <point x="658" y="283" type="line"/>
      <point x="658" y="447" type="line"/>
      <point x="249" y="447" type="line"/>
    </contour>
  </outline>
</glyph>
<glyph name="Emacron.color4" format="2">
  <advance width="600"/>
  <unicode hex="0112"/>
  <outline>
    <contour>
      <point x="228" y="798" type="line"/>
      <point x="624" y="798" type="line"/>
      <point x="624" y="900" type="line"/>
      <point x="228" y="900" type="line"/>
    </contour>
  </outline>
</glyph>
<glyph name="Ebreve.color5" format="2">
  <advance width="600"/>
  <unicode hex="0114"/>
  <outline>
    <contour>
      <point x="200" y="860" type="line"/>
      <point x="379" y="860" type="line"/>
      <point x="342" y="900" type="line"/>
      <point x="166" y="900" type="line"/>
      <point x="166" y="898" type="line"/>
    </contour>
  </outline>
</glyph>
<glyph name="edotaccent.color5" format="2">
  <advance width="600"/>
  <unicode hex="0117"/>
  <outline>
    <contour>
      <point x="335" y="640" type="line"/>
      <point x="549" y="640" type="line"/>
      <point x="549" y="800" type="line"/>
      <point x="335" y="800" type="line"/>
    </contour>
  </outline>
</glyph>
<glyph name="edotaccent" format="2">
  <advance width="837"/>
  <unicode hex="0117"/>
  <anchor x="431" y="0" name="bottom"/>
  <anchor x="437" y="750" name="top"/>
  <outline>
    <contour>
      <point x="152" y="0" type="line"/>
      <point x="705" y="0" type="line"/>
      <point x="812" y="199" type="line"/>
      <point x="812" y="200" type="line"/>
      <point x="45" y="200" type="line"/>
      <point x="45" y="199" type="line"/>
    </contour>
    <contour>
      <point x="45" y="200" type="line"/>
      <point x="259" y="200" type="line"/>
      <point x="259" y="530" type="line"/>
      <point x="258" y="530" type="line"/>
      <point x="45" y="423" type="line"/>
    </contour>
    <contour>
      <point x="259" y="220" type="line"/>
      <point x="598" y="221" type="line"/>
      <point x="598" y="331" type="line"/>
      <point x="259" y="331" type="line"/>
    </contour>
    <contour>
      <point x="259" y="351" type="line"/>
      <point x="812" y="351" type="line"/>
      <point x="812" y="352" type="line"/>
      <point x="705" y="530" type="line"/>
      <point x="259" y="530" type="line"/>
    </contour>
    <contour>
      <point x="598" y="221" type="line"/>
      <point x="599" y="221" type="line"/>
      <point x="812" y="328" type="line"/>
      <point x="812" y="351" type="line"/>
      <point x="598" y="351" type="line"/>
    </contour>
    <contour>
      <point x="335" y="640" type="line"/>
      <point x="549" y="640" type="line"/>
      <point x="549" y="800" type="line"/>
      <point x="335" y="800" type="line"/>
    </contour>
  </outline>
</glyph>
<glyph name="Eogonek.color1" format="2">
  <advance width="600"/>
  <unicode hex="0118"/>
  <outline>
    <contour>
      <point x="35" y="204" type="line"/>
      <point x="249" y="204" type="line"/>
      <point x="249" y="730" type="line"/>
      <point x="35" y="730" type="line"/>
    </contour>
  </outline>
</glyph>
<glyph name="Eogonek.color5" format="2">
  <advance width="600"/>
  <unicode hex="0118"/>
  <outline>
    <contour>
      <point x="452" y="-230" type="line"/>
      <point x="453" y="-230" type="line"/>
      <point x="453" y="-86" type="line"/>
      <point x="325" y="-86" type="line"/>
      <point x="325" y="-174" type="line"/>
    </contour>
  </outline>
</glyph>
<glyph name="eogonek.color2" format="2">
  <advance width="600"/>
  <unicode hex="0119"/>
  <outline>
    <contour>
      <point x="259" y="220" type="line"/>
      <point x="598" y="221" type="line"/>
      <point x="598" y="331" type="line"/>
      <point x="259" y="331" type="line"/>
    </contour>
  </outline>
</glyph>
<glyph name="Gcircumflex.color3" format="2">
  <advance width="600"/>
  <unicode hex="011C"/>
  <outline>
    <contour>
      <point x="298" y="263" type="line"/>
      <point x="688" y="263" type="line"/>
      <point x="688" y="467" type="line"/>
      <point x="298" y="467" type="line"/>
    </contour>
  </outline>
</glyph>
<glyph name="Gcircumflex.color4" format="2">
  <advance width="600"/>
  <unicode hex="011C"/>
  <outline>
    <contour>
      <point x="688" y="0" type="line"/>
      <point x="689" y="0" type="line"/>
      <point x="902" y="197" type="line"/>
      <point x="902" y="274" type="line"/>
      <point x="689" y="467" type="line"/>
      <point x="688" y="467" type="line"/>
    </contour>
  </outline>
</glyph>
<glyph name="Gbreve.color6" format="2">
  <advance width="600"/>
  <unicode hex="011E"/>
  <outline>
    <contour>
      <point x="257" y="860" type="line"/>
      <point x="436" y="860" type="line"/>
      <point x="399" y="900" type="line"/>
      <point x="223" y="900" type="line"/>
      <point x="223" y="898" type="line"/>
    </contour>
  </outline>
</glyph>
<glyph name="Gdotaccent.color5" format="2">
  <advance width="600"/>
  <unicode hex="0120"/>
  <outline>
    <contour>
      <point x="395" y="768" type="line"/>
      <point x="571" y="768" type="line"/>
      <point x="571" y="900" type="line"/>
      <point x="395" y="900" type="line"/>
    </contour>
  </outline>
</glyph>
<glyph name="gdotaccent.color5" format="2">
  <advance width="600"/>
  <unicode hex="0121"/>
  <outline>
    <contour>
      <point x="365" y="640" type="line"/>
      <point x="579" y="640" type="line"/>
      <point x="579" y="800" type="line"/>
      <point x="365" y="800" type="line"/>
    </contour>
  </outline>
</glyph>
<glyph name="gdotaccent" format="2">
  <advance width="830"/>
  <unicode hex="0121"/>
  <anchor x="467" y="750" name="top"/>
  <outline>
    <contour>
      <point x="249" y="326" type="line"/>
      <point x="744" y="326" type="line"/>
      <point x="830" y="529" type="line"/>
      <point x="830" y="530" type="line"/>
      <point x="249" y="530" type="line"/>
    </contour>
    <contour>
      <point x="137" y="-206" type="line"/>
      <point x="530" y="-206" type="line"/>
      <point x="530" y="-26" type="line"/>
      <point x="35" y="-26" type="line"/>
      <point x="35" y="-27" type="line"/>
    </contour>
    <contour>
      <point x="137" y="0" type="line"/>
      <point x="530" y="0" type="line"/>
      <point x="530" y="204" type="line"/>
      <point x="35" y="204" type="line"/>
      <point x="35" y="203" type="line"/>
    </contour>
    <contour>
      <point x="35" y="204" type="line"/>
      <point x="249" y="204" type="line"/>
      <point x="249" y="530" type="line"/>
      <point x="248" y="530" type="line"/>
      <point x="35" y="423" type="line"/>
    </contour>
    <contour>
      <point x="530" y="-206" type="line"/>
      <point x="531" y="-206" type="line"/>
      <point x="744" y="-104" type="line"/>
      <point x="744" y="326" type="line"/>
      <point x="530" y="326" type="line"/>
    </contour>
    <contour>
      <point x="365" y="640" type="line"/>
      <point x="579" y="640" type="line"/>
      <point x="579" y="800" type="line"/>
      <point x="365" y="800" type="line"/>
    </contour>
  </outline>
</glyph>
<glyph name="gcommaaccent.color5" format="2">
  <advance width="600"/>
  <unicode hex="0123"/>
  <outline>
    <contour>
      <point x="406" y="570" type="line"/>
      <point x="538" y="570" type="line"/>
      <point x="538" y="820" type="line"/>
      <point x="537" y="820" type="line"/>
      <point x="406" y="718" type="line"/>
    </contour>
  </outline>
</glyph>
<glyph name="gcommaaccent" format="2">
  <advance width="830"/>
  <unicode hex="0123"/>
  <anchor x="472" y="530" name="top"/>
  <outline>
    <contour>
      <point x="249" y="326" type="line"/>
      <point x="744" y="326" type="line"/>
      <point x="830" y="529" type="line"/>
      <point x="830" y="530" type="line"/>
      <point x="249" y="530" type="line"/>
    </contour>
    <contour>
      <point x="137" y="-206" type="line"/>
      <point x="530" y="-206" type="line"/>
      <point x="530" y="-26" type="line"/>
      <point x="35" y="-26" type="line"/>
      <point x="35" y="-27" type="line"/>
    </contour>
    <contour>
      <point x="137" y="0" type="line"/>
      <point x="530" y="0" type="line"/>
      <point x="530" y="204" type="line"/>
      <point x="35" y="204" type="line"/>
      <point x="35" y="203" type="line"/>
    </contour>
    <contour>
      <point x="35" y="204" type="line"/>
      <point x="249" y="204" type="line"/>
      <point x="249" y="530" type="line"/>
      <point x="248" y="530" type="line"/>
      <point x="35" y="423" type="line"/>
    </contour>
    <contour>
      <point x="530" y="-206" type="line"/>
      <point x="531" y="-206" type="line"/>
      <point x="744" y="-104" type="line"/>
      <point x="744" y="326" type="line"/>
      <point x="530" y="326" type="line"/>
    </contour>
    <contour>
      <point x="406" y="570" type="line"/>
      <point x="538" y="570" type="line"/>
      <point x="538" y="820" type="line"/>
      <point x="537" y="820" type="line"/>
      <point x="406" y="718" type="line"/>
    </contour>
  </outline>
</glyph>
<glyph name="Hcircumflex" format="2">
  <advance width="847"/>
  <unicode hex="0124"/>
  <anchor x="426" y="730" name="top"/>
  <outline>
    <contour>
      <point x="598" y="0" type="line"/>
      <point x="812" y="0" type="line"/>
      <point x="812" y="730" type="line"/>
      <point x="598" y="730" type="line"/>
    </contour>
    <contour>
      <point x="35" y="0" type="line"/>
      <point x="249" y="0" type="line"/>
      <point x="249" y="730" type="line"/>
      <point x="35" y="730" type="line"/>
    </contour>
    <contour>
      <point x="249" y="263" type="line"/>
      <point x="598" y="263" type="line"/>
      <point x="598" y="467" type="line"/>
      <point x="249" y="467" type="line"/>
    </contour>
    <contour>
      <point x="509" y="760" type="line"/>
      <point x="666" y="760" type="line"/>
      <point x="666" y="761" type="line"/>
      <point x="508" y="900" type="line"/>
      <point x="375" y="867" type="line"/>
    </contour>
    <contour>
      <point x="200" y="760" type="line"/>
      <point x="354" y="760" type="line"/>
      <point x="508" y="900" type="line"/>
      <point x="354" y="900" type="line"/>
      <point x="200" y="761" type="line"/>
    </contour>
  </outline>
</glyph>
<glyph name="hcircumflex.color3" format="2">
  <advance width="600"/>
  <unicode hex="0125"/>
  <outline>
    <contour>
      <point x="591" y="560" type="line"/>
      <point x="748" y="560" type="line"/>
      <point x="748" y="561" type="line"/>
      <point x="590" y="700" type="line"/>
      <point x="457" y="667" type="line"/>
    </contour>
  </outline>
</glyph>
<glyph name="hcircumflex.color4" format="2">
  <advance width="600"/>
  <unicode hex="0125"/>
  <outline>
    <contour>
      <point x="282" y="560" type="line"/>
      <point x="436" y="560" type="line"/>
      <point x="590" y="700" type="line"/>
      <point x="436" y="700" type="line"/>
      <point x="282" y="561" type="line"/>
    </contour>
  </outline>
</glyph>
<glyph name="hbar.color0" format="2">
  <advance width="600"/>
  <unicode hex="0127"/>
  <outline>
    <contour>
      <point x="-6" y="561" type="line"/>
      <point x="588" y="561" type="line"/>
      <point x="588" y="699" type="line"/>
      <point x="-6" y="699" type="line"/>
    </contour>
  </outline>
</glyph>
<glyph name="hbar.color1" format="2">
  <advance width="600"/>
  <unicode hex="0127"/>
  <outline>
    <contour>
      <point x="35" y="0" type="line"/>
      <point x="249" y="0" type="line"/>
      <point x="249" y="794" type="line"/>
      <point x="35" y="794" type="line"/>
    </contour>
  </outline>
</glyph>
<glyph name="Itilde.color5" format="2">
  <advance width="600"/>
  <unicode hex="0128"/>
  <outline>
    <contour>
      <point x="103" y="772" type="line"/>
      <point x="243" y="772" type="line"/>
      <point x="243" y="864" type="line"/>
      <point x="103" y="853" type="line"/>
    </contour>
  </outline>
</glyph>
<glyph name="Itilde.color7" format="2">
  <advance width="600"/>
  <unicode hex="0128"/>
  <outline>
    <contour>
      <point x="422" y="756" type="line"/>
      <point x="433" y="756" type="line"/>
      <point x="571" y="826" type="line"/>
      <point x="571" y="827" type="line"/>
      <point x="252" y="923" type="line"/>
      <point x="241" y="923" type="line"/>
      <point x="103" y="854" type="line"/>
      <point x="103" y="853" type="line"/>
    </contour>
  </outline>
</glyph>
<glyph name="itilde.color0" format="2">
  <advance width="600"/>
  <unicode hex="0129"/>
  <outline>
    <contour>
      <point x="77" y="0" type="line"/>
      <point x="291" y="0" type="line"/>
      <point x="291" y="503" type="line"/>
      <point x="290" y="530" type="line"/>
      <point x="77" y="530" type="line"/>
    </contour>
  </outline>
</glyph>
<glyph name="itilde.color3" format="2">
  <advance width="600"/>
  <unicode hex="0129"/>
  <outline>
    <contour>
      <point x="237" y="610" type="line"/>
      <point x="238" y="610" type="line"/>
      <point x="326" y="649" type="line"/>
      <point x="326" y="650" type="line"/>
      <point x="117" y="772" type="line"/>
      <point x="116" y="772" type="line"/>
      <point x="28" y="733" type="line"/>
      <point x="28" y="732" type="line"/>
    </contour>
  </outline>
</glyph>
<glyph name="imacron.color1" format="2">
  <advance width="600"/>
  <unicode hex="012B"/>
  <outline>
    <contour>
      <point x="51" y="0" type="line"/>
      <point x="265" y="0" type="line"/>
      <point x="265" y="503" type="line"/>
      <point x="264" y="530" type="line"/>
      <point x="51" y="530" type="line"/>
    </contour>
  </outline>
</glyph>
<glyph name="Ibreve.color7" format="2">
  <advance width="600"/>
  <unicode hex="012C"/>
  <outline>
    <contour>
      <point x="369" y="860" type="line"/>
      <point x="548" y="860" type="line"/>
      <point x="582" y="899" type="line"/>
      <point x="582" y="900" type="line"/>
      <point x="406" y="900" type="line"/>
    </contour>
  </outline>
</glyph>
<glyph name="Iogonek" format="2">
  <advance width="657"/>
  <unicode hex="012E"/>
  <anchor x="340" y="0" name="bottom"/>
  <anchor x="341" y="730" name="top"/>
  <outline>
    <contour>
      <point x="246" y="0" type="line"/>
      <point x="298" y="0" type="line"/>
      <point x="460" y="204" type="line"/>
      <point x="460" y="730" type="line"/>
      <point x="408" y="730" type="line"/>
      <point x="246" y="526" type="line"/>
    </contour>
    <contour>
      <point x="25" y="1" type="line"/>
      <point x="245" y="0" type="line"/>
      <point x="246" y="204" type="line"/>
      <point x="25" y="204" type="line"/>
    </contour>
    <contour>
      <point x="298" y="0" type="line"/>
      <point x="632" y="0" type="line"/>
      <point x="632" y="204" type="line"/>
      <point x="460" y="204" type="line"/>
    </contour>
    <contour>
      <point x="25" y="526" type="line"/>
      <point x="246" y="526" type="line"/>
      <point x="408" y="730" type="line"/>
      <point x="25" y="730" type="line"/>
    </contour>
    <contour>
      <point x="460" y="526" type="line"/>
      <point x="631" y="526" type="line"/>
      <point x="631" y="730" type="line"/>
      <point x="460" y="730" type="line"/>
    </contour>
    <contour>
      <point x="203" y="-86" type="line"/>
      <point x="331" y="-86" type="line"/>
      <point x="405" y="-1" type="line"/>
      <point x="405" y="0" type="line"/>
      <point x="280" y="0" type="line"/>
      <point x="203" y="-85" type="line"/>
    </contour>
    <contour>
      <point x="330" y="-230" type="line"/>
      <point x="331" y="-230" type="line"/>
      <point x="331" y="-86" type="line"/>
      <point x="203" y="-86" type="line"/>
      <point x="203" y="-174" type="line"/>
    </contour>
    <contour>
      <point x="331" y="-230" type="line"/>
      <point x="449" y="-230" type="line"/>
      <point x="509" y="-139" type="line"/>
      <point x="509" y="-138" type="line"/>
      <point x="331" y="-138" type="line"/>
    </contour>
  </outline>
</glyph>
<glyph name="iogonek.color1" format="2">
  <advance width="600"/>
  <unicode hex="012F"/>
  <outline>
    <contour>
      <point x="52" y="640" type="line"/>
      <point x="266" y="640" type="line"/>
      <point x="266" y="800" type="line"/>
      <point x="52" y="800" type="line"/>
    </contour>
  </outline>
</glyph>
<glyph name="iogonek.color4" format="2">
  <advance width="600"/>
  <unicode hex="012F"/>
  <outline>
    <contour>
      <point x="142" y="-230" type="line"/>
      <point x="260" y="-230" type="line"/>
      <point x="320" y="-139" type="line"/>
      <point x="320" y="-138" type="line"/>
      <point x="142" y="-138" type="line"/>
    </contour>
  </outline>
</glyph>
<glyph name="idotless" format="2">
  <advance width="304"/>
  <unicode hex="0131"/>
  <anchor x="151" y="0" name="bottom"/>
  <anchor x="159" y="530" name="top"/>
  <outline>
    <contour>
      <point x="45" y="0" type="line"/>
      <point x="259" y="0" type="line"/>
      <point x="259" y="503" type="line"/>
      <point x="258" y="530" type="line"/>
      <point x="45" y="530" type="line"/>
    </contour>
  </outline>
</glyph>
<glyph name="Jcircumflex.color2" format="2">
  <advance width="600"/>
  <unicode hex="0134"/>
  <outline>
    <contour>
      <point x="25" y="526" type="line"/>
      <point x="306" y="526" type="line"/>
      <point x="468" y="730" type="line"/>
      <point x="25" y="730" type="line"/>
    </contour>
  </outline>
</glyph>
<glyph name="Kcommaaccent.color2" format="2">
  <advance width="600"/>
  <unicode hex="0136"/>
  <outline>
    <contour>
      <point x="249" y="243" type="line"/>
      <point x="548" y="243" type="line"/>
      <point x="548" y="447" type="line"/>
      <point x="249" y="447" type="line"/>
    </contour>
  </outline>
</glyph>
<glyph name="Kcommaaccent" format="2">
  <advance width="871"/>
  <unicode hex="0136"/>
  <anchor x="415" y="0" name="bottom"/>
  <outline>
    <contour>
      <point x="600" y="0" type="line"/>
      <point x="871" y="0" type="line"/>
      <point x="871" y="1" type="line"/>
      <point x="598" y="373" type="line"/>
      <point x="424" y="250" type="line"/>
    </contour>
    <contour>
      <point x="35" y="0" type="line"/>
      <point x="249" y="0" type="line"/>
      <point x="249" y="730" type="line"/>
      <point x="35" y="730" type="line"/>
    </contour>
    <contour>
      <point x="249" y="243" type="line"/>
      <point x="548" y="243" type="line"/>
      <point x="548" y="447" type="line"/>
      <point x="249" y="447" type="line"/>
    </contour>
    <contour>
      <point x="548" y="243" type="line"/>
      <point x="549" y="243" type="line"/>
      <point x="762" y="420" type="line"/>
      <point x="762" y="730" type="line"/>
      <point x="548" y="730" type="line"/>
    </contour>
    <contour>
      <point x="480" y="-280" type="line"/>
      <point x="481" y="-280" type="line"/>
      <point x="481" y="-30" type="line"/>
      <point x="349" y="-30" type="line"/>
      <point x="349" y="-178" type="line"/>
    </contour>
  </outline>
</glyph>
<glyph name="kcommaaccent.color1" format="2">
  <advance width="600"/>
  <unicode hex="0137"/>
  <outline>
    <contour>
      <point x="558" y="0" type="line"/>
      <point x="772" y="0" type="line"/>
      <point x="772" y="193" type="line"/>
      <point x="558" y="193" type="line"/>
    </contour>
  </outline>
</glyph>
<glyph name="kcommaaccent.color4" format="2">
  <advance width="600"/>
  <unicode hex="0137"/>
  <outline>
    <contour>
      <point x="460" y="-280" type="line"/>
      <point x="461" y="-280" type="line"/>
      <point x="461" y="-30" type="line"/>
      <point x="329" y="-30" type="line"/>
      <point x="329" y="-178" type="line"/>
    </contour>
  </outline>
</glyph>
<glyph name="Lacute.color0" format="2">
  <advance width="600"/>
  <unicode hex="0139"/>
  <outline>
    <contour>
      <point x="237" y="0" type="line"/>
      <point x="728" y="0" type="line"/>
      <point x="728" y="204" type="line"/>
      <point x="35" y="204" type="line"/>
      <point x="35" y="203" type="line"/>
    </contour>
  </outline>
</glyph>
<glyph name="Lcommaaccent.color2" format="2">
  <advance width="600"/>
  <unicode hex="013B"/>
  <outline>
    <contour>
      <point x="470" y="-280" type="line"/>
      <point x="471" y="-280" type="line"/>
      <point x="471" y="-30" type="line"/>
      <point x="339" y="-30" type="line"/>
      <point x="339" y="-178" type="line"/>
    </contour>
  </outline>
</glyph>
<glyph name="lcommaaccent.color1" format="2">
  <advance width="600"/>
  <unicode hex="013C"/>
  <outline>
    <contour>
      <point x="249" y="0" type="line"/>
      <point x="461" y="0" type="line"/>
      <point x="461" y="204" type="line"/>
      <point x="249" y="204" type="line"/>
    </contour>
  </outline>
</glyph>
<glyph name="Lcaron" format="2">
  <advance width="753"/>
  <unicode hex="013D"/>
  <anchor x="405" y="0" name="bottom"/>
  <anchor x="173" y="730" name="top"/>
  <outline>
    <contour>
      <point x="237" y="0" type="line"/>
      <point x="728" y="0" type="line"/>
      <point x="728" y="204" type="line"/>
      <point x="35" y="204" type="line"/>
      <point x="35" y="203" type="line"/>
    </contour>
    <contour>
      <point x="35" y="204" type="line"/>
      <point x="249" y="204" type="line"/>
      <point x="249" y="730" type="line"/>
      <point x="35" y="730" type="line"/>
    </contour>
    <contour>
      <point x="345" y="564" type="line"/>
      <point x="441" y="564" type="line"/>
      <point x="556" y="793" type="line"/>
      <point x="556" y="794" type="line"/>
      <point x="380" y="794" type="line"/>
    </contour>
  </outline>
</glyph>
<glyph name="Ldot" format="2">
  <advance width="753"/>
  <unicode hex="013F"/>
  <anchor x="405" y="0" name="bottom"/>
  <anchor x="173" y="730" name="top"/>
  <outline>
    <contour>
      <point x="237" y="0" type="line"/>
      <point x="728" y="0" type="line"/>
      <point x="728" y="204" type="line"/>
      <point x="35" y="204" type="line"/>
      <point x="35" y="203" type="line"/>
    </contour>
    <contour>
      <point x="35" y="204" type="line"/>
      <point x="249" y="204" type="line"/>
      <point x="249" y="730" type="line"/>
      <point x="35" y="730" type="line"/>
    </contour>
    <contour>
      <point x="409" y="380" type="line"/>
      <point x="641" y="380" type="line"/>
      <point x="641" y="584" type="line"/>
      <point x="409" y="584" type="line"/>
    </contour>
  </outline>
</glyph>
<glyph name="Lslash.color2" format="2">
  <advance width="600"/>
  <unicode hex="0141"/>
  <outline>
    <contour>
      <point x="140" y="204" type="line"/>
      <point x="354" y="204" type="line"/>
      <point x="354" y="730" type="line"/>
      <point x="140" y="730" type="line"/>
    </contour>
  </outline>
</glyph>
<glyph name="Lslash" format="2">
  <advance width="888"/>
  <unicode hex="0141"/>
  <anchor x="510" y="0" name="bottom"/>
  <anchor x="278" y="730" name="top"/>
  <outline>
    <contour>
      <point x="75" y="273" type="line"/>
      <point x="572" y="548" type="line"/>
      <point x="572" y="549" type="line"/>
      <point x="496" y="689" type="line"/>
      <point x="0" y="413" type="line"/>
      <point x="0" y="412" type="line"/>
    </contour>
    <contour>
      <point x="342" y="0" type="line"/>
      <point x="833" y="0" type="line"/>
      <point x="833" y="204" type="line"/>
      <point x="140" y="204" type="line"/>
      <point x="140" y="203" type="line"/>
    </contour>
    <contour>
      <point x="140" y="204" type="line"/>
      <point x="354" y="204" type="line"/>
      <point x="354" y="730" type="line"/>
      <point x="140" y="730" type="line"/>
    </contour>
  </outline>
</glyph>
<glyph name="lslash.color2" format="2">
  <advance width="600"/>
  <unicode hex="0142"/>
  <outline>
    <contour>
      <point x="356" y="0" type="line"/>
      <point x="568" y="0" type="line"/>
      <point x="568" y="204" type="line"/>
      <point x="356" y="204" type="line"/>
    </contour>
  </outline>
</glyph>
<glyph name="nacute.color2" format="2">
  <advance width="600"/>
  <unicode hex="0144"/>
  <outline>
    <contour>
      <point x="249" y="326" type="line"/>
      <point x="772" y="326" type="line"/>
      <point x="772" y="327" type="line"/>
      <point x="665" y="530" type="line"/>
      <point x="249" y="530" type="line"/>
    </contour>
  </outline>
</glyph>
<glyph name="nacute.color3" format="2">
  <advance width="600"/>
  <unicode hex="0144"/>
  <outline>
    <contour>
      <point x="373" y="590" type="line"/>
      <point x="479" y="590" type="line"/>
      <point x="584" y="819" type="line"/>
      <point x="584" y="820" type="line"/>
      <point x="408" y="820" type="line"/>
    </contour>
  </outline>
</glyph>
<glyph name="Ncommaaccent.color1" format="2">
  <advance width="600"/>
  <unicode hex="0145"/>
  <outline>
    <contour>
      <point x="35" y="0" type="line"/>
      <point x="249" y="0" type="line"/>
      <point x="249" y="381" type="line"/>
      <point x="35" y="591" type="line"/>
    </contour>
  </outline>
</glyph>
<glyph name="Ncommaaccent" format="2">
  <advance width="817"/>
  <unicode hex="0145"/>
  <anchor x="433" y="0" name="bottom"/>
  <anchor x="416" y="730" name="top"/>
  <outline>
    <contour>
      <point x="782" y="152" type="line"/>
      <point x="782" y="730" type="line"/>
      <point x="568" y="730" type="line"/>
      <point x="568" y="362" type="line"/>
    </contour>
    <contour>
      <point x="35" y="0" type="line"/>
      <point x="249" y="0" type="line"/>
      <point x="249" y="381" type="line"/>
      <point x="35" y="591" type="line"/>
    </contour>
    <contour>
      <point x="642" y="-6" type="line"/>
      <point x="643" y="-6" type="line"/>
      <point x="782" y="151" type="line"/>
      <point x="782" y="152" type="line"/>
      <point x="188" y="736" type="line"/>
      <point x="187" y="736" type="line"/>
      <point x="35" y="592" type="line"/>
      <point x="35" y="591" type="line"/>
    </contour>
    <contour>
      <point x="498" y="-280" type="line"/>
      <point x="499" y="-280" type="line"/>
      <point x="499" y="-30" type="line"/>
      <point x="367" y="-30" type="line"/>
      <point x="367" y="-178" type="line"/>
    </contour>
  </outline>
</glyph>
<glyph name="ncommaaccent.color1" format="2">
  <advance width="600"/>
  <unicode hex="0146"/>
  <outline>
    <contour>
      <point x="558" y="-6" type="line"/>
      <point x="559" y="-6" type="line"/>
      <point x="772" y="41" type="line"/>
      <point x="772" y="326" type="line"/>
      <point x="558" y="326" type="line"/>
    </contour>
  </outline>
</glyph>
<glyph name="Ncaron" format="2">
  <advance width="817"/>
  <unicode hex="0147"/>
  <anchor x="433" y="0" name="bottom"/>
  <anchor x="416" y="730" name="top"/>
  <outline>
    <contour>
      <point x="782" y="152" type="line"/>
      <point x="782" y="730" type="line"/>
      <point x="568" y="730" type="line"/>
      <point x="568" y="362" type="line"/>
    </contour>
    <contour>
      <point x="35" y="0" type="line"/>
      <point x="249" y="0" type="line"/>
      <point x="249" y="381" type="line"/>
      <point x="35" y="591" type="line"/>
    </contour>
    <contour>
      <point x="642" y="-6" type="line"/>
      <point x="643" y="-6" type="line"/>
      <point x="782" y="151" type="line"/>
      <point x="782" y="152" type="line"/>
      <point x="188" y="736" type="line"/>
      <point x="187" y="736" type="line"/>
      <point x="35" y="592" type="line"/>
      <point x="35" y="591" type="line"/>
    </contour>
    <contour>
      <point x="342" y="760" type="line"/>
      <point x="475" y="793" type="line"/>
      <point x="341" y="900" type="line"/>
      <point x="184" y="900" type="line"/>
      <point x="184" y="899" type="line"/>
    </contour>
    <contour>
      <point x="342" y="760" type="line"/>
      <point x="496" y="760" type="line"/>
      <point x="650" y="899" type="line"/>
      <point x="650" y="900" type="line"/>
      <point x="496" y="900" type="line"/>
    </contour>
  </outline>
</glyph>
<glyph name="Eng.color3" format="2">
  <advance width="600"/>
  <unicode hex="014A"/>
  <outline>
    <contour>
      <point x="469" y="-268" type="line"/>
      <point x="650" y="-268" type="line"/>
      <point x="852" y="-25" type="line"/>
      <point x="852" y="-24" type="line"/>
      <point x="469" y="-24" type="line"/>
    </contour>
  </outline>
</glyph>
<glyph name="eng.color1" format="2">
  <advance width="600"/>
  <unicode hex="014B"/>
  <outline>
    <contour>
      <point x="386" y="-206" type="line"/>
      <point x="558" y="-206" type="line"/>
      <point x="558" y="-2" type="line"/>
      <point x="386" y="-2" type="line"/>
    </contour>
  </outline>
</glyph>
<glyph name="Omacron.color0" format="2">
  <advance width="600"/>
  <unicode hex="014C"/>
  <outline>
    <contour>
      <point x="239" y="526" type="line"/>
      <point x="802" y="526" type="line"/>
      <point x="802" y="527" type="line"/>
      <point x="640" y="730" type="line"/>
      <point x="239" y="730" type="line"/>
    </contour>
  </outline>
</glyph>
<glyph name="Obreve.color5" format="2">
  <advance width="600"/>
  <unicode hex="014E"/>
  <outline>
    <contour>
      <point x="210" y="860" type="line"/>
      <point x="389" y="860" type="line"/>
      <point x="352" y="900" type="line"/>
      <point x="176" y="900" type="line"/>
      <point x="176" y="898" type="line"/>
    </contour>
  </outline>
</glyph>
<glyph name="Obreve" format="2">
  <advance width="827"/>
  <unicode hex="014E"/>
  <anchor x="412" y="0" name="bottom"/>
  <anchor x="680" y="730" name="horn"/>
  <anchor x="436" y="730" name="top"/>
  <outline>
    <contour>
      <point x="239" y="526" type="line"/>
      <point x="802" y="526" type="line"/>
      <point x="802" y="527" type="line"/>
      <point x="640" y="730" type="line"/>
      <point x="239" y="730" type="line"/>
    </contour>
    <contour>
      <point x="227" y="0" type="line"/>
      <point x="588" y="0" type="line"/>
      <point x="588" y="204" type="line"/>
      <point x="25" y="204" type="line"/>
      <point x="25" y="203" type="line"/>
    </contour>
    <contour>
      <point x="25" y="204" type="line"/>
      <point x="239" y="204" type="line"/>
      <point x="239" y="730" type="line"/>
      <point x="238" y="730" type="line"/>
      <point x="25" y="523" type="line"/>
    </contour>
    <contour>
      <point x="588" y="0" type="line"/>
      <point x="589" y="0" type="line"/>
      <point x="802" y="207" type="line"/>
      <point x="802" y="526" type="line"/>
      <point x="588" y="526" type="line"/>
    </contour>
    <contour>
      <point x="304" y="760" type="line"/>
      <point x="549" y="760" type="line"/>
      <point x="643" y="860" type="line"/>
      <point x="210" y="860" type="line"/>
    </contour>
    <contour>
      <point x="210" y="860" type="line"/>
      <point x="389" y="860" type="line"/>
      <point x="352" y="900" type="line"/>
      <point x="176" y="900" type="line"/>
      <point x="176" y="898" type="line"/>
    </contour>
    <contour>
      <point x="464" y="860" type="line"/>
      <point x="643" y="860" type="line"/>
      <point x="677" y="899" type="line"/>
      <point x="677" y="900" type="line"/>
      <point x="501" y="900" type="line"/>
    </contour>
  </outline>
</glyph>
<glyph name="obreve" format="2">
  <advance width="837"/>
  <unicode hex="014F"/>
  <anchor x="422" y="0" name="bottom"/>
  <anchor x="665" y="530" name="horn"/>
  <anchor x="442" y="530" name="top"/>
  <outline>
    <contour>
      <point x="239" y="326" type="line"/>
      <point x="812" y="326" type="line"/>
      <point x="812" y="327" type="line"/>
      <point x="705" y="530" type="line"/>
      <point x="239" y="530" type="line"/>
    </contour>
    <contour>
      <point x="132" y="0" type="line"/>
      <point x="598" y="0" type="line"/>
      <point x="598" y="204" type="line"/>
      <point x="25" y="204" type="line"/>
      <point x="25" y="203" type="line"/>
    </contour>
    <contour>
      <point x="25" y="204" type="line"/>
      <point x="239" y="204" type="line"/>
      <point x="239" y="530" type="line"/>
      <point x="238" y="530" type="line"/>
      <point x="25" y="423" type="line"/>
    </contour>
    <contour>
      <point x="598" y="0" type="line"/>
      <point x="599" y="0" type="line"/>
      <point x="812" y="107" type="line"/>
      <point x="812" y="326" type="line"/>
      <point x="598" y="326" type="line"/>
    </contour>
    <contour>
      <point x="480" y="720" type="line"/>
      <point x="616" y="720" type="line"/>
      <point x="653" y="779" type="line"/>
      <point x="653" y="780" type="line"/>
      <point x="517" y="780" type="line"/>
    </contour>
    <contour>
      <point x="219" y="720" type="line"/>
      <point x="365" y="720" type="line"/>
      <point x="328" y="780" type="line"/>
      <point x="182" y="780" type="line"/>
      <point x="182" y="778" type="line"/>
    </contour>
    <contour>
      <point x="290" y="598" type="line"/>
      <point x="545" y="598" type="line"/>
      <point x="616" y="720" type="line"/>
      <point x="219" y="720" type="line"/>
    </contour>
  </outline>
</glyph>
<glyph name="Ohungarumlaut" format="2">
  <advance width="827"/>
  <unicode hex="0150"/>
  <anchor x="412" y="0" name="bottom"/>
  <anchor x="680" y="730" name="horn"/>
  <anchor x="436" y="730" name="top"/>
  <outline>
    <contour>
      <point x="239" y="526" type="line"/>
      <point x="802" y="526" type="line"/>
      <point x="802" y="527" type="line"/>
      <point x="640" y="730" type="line"/>
      <point x="239" y="730" type="line"/>
    </contour>
    <contour>
      <point x="227" y="0" type="line"/>
      <point x="588" y="0" type="line"/>
      <point x="588" y="204" type="line"/>
      <point x="25" y="204" type="line"/>
      <point x="25" y="203" type="line"/>
    </contour>
    <contour>
      <point x="25" y="204" type="line"/>
      <point x="239" y="204" type="line"/>
      <point x="239" y="730" type="line"/>
      <point x="238" y="730" type="line"/>
      <point x="25" y="523" type="line"/>
    </contour>
    <contour>
      <point x="588" y="0" type="line"/>
      <point x="589" y="0" type="line"/>
      <point x="802" y="207" type="line"/>
      <point x="802" y="526" type="line"/>
      <point x="588" y="526" type="line"/>
    </contour>
    <contour>
      <point x="453" y="760" type="line"/>
      <point x="579" y="760" type="line"/>
      <point x="694" y="899" type="line"/>
      <point x="694" y="900" type="line"/>
      <point x="488" y="900" type="line"/>
    </contour>
    <contour>
      <point x="223" y="760" type="line"/>
      <point x="349" y="760" type="line"/>
      <point x="464" y="899" type="line"/>
      <point x="464" y="900" type="line"/>
      <point x="258" y="900" type="line"/>
    </contour>
  </outline>
</glyph>
<glyph name="ohungarumlaut.color5" format="2">
  <advance width="600"/>
  <unicode hex="0151"/>
  <outline>
    <contour>
      <point x="279" y="590" type="line"/>
      <point x="375" y="590" type="line"/>
      <point x="490" y="819" type="line"/>
      <point x="490" y="820" type="line"/>
      <point x="314" y="820" type="line"/>
    </contour>
  </outline>
</glyph>
<glyph name="OE.color5" format="2">
  <advance width="600"/>
  <unicode hex="0152"/>
  <outline>
    <contour>
      <point x="802" y="263" type="line"/>
      <point x="1172" y="263" type="line"/>
      <point x="1172" y="467" type="line"/>
      <point x="802" y="467" type="line"/>
    </contour>
  </outline>
</glyph>
<glyph name="OE" format="2">
  <advance width="1351"/>
  <unicode hex="0152"/>
  <outline>
    <contour>
      <point x="227" y="0" type="line"/>
      <point x="588" y="0" type="line"/>
      <point x="802" y="204" type="line"/>
      <point x="25" y="204" type="line"/>
      <point x="25" y="203" type="line"/>
    </contour>
    <contour>
      <point x="25" y="204" type="line"/>
      <point x="239" y="204" type="line"/>
      <point x="239" y="730" type="line"/>
      <point x="238" y="730" type="line"/>
      <point x="25" y="523" type="line"/>
    </contour>
    <contour>
      <point x="790" y="0" type="line"/>
      <point x="1275" y="0" type="line"/>
      <point x="1275" y="204" type="line"/>
      <point x="588" y="204" type="line"/>
      <point x="588" y="203" type="line"/>
    </contour>
    <contour>
      <point x="588" y="204" type="line"/>
      <point x="802" y="204" type="line"/>
      <point x="802" y="526" type="line"/>
      <point x="588" y="526" type="line"/>
    </contour>
    <contour>
      <point x="239" y="526" type="line"/>
      <point x="802" y="526" type="line"/>
      <point x="802" y="527" type="line"/>
      <point x="640" y="730" type="line"/>
      <point x="239" y="730" type="line"/>
    </contour>
    <contour>
      <point x="802" y="263" type="line"/>
      <point x="1172" y="263" type="line"/>
      <point x="1172" y="467" type="line"/>
      <point x="802" y="467" type="line"/>
    </contour>
    <contour>
      <point x="802" y="526" type="line"/>
      <point x="1124" y="526" type="line"/>
      <point x="1326" y="729" type="line"/>
      <point x="1326" y="730" type="line"/>
      <point x="640" y="730" type="line"/>
    </contour>
  </outline>
</glyph>
<glyph name="oe.color0" format="2">
  <advance width="600"/>
  <unicode hex="0153"/>
  <outline>
    <contour>
      <point x="782" y="0" type="line"/>
      <point x="1228" y="0" type="line"/>
      <point x="1335" y="199" type="line"/>
      <point x="1335" y="200" type="line"/>
      <point x="568" y="200" type="line"/>
      <point x="568" y="199" type="line"/>
    </contour>
  </outline>
</glyph>
<glyph name="oe.color2" format="2">
  <advance width="600"/>
  <unicode hex="0153"/>
  <outline>
    <contour>
      <point x="25" y="204" type="line"/>
      <point x="239" y="204" type="line"/>
      <point x="239" y="530" type="line"/>
      <point x="238" y="530" type="line"/>
      <point x="25" y="423" type="line"/>
    </contour>
  </outline>
</glyph>
<glyph name="oe" format="2">
  <advance width="1360"/>
  <unicode hex="0153"/>
  <outline>
    <contour>
      <point x="782" y="0" type="line"/>
      <point x="1228" y="0" type="line"/>
      <point x="1335" y="199" type="line"/>
      <point x="1335" y="200" type="line"/>
      <point x="568" y="200" type="line"/>
      <point x="568" y="199" type="line"/>
    </contour>
    <contour>
      <point x="132" y="0" type="line"/>
      <point x="568" y="0" type="line"/>
      <point x="568" y="204" type="line"/>
      <point x="25" y="204" type="line"/>
      <point x="25" y="203" type="line"/>
    </contour>
    <contour>
      <point x="25" y="204" type="line"/>
      <point x="239" y="204" type="line"/>
      <point x="239" y="530" type="line"/>
      <point x="238" y="530" type="line"/>
      <point x="25" y="423" type="line"/>
    </contour>
    <contour>
      <point x="568" y="351" type="line"/>
      <point x="1335" y="351" type="line"/>
      <point x="1335" y="352" type="line"/>
      <point x="1228" y="530" type="line"/>
      <point x="782" y="530" type="line"/>
    </contour>
    <contour>
      <point x="568" y="0" type="line"/>
      <point x="569" y="0" type="line"/>
      <point x="782" y="200" type="line"/>
      <point x="782" y="326" type="line"/>
      <point x="568" y="326" type="line"/>
    </contour>
    <contour>
      <point x="239" y="326" type="line"/>
      <point x="782" y="326" type="line"/>
      <point x="782" y="327" type="line"/>
      <point x="675" y="530" type="line"/>
      <point x="239" y="530" type="line"/>
    </contour>
    <contour>
      <point x="782" y="220" type="line"/>
      <point x="1121" y="221" type="line"/>
      <point x="1121" y="327" type="line"/>
      <point x="782" y="327" type="line"/>
    </contour>
    <contour>
      <point x="1121" y="221" type="line"/>
      <point x="1122" y="221" type="line"/>
      <point x="1335" y="328" type="line"/>
      <point x="1335" y="351" type="line"/>
      <point x="1121" y="351" type="line"/>
    </contour>
  </outline>
</glyph>
<glyph name="racute.color1" format="2">
  <advance width="600"/>
  <unicode hex="0155"/>
  <outline>
    <contour>
      <point x="249" y="326" type="line"/>
      <point x="602" y="326" type="line"/>
      <point x="602" y="327" type="line"/>
      <point x="495" y="530" type="line"/>
      <point x="249" y="530" type="line"/>
    </contour>
  </outline>
</glyph>
<glyph name="Rcommaaccent.color4" format="2">
  <advance width="600"/>
  <unicode hex="0156"/>
  <outline>
    <contour>
      <point x="249" y="526" type="line"/>
      <point x="802" y="526" type="line"/>
      <point x="802" y="527" type="line"/>
      <point x="600" y="730" type="line"/>
      <point x="249" y="730" type="line"/>
    </contour>
  </outline>
</glyph>
<glyph name="Rcommaaccent.color5" format="2">
  <advance width="600"/>
  <unicode hex="0156"/>
  <outline>
    <contour>
      <point x="479" y="-280" type="line"/>
      <point x="480" y="-280" type="line"/>
      <point x="480" y="-30" type="line"/>
      <point x="348" y="-30" type="line"/>
      <point x="348" y="-178" type="line"/>
    </contour>
  </outline>
</glyph>
<glyph name="Rcommaaccent" format="2">
  <advance width="846"/>
  <unicode hex="0156"/>
  <anchor x="414" y="0" name="bottom"/>
  <anchor x="416" y="730" name="top"/>
  <outline>
    <contour>
      <point x="35" y="0" type="line"/>
      <point x="249" y="0" type="line"/>
      <point x="249" y="730" type="line"/>
      <point x="35" y="730" type="line"/>
    </contour>
    <contour>
      <point x="550" y="0" type="line"/>
      <point x="821" y="0" type="line"/>
      <point x="821" y="1" type="line"/>
      <point x="619" y="329" type="line"/>
      <point x="439" y="211" type="line"/>
    </contour>
    <contour>
      <point x="249" y="193" type="line"/>
      <point x="588" y="193" type="line"/>
      <point x="588" y="397" type="line"/>
      <point x="249" y="397" type="line"/>
    </contour>
    <contour>
      <point x="588" y="193" type="line"/>
      <point x="589" y="193" type="line"/>
      <point x="802" y="370" type="line"/>
      <point x="802" y="526" type="line"/>
      <point x="588" y="526" type="line"/>
    </contour>
    <contour>
      <point x="249" y="526" type="line"/>
      <point x="802" y="526" type="line"/>
      <point x="802" y="527" type="line"/>
      <point x="600" y="730" type="line"/>
      <point x="249" y="730" type="line"/>
    </contour>
    <contour>
      <point x="479" y="-280" type="line"/>
      <point x="480" y="-280" type="line"/>
      <point x="480" y="-30" type="line"/>
      <point x="348" y="-30" type="line"/>
      <point x="348" y="-178" type="line"/>
    </contour>
  </outline>
</glyph>
<glyph name="rcommaaccent" format="2">
  <advance width="606"/>
  <unicode hex="0157"/>
  <anchor x="135" y="0" name="bottom"/>
  <anchor x="342" y="530" name="top"/>
  <outline>
    <contour>
      <point x="35" y="0" type="line"/>
      <point x="249" y="0" type="line"/>
      <point x="249" y="530" type="line"/>
      <point x="248" y="530" type="line"/>
      <point x="35" y="423" type="line"/>
    </contour>
    <contour>
      <point x="249" y="326" type="line"/>
      <point x="602" y="326" type="line"/>
      <point x="602" y="327" type="line"/>
      <point x="495" y="530" type="line"/>
      <point x="249" y="530" type="line"/>
    </contour>
    <contour>
      <point x="200" y="-280" type="line"/>
      <point x="201" y="-280" type="line"/>
      <point x="201" y="-30" type="line"/>
      <point x="69" y="-30" type="line"/>
      <point x="69" y="-178" type="line"/>
    </contour>
  </outline>
</glyph>
<glyph name="Rcaron.color2" format="2">
  <advance width="600"/>
  <unicode hex="0158"/>
  <outline>
    <contour>
      <point x="249" y="193" type="line"/>
      <point x="588" y="193" type="line"/>
      <point x="588" y="397" type="line"/>
      <point x="249" y="397" type="line"/>
    </contour>
  </outline>
</glyph>
<glyph name="Sacute" format="2">
  <advance width="817"/>
  <unicode hex="015A"/>
  <anchor x="412" y="0" name="bottom"/>
  <anchor x="416" y="730" name="top"/>
  <outline>
    <contour>
      <point x="239" y="526" type="line"/>
      <point x="792" y="526" type="line"/>
      <point x="792" y="527" type="line"/>
      <point x="590" y="730" type="line"/>
      <point x="239" y="730" type="line"/>
    </contour>
    <contour>
      <point x="227" y="0" type="line"/>
      <point x="578" y="0" type="line"/>
      <point x="578" y="204" type="line"/>
      <point x="25" y="204" type="line"/>
      <point x="25" y="203" type="line"/>
    </contour>
    <contour>
      <point x="227" y="262" type="line"/>
      <point x="578" y="262" type="line"/>
      <point x="578" y="466" type="line"/>
      <point x="25" y="466" type="line"/>
      <point x="25" y="465" type="line"/>
    </contour>
    <contour>
      <point x="25" y="466" type="line"/>
      <point x="239" y="466" type="line"/>
      <point x="239" y="730" type="line"/>
      <point x="238" y="730" type="line"/>
      <point x="25" y="523" type="line"/>
    </contour>
    <contour>
      <point x="578" y="0" type="line"/>
      <point x="579" y="0" type="line"/>
      <point x="792" y="193" type="line"/>
      <point x="792" y="269" type="line"/>
      <point x="579" y="466" type="line"/>
      <point x="578" y="466" type="line"/>
    </contour>
    <contour>
      <point x="332" y="760" type="line"/>
      <point x="458" y="760" type="line"/>
      <point x="573" y="899" type="line"/>
      <point x="573" y="900" type="line"/>
      <point x="367" y="900" type="line"/>
    </contour>
  </outline>
</glyph>
<glyph name="Scircumflex.color0" format="2">
  <advance width="600"/>
  <unicode hex="015C"/>
  <outline>
    <contour>
      <point x="239" y="526" type="line"/>
      <point x="792" y="526" type="line"/>
      <point x="792" y="527" type="line"/>
      <point x="590" y="730" type="line"/>
      <point x="239" y="730" type="line"/>
    </contour>
  </outline>
</glyph>
<glyph name="scircumflex.color4" format="2">
  <advance width="600"/>
  <unicode hex="015D"/>
  <outline>
    <contour>
      <point x="118" y="592" type="line"/>
      <point x="272" y="592" type="line"/>
      <point x="406" y="770" type="line"/>
      <point x="262" y="770" type="line"/>
      <point x="118" y="593" type="line"/>
    </contour>
  </outline>
</glyph>
<glyph name="scircumflex" format="2">
  <advance width="674"/>
  <unicode hex="015D"/>
  <anchor x="342" y="0" name="bottom"/>
  <anchor x="346" y="750" name="top"/>
  <outline>
    <contour>
      <point x="148" y="351" type="line"/>
      <point x="642" y="351" type="line"/>
      <point x="642" y="352" type="line"/>
      <point x="535" y="530" type="line"/>
      <point x="122" y="530" type="line"/>
    </contour>
    <contour>
      <point x="384" y="149" type="line"/>
      <point x="652" y="179" type="line"/>
      <point x="652" y="180" type="line"/>
      <point x="122" y="530" type="line"/>
      <point x="32" y="365" type="line"/>
    </contour>
    <contour>
      <point x="129" y="0" type="line"/>
      <point x="545" y="0" type="line"/>
      <point x="652" y="179" type="line"/>
      <point x="22" y="179" type="line"/>
      <point x="22" y="178" type="line"/>
    </contour>
    <contour>
      <point x="387" y="592" type="line"/>
      <point x="544" y="592" type="line"/>
      <point x="544" y="593" type="line"/>
      <point x="406" y="770" type="line"/>
      <point x="283" y="739" type="line"/>
    </contour>
    <contour>
      <point x="118" y="592" type="line"/>
      <point x="272" y="592" type="line"/>
      <point x="406" y="770" type="line"/>
      <point x="262" y="770" type="line"/>
      <point x="118" y="593" type="line"/>
    </contour>
  </outline>
</glyph>
<glyph name="Scedilla.color5" format="2">
  <advance width="600"/>
  <unicode hex="015E"/>
  <outline>
    <contour>
      <point x="275" y="-126" type="line"/>
      <point x="391" y="-126" type="line"/>
      <point x="457" y="-1" type="line"/>
      <point x="457" y="0" type="line"/>
      <point x="352" y="0" type="line"/>
      <point x="275" y="-125" type="line"/>
    </contour>
  </outline>
</glyph>
<glyph name="Scedilla.color7" format="2">
  <advance width="600"/>
  <unicode hex="015E"/>
  <outline>
    <contour>
      <point x="433" y="-260" type="line"/>
      <point x="434" y="-260" type="line"/>
      <point x="541" y="-204" type="line"/>
      <point x="541" y="-126" type="line"/>
      <point x="433" y="-126" type="line"/>
    </contour>
  </outline>
</glyph>
<glyph name="scedilla" format="2">
  <advance width="674"/>
  <unicode hex="015F"/>
  <anchor x="342" y="0" name="bottom"/>
  <anchor x="344" y="530" name="top"/>
  <outline>
    <contour>
      <point x="148" y="351" type="line"/>
      <point x="642" y="351" type="line"/>
      <point x="642" y="352" type="line"/>
      <point x="535" y="530" type="line"/>
      <point x="122" y="530" type="line"/>
    </contour>
    <contour>
      <point x="384" y="149" type="line"/>
      <point x="652" y="179" type="line"/>
      <point x="652" y="180" type="line"/>
      <point x="122" y="530" type="line"/>
      <point x="32" y="365" type="line"/>
    </contour>
    <contour>
      <point x="129" y="0" type="line"/>
      <point x="545" y="0" type="line"/>
      <point x="652" y="179" type="line"/>
      <point x="22" y="179" type="line"/>
      <point x="22" y="178" type="line"/>
    </contour>
    <contour>
      <point x="205" y="-126" type="line"/>
      <point x="321" y="-126" type="line"/>
      <point x="387" y="-1" type="line"/>
      <point x="387" y="0" type="line"/>
      <point x="282" y="0" type="line"/>
      <point x="205" y="-125" type="line"/>
    </contour>
    <contour>
      <point x="205" y="-260" type="line"/>
      <point x="363" y="-260" type="line"/>
      <point x="363" y="-168" type="line"/>
      <point x="145" y="-168" type="line"/>
      <point x="145" y="-169" type="line"/>
    </contour>
    <contour>
      <point x="363" y="-260" type="line"/>
      <point x="364" y="-260" type="line"/>
      <point x="471" y="-204" type="line"/>
      <point x="471" y="-126" type="line"/>
      <point x="363" y="-126" type="line"/>
    </contour>
    <contour>
      <point x="321" y="-126" type="line"/>
      <point x="471" y="-126" type="line"/>
      <point x="471" y="-125" type="line"/>
      <point x="401" y="-32" type="line"/>
      <point x="367" y="-32" type="line"/>
    </contour>
  </outline>
</glyph>
<glyph name="scaron.color4" format="2">
  <advance width="600"/>
  <unicode hex="0161"/>
  <outline>
    <contour>
      <point x="253" y="582" type="line"/>
      <point x="397" y="582" type="line"/>
      <point x="541" y="749" type="line"/>
      <point x="541" y="750" type="line"/>
      <point x="387" y="750" type="line"/>
    </contour>
  </outline>
</glyph>
<glyph name="Tcedilla.color2" format="2">
  <advance width="600"/>
  <unicode hex="0162"/>
  <outline>
    <contour>
      <point x="520" y="526" type="line"/>
      <point x="821" y="526" type="line"/>
      <point x="821" y="730" type="line"/>
      <point x="520" y="730" type="line"/>
    </contour>
  </outline>
</glyph>
<glyph name="Tcedilla.color3" format="2">
  <advance width="600"/>
  <unicode hex="0162"/>
  <outline>
    <contour>
      <point x="276" y="-126" type="line"/>
      <point x="392" y="-126" type="line"/>
      <point x="458" y="-1" type="line"/>
      <point x="458" y="0" type="line"/>
      <point x="353" y="0" type="line"/>
      <point x="276" y="-125" type="line"/>
    </contour>
  </outline>
</glyph>
<glyph name="Tcedilla.color5" format="2">
  <advance width="600"/>
  <unicode hex="0162"/>
  <outline>
    <contour>
      <point x="434" y="-260" type="line"/>
      <point x="435" y="-260" type="line"/>
      <point x="542" y="-204" type="line"/>
      <point x="542" y="-126" type="line"/>
      <point x="434" y="-126" type="line"/>
    </contour>
  </outline>
</glyph>
<glyph name="tcedilla.color4" format="2">
  <advance width="600"/>
  <unicode hex="0163"/>
  <outline>
    <contour>
      <point x="199" y="-126" type="line"/>
      <point x="315" y="-126" type="line"/>
      <point x="381" y="-1" type="line"/>
      <point x="381" y="0" type="line"/>
      <point x="276" y="0" type="line"/>
      <point x="199" y="-125" type="line"/>
    </contour>
  </outline>
</glyph>
<glyph name="tcedilla.color7" format="2">
  <advance width="600"/>
  <unicode hex="0163"/>
  <outline>
    <contour>
      <point x="315" y="-126" type="line"/>
      <point x="465" y="-126" type="line"/>
      <point x="465" y="-125" type="line"/>
      <point x="395" y="-32" type="line"/>
      <point x="361" y="-32" type="line"/>
    </contour>
  </outline>
</glyph>
<glyph name="Tbar.color3" format="2">
  <advance width="600"/>
  <unicode hex="0166"/>
  <outline>
    <contour>
      <point x="520" y="526" type="line"/>
      <point x="821" y="526" type="line"/>
      <point x="821" y="730" type="line"/>
      <point x="520" y="730" type="line"/>
    </contour>
  </outline>
</glyph>
<glyph name="Tbar" format="2">
  <advance width="886"/>
  <unicode hex="0166"/>
  <anchor x="433" y="365" name="_stroke"/>
  <anchor x="413" y="0" name="bottom"/>
  <anchor x="433" y="365" name="stroke"/>
  <anchor x="436" y="730" name="top"/>
  <outline>
    <contour>
      <point x="136" y="273" type="line"/>
      <point x="730" y="273" type="line"/>
      <point x="730" y="457" type="line"/>
      <point x="136" y="457" type="line"/>
    </contour>
    <contour>
      <point x="305" y="0" type="line"/>
      <point x="520" y="0" type="line"/>
      <point x="520" y="730" type="line"/>
      <point x="468" y="730" type="line"/>
      <point x="306" y="526" type="line"/>
    </contour>
    <contour>
      <point x="25" y="526" type="line"/>
      <point x="306" y="526" type="line"/>
      <point x="468" y="730" type="line"/>
      <point x="25" y="730" type="line"/>
    </contour>
    <contour>
      <point x="520" y="526" type="line"/>
      <point x="821" y="526" type="line"/>
      <point x="821" y="730" type="line"/>
      <point x="520" y="730" type="line"/>
    </contour>
  </outline>
</glyph>
<glyph name="tbar.color2" format="2">
  <advance width="600"/>
  <unicode hex="0167"/>
  <outline>
    <contour>
      <point x="39" y="326" type="line"/>
      <point x="496" y="326" type="line"/>
      <point x="496" y="530" type="line"/>
      <point x="252" y="530" type="line"/>
    </contour>
  </outline>
</glyph>
<glyph name="tbar.color3" format="2">
  <advance width="600"/>
  <unicode hex="0167"/>
  <outline>
    <contour>
      <point x="251" y="0" type="line"/>
      <point x="252" y="0" type="line"/>
      <point x="252" y="326" type="line"/>
      <point x="38" y="326" type="line"/>
      <point x="38" y="107" type="line"/>
    </contour>
  </outline>
</glyph>
<glyph name="tbar.color4" format="2">
  <advance width="600"/>
  <unicode hex="0167"/>
  <outline>
    <contour>
      <point x="252" y="0" type="line"/>
      <point x="582" y="0" type="line"/>
      <point x="605" y="203" type="line"/>
      <point x="605" y="204" type="line"/>
      <point x="252" y="204" type="line"/>
    </contour>
  </outline>
</glyph>
<glyph name="Utilde.color4" format="2">
  <advance width="600"/>
  <unicode hex="0168"/>
  <outline>
    <contour>
      <point x="527" y="806" type="line"/>
      <point x="666" y="827" type="line"/>
      <point x="666" y="915" type="line"/>
      <point x="527" y="915" type="line"/>
    </contour>
  </outline>
</glyph>
<glyph name="utilde.color3" format="2">
  <advance width="600"/>
  <unicode hex="0169"/>
  <outline>
    <contour>
      <point x="214" y="611" type="line"/>
      <point x="334" y="611" type="line"/>
      <point x="334" y="713" type="line"/>
      <point x="214" y="732" type="line"/>
    </contour>
  </outline>
</glyph>
<glyph name="Ubreve" format="2">
  <advance width="837"/>
  <unicode hex="016C"/>
  <anchor x="442" y="0" name="bottom"/>
  <anchor x="811" y="730" name="horn"/>
  <anchor x="436" y="730" name="top"/>
  <outline>
    <contour>
      <point x="588" y="0" type="line"/>
      <point x="589" y="0" type="line"/>
      <point x="802" y="207" type="line"/>
      <point x="802" y="730" type="line"/>
      <point x="588" y="730" type="line"/>
    </contour>
    <contour>
      <point x="237" y="0" type="line"/>
      <point x="588" y="0" type="line"/>
      <point x="588" y="204" type="line"/>
      <point x="35" y="204" type="line"/>
      <point x="35" y="203" type="line"/>
    </contour>
    <contour>
      <point x="35" y="204" type="line"/>
      <point x="249" y="204" type="line"/>
      <point x="249" y="730" type="line"/>
      <point x="35" y="730" type="line"/>
    </contour>
    <contour>
      <point x="304" y="760" type="line"/>
      <point x="549" y="760" type="line"/>
      <point x="643" y="860" type="line"/>
      <point x="210" y="860" type="line"/>
    </contour>
    <contour>
      <point x="210" y="860" type="line"/>
      <point x="389" y="860" type="line"/>
      <point x="352" y="900" type="line"/>
      <point x="176" y="900" type="line"/>
      <point x="176" y="898" type="line"/>
    </contour>
    <contour>
      <point x="464" y="860" type="line"/>
      <point x="643" y="860" type="line"/>
      <point x="677" y="899" type="line"/>
      <point x="677" y="900" type="line"/>
      <point x="501" y="900" type="line"/>
    </contour>
  </outline>
</glyph>
<glyph name="Uring.color4" format="2">
  <advance width="600"/>
  <unicode hex="016E"/>
  <outline>
    <contour>
      <point x="328" y="729" type="line"/>
      <point x="498" y="730" type="line"/>
      <point x="498" y="812" type="line"/>
      <point x="268" y="812" type="line"/>
      <point x="268" y="811" type="line"/>
    </contour>
  </outline>
</glyph>
<glyph name="Uring.color5" format="2">
  <advance width="600"/>
  <unicode hex="016E"/>
  <outline>
    <contour>
      <point x="268" y="812" type="line"/>
      <point x="364" y="812" type="line"/>
      <point x="364" y="948" type="line"/>
      <point x="363" y="948" type="line"/>
      <point x="268" y="886" type="line"/>
    </contour>
  </outline>
</glyph>
<glyph name="uring.color3" format="2">
  <advance width="600"/>
  <unicode hex="016F"/>
  <outline>
    <contour>
      <point x="350" y="736" type="line"/>
      <point x="580" y="736" type="line"/>
      <point x="580" y="737" type="line"/>
      <point x="520" y="820" type="line"/>
      <point x="350" y="820" type="line"/>
    </contour>
  </outline>
</glyph>
<glyph name="uring.color6" format="2">
  <advance width="600"/>
  <unicode hex="016F"/>
  <outline>
    <contour>
      <point x="484" y="602" type="line"/>
      <point x="485" y="602" type="line"/>
      <point x="580" y="658" type="line"/>
      <point x="580" y="736" type="line"/>
      <point x="484" y="736" type="line"/>
    </contour>
  </outline>
</glyph>
<glyph name="Uhungarumlaut.color4" format="2">
  <advance width="600"/>
  <unicode hex="0170"/>
  <outline>
    <contour>
      <point x="223" y="760" type="line"/>
      <point x="349" y="760" type="line"/>
      <point x="464" y="899" type="line"/>
      <point x="464" y="900" type="line"/>
      <point x="258" y="900" type="line"/>
    </contour>
  </outline>
</glyph>
<glyph name="Uhungarumlaut" format="2">
  <advance width="837"/>
  <unicode hex="0170"/>
  <anchor x="442" y="0" name="bottom"/>
  <anchor x="811" y="730" name="horn"/>
  <anchor x="436" y="730" name="top"/>
  <outline>
    <contour>
      <point x="588" y="0" type="line"/>
      <point x="589" y="0" type="line"/>
      <point x="802" y="207" type="line"/>
      <point x="802" y="730" type="line"/>
      <point x="588" y="730" type="line"/>
    </contour>
    <contour>
      <point x="237" y="0" type="line"/>
      <point x="588" y="0" type="line"/>
      <point x="588" y="204" type="line"/>
      <point x="35" y="204" type="line"/>
      <point x="35" y="203" type="line"/>
    </contour>
    <contour>
      <point x="35" y="204" type="line"/>
      <point x="249" y="204" type="line"/>
      <point x="249" y="730" type="line"/>
      <point x="35" y="730" type="line"/>
    </contour>
    <contour>
      <point x="453" y="760" type="line"/>
      <point x="579" y="760" type="line"/>
      <point x="694" y="899" type="line"/>
      <point x="694" y="900" type="line"/>
      <point x="488" y="900" type="line"/>
    </contour>
    <contour>
      <point x="223" y="760" type="line"/>
      <point x="349" y="760" type="line"/>
      <point x="464" y="899" type="line"/>
      <point x="464" y="900" type="line"/>
      <point x="258" y="900" type="line"/>
    </contour>
  </outline>
</glyph>
<glyph name="uhungarumlaut.color3" format="2">
  <advance width="600"/>
  <unicode hex="0171"/>
  <outline>
    <contour>
      <point x="459" y="590" type="line"/>
      <point x="555" y="590" type="line"/>
      <point x="670" y="819" type="line"/>
      <point x="670" y="820" type="line"/>
      <point x="494" y="820" type="line"/>
    </contour>
  </outline>
</glyph>
<glyph name="Wcircumflex.color3" format="2">
  <advance width="600"/>
  <unicode hex="0174"/>
  <outline>
    <contour>
      <point x="737" y="0" type="line"/>
      <point x="915" y="0" type="line"/>
      <point x="1168" y="729" type="line"/>
      <point x="1168" y="730" type="line"/>
      <point x="924" y="730" type="line"/>
    </contour>
  </outline>
</glyph>
<glyph name="Wcircumflex.color5" format="2">
  <advance width="600"/>
  <unicode hex="0174"/>
  <outline>
    <contour>
      <point x="357" y="760" type="line"/>
      <point x="511" y="760" type="line"/>
      <point x="665" y="900" type="line"/>
      <point x="511" y="900" type="line"/>
      <point x="357" y="761" type="line"/>
    </contour>
  </outline>
</glyph>
<glyph name="Ycircumflex.color4" format="2">
  <advance width="600"/>
  <unicode hex="0176"/>
  <outline>
    <contour>
      <point x="174" y="760" type="line"/>
      <point x="328" y="760" type="line"/>
      <point x="482" y="900" type="line"/>
      <point x="328" y="900" type="line"/>
      <point x="174" y="761" type="line"/>
    </contour>
  </outline>
</glyph>
<glyph name="ycircumflex.color0" format="2">
  <advance width="600"/>
  <unicode hex="0177"/>
  <outline>
    <contour>
      <point x="530" y="-206" type="line"/>
      <point x="531" y="-206" type="line"/>
      <point x="744" y="-104" type="line"/>
      <point x="744" y="530" type="line"/>
      <point x="530" y="530" type="line"/>
    </contour>
  </outline>
</glyph>
<glyph name="ycircumflex" format="2">
  <advance width="779"/>
  <unicode hex="0177"/>
  <anchor x="402" y="-200" name="bottom"/>
  <anchor x="424" y="750" name="top"/>
  <outline>
    <contour>
      <point x="530" y="-206" type="line"/>
      <point x="531" y="-206" type="line"/>
      <point x="744" y="-104" type="line"/>
      <point x="744" y="530" type="line"/>
      <point x="530" y="530" type="line"/>
    </contour>
    <contour>
      <point x="137" y="-206" type="line"/>
      <point x="530" y="-206" type="line"/>
      <point x="530" y="-26" type="line"/>
      <point x="35" y="-26" type="line"/>
      <point x="35" y="-27" type="line"/>
    </contour>
    <contour>
      <point x="142" y="0" type="line"/>
      <point x="529" y="0" type="line"/>
      <point x="529" y="204" type="line"/>
      <point x="35" y="204" type="line"/>
      <point x="35" y="203" type="line"/>
    </contour>
    <contour>
      <point x="35" y="204" type="line"/>
      <point x="249" y="204" type="line"/>
      <point x="249" y="536" type="line"/>
      <point x="248" y="536" type="line"/>
      <point x="35" y="489" type="line"/>
    </contour>
    <contour>
      <point x="465" y="592" type="line"/>
      <point x="622" y="592" type="line"/>
      <point x="622" y="593" type="line"/>
      <point x="484" y="770" type="line"/>
      <point x="361" y="739" type="line"/>
    </contour>
    <contour>
      <point x="196" y="592" type="line"/>
      <point x="350" y="592" type="line"/>
      <point x="484" y="770" type="line"/>
      <point x="340" y="770" type="line"/>
      <point x="196" y="593" type="line"/>
    </contour>
  </outline>
</glyph>
<glyph name="Ydieresis.color3" format="2">
  <advance width="600"/>
  <unicode hex="0178"/>
  <outline>
    <contour>
      <point x="452" y="788" type="line"/>
      <point x="598" y="788" type="line"/>
      <point x="598" y="900" type="line"/>
      <point x="452" y="900" type="line"/>
    </contour>
  </outline>
</glyph>
<glyph name="Ydieresis" format="2">
  <advance width="780"/>
  <unicode hex="0178"/>
  <anchor x="397" y="0" name="bottom"/>
  <anchor x="400" y="900" name="top"/>
  <outline>
    <contour>
      <point x="293" y="285" type="line"/>
      <point x="294" y="285" type="line"/>
      <point x="396" y="467" type="line"/>
      <point x="234" y="730" type="line"/>
      <point x="0" y="730" type="line"/>
      <point x="0" y="729" type="line"/>
    </contour>
    <contour>
      <point x="293" y="0" type="line"/>
      <point x="507" y="0" type="line"/>
      <point x="507" y="285" type="line"/>
      <point x="293" y="285" type="line"/>
    </contour>
    <contour>
      <point x="294" y="285" type="line"/>
      <point x="507" y="285" type="line"/>
      <point x="780" y="729" type="line"/>
      <point x="780" y="730" type="line"/>
      <point x="546" y="730" type="line"/>
    </contour>
    <contour>
      <point x="452" y="788" type="line"/>
      <point x="598" y="788" type="line"/>
      <point x="598" y="900" type="line"/>
      <point x="452" y="900" type="line"/>
    </contour>
    <contour>
      <point x="204" y="788" type="line"/>
      <point x="350" y="788" type="line"/>
      <point x="350" y="900" type="line"/>
      <point x="204" y="900" type="line"/>
    </contour>
  </outline>
</glyph>
<glyph name="Zacute.color1" format="2">
  <advance width="600"/>
  <unicode hex="0179"/>
  <outline>
    <contour>
      <point x="244" y="109" type="line"/>
      <point x="744" y="565" type="line"/>
      <point x="604" y="730" type="line"/>
      <point x="41" y="205" type="line"/>
      <point x="41" y="204" type="line"/>
    </contour>
  </outline>
</glyph>
<glyph name="Zacute" format="2">
  <advance width="785"/>
  <unicode hex="0179"/>
  <anchor x="386" y="730" name="top"/>
  <outline>
    <contour>
      <point x="35" y="526" type="line"/>
      <point x="578" y="526" type="line"/>
      <point x="604" y="730" type="line"/>
      <point x="35" y="730" type="line"/>
    </contour>
    <contour>
      <point x="244" y="109" type="line"/>
      <point x="744" y="565" type="line"/>
      <point x="604" y="730" type="line"/>
      <point x="41" y="205" type="line"/>
      <point x="41" y="204" type="line"/>
    </contour>
    <contour>
      <point x="41" y="0" type="line"/>
      <point x="750" y="0" type="line"/>
      <point x="750" y="204" type="line"/>
      <point x="41" y="204" type="line"/>
    </contour>
    <contour>
      <point x="302" y="760" type="line"/>
      <point x="428" y="760" type="line"/>
      <point x="543" y="899" type="line"/>
      <point x="543" y="900" type="line"/>
      <point x="337" y="900" type="line"/>
    </contour>
  </outline>
</glyph>
<glyph name="Zdotaccent.color0" format="2">
  <advance width="600"/>
  <unicode hex="017B"/>
  <outline>
    <contour>
      <point x="35" y="526" type="line"/>
      <point x="578" y="526" type="line"/>
      <point x="604" y="730" type="line"/>
      <point x="35" y="730" type="line"/>
    </contour>
  </outline>
</glyph>
<glyph name="Zdotaccent.color2" format="2">
  <advance width="600"/>
  <unicode hex="017B"/>
  <outline>
    <contour>
      <point x="41" y="0" type="line"/>
      <point x="750" y="0" type="line"/>
      <point x="750" y="204" type="line"/>
      <point x="41" y="204" type="line"/>
    </contour>
  </outline>
</glyph>
<glyph name="zdotaccent.color2" format="2">
  <advance width="600"/>
  <unicode hex="017C"/>
  <outline>
    <contour>
      <point x="137" y="0" type="line"/>
      <point x="757" y="0" type="line"/>
      <point x="757" y="179" type="line"/>
      <point x="30" y="179" type="line"/>
    </contour>
  </outline>
</glyph>
<glyph name="zdotaccent.color3" format="2">
  <advance width="600"/>
  <unicode hex="017C"/>
  <outline>
    <contour>
      <point x="310" y="640" type="line"/>
      <point x="524" y="640" type="line"/>
      <point x="524" y="800" type="line"/>
      <point x="310" y="800" type="line"/>
    </contour>
  </outline>
</glyph>
<glyph name="Zcaron.color0" format="2">
  <advance width="600"/>
  <unicode hex="017D"/>
  <outline>
    <contour>
      <point x="35" y="526" type="line"/>
      <point x="578" y="526" type="line"/>
      <point x="604" y="730" type="line"/>
      <point x="35" y="730" type="line"/>
    </contour>
  </outline>
</glyph>
<glyph name="zcaron" format="2">
  <advance width="793"/>
  <unicode hex="017E"/>
  <anchor x="417" y="530" name="top"/>
  <outline>
    <contour>
      <point x="36" y="351" type="line"/>
      <point x="647" y="351" type="line"/>
      <point x="673" y="530" type="line"/>
      <point x="143" y="530" type="line"/>
      <point x="36" y="352" type="line"/>
    </contour>
    <contour>
      <point x="273" y="149" type="line"/>
      <point x="763" y="365" type="line"/>
      <point x="673" y="530" type="line"/>
      <point x="30" y="180" type="line"/>
      <point x="30" y="179" type="line"/>
    </contour>
    <contour>
      <point x="137" y="0" type="line"/>
      <point x="757" y="0" type="line"/>
      <point x="757" y="179" type="line"/>
      <point x="30" y="179" type="line"/>
    </contour>
    <contour>
      <point x="326" y="582" type="line"/>
      <point x="449" y="613" type="line"/>
      <point x="345" y="750" type="line"/>
      <point x="188" y="750" type="line"/>
      <point x="188" y="749" type="line"/>
    </contour>
    <contour>
      <point x="326" y="582" type="line"/>
      <point x="470" y="582" type="line"/>
      <point x="614" y="749" type="line"/>
      <point x="614" y="750" type="line"/>
      <point x="460" y="750" type="line"/>
    </contour>
  </outline>
</glyph>
<glyph name="Schwa.color0" format="2">
  <advance width="600"/>
  <unicode hex="018F"/>
  <outline>
    <contour>
      <point x="25" y="526" type="line"/>
      <point x="711" y="526" type="line"/>
      <point x="711" y="527" type="line"/>
      <point x="509" y="730" type="line"/>
      <point x="227" y="730" type="line"/>
      <point x="25" y="527" type="line"/>
    </contour>
  </outline>
</glyph>
<glyph name="Schwa.color4" format="2">
  <advance width="600"/>
  <unicode hex="018F"/>
  <outline>
    <contour>
      <point x="497" y="0" type="line"/>
      <point x="498" y="0" type="line"/>
      <point x="711" y="202" type="line"/>
      <point x="711" y="526" type="line"/>
      <point x="497" y="526" type="line"/>
    </contour>
  </outline>
</glyph>
<glyph name="florin.color1" format="2">
  <advance width="600"/>
  <unicode hex="0192"/>
  <outline>
    <contour>
      <point x="-19" y="-206" type="line"/>
      <point x="219" y="-206" type="line"/>
      <point x="219" y="-2" type="line"/>
      <point x="-20" y="-2" type="line"/>
    </contour>
  </outline>
</glyph>
<glyph name="Ohorn.color4" format="2">
  <advance width="600"/>
  <unicode hex="01A0"/>
  <outline>
    <contour>
      <point x="751" y="576" type="line"/>
      <point x="752" y="576" type="line"/>
      <point x="925" y="683" type="line"/>
      <point x="925" y="854" type="line"/>
      <point x="751" y="854" type="line"/>
    </contour>
  </outline>
</glyph>
<glyph name="ohorn.color2" format="2">
  <advance width="600"/>
  <unicode hex="01A1"/>
  <outline>
    <contour>
      <point x="25" y="204" type="line"/>
      <point x="239" y="204" type="line"/>
      <point x="239" y="530" type="line"/>
      <point x="238" y="530" type="line"/>
      <point x="25" y="423" type="line"/>
    </contour>
  </outline>
</glyph>
<glyph name="Dzcaron.color4" format="2">
  <advance width="600"/>
  <unicode hex="01C5"/>
  <outline>
    <contour>
      <point x="903" y="351" type="line"/>
      <point x="1514" y="351" type="line"/>
      <point x="1540" y="530" type="line"/>
      <point x="1010" y="530" type="line"/>
      <point x="903" y="352" type="line"/>
    </contour>
  </outline>
</glyph>
<glyph name="Dzcaron.color8" format="2">
  <advance width="600"/>
  <unicode hex="01C5"/>
  <outline>
    <contour>
      <point x="1193" y="582" type="line"/>
      <point x="1337" y="582" type="line"/>
      <point x="1481" y="749" type="line"/>
      <point x="1481" y="750" type="line"/>
      <point x="1327" y="750" type="line"/>
    </contour>
  </outline>
</glyph>
<glyph name="Dzcaron" format="2">
  <advance width="1660"/>
  <unicode hex="01C5"/>
  <anchor x="166" y="361" name="stroke"/>
  <anchor x="1284" y="530" name="top"/>
  <outline>
    <contour>
      <point x="249" y="526" type="line"/>
      <point x="842" y="526" type="line"/>
      <point x="842" y="527" type="line"/>
      <point x="680" y="730" type="line"/>
      <point x="249" y="730" type="line"/>
    </contour>
    <contour>
      <point x="35" y="-4" type="line"/>
      <point x="628" y="-4" type="line"/>
      <point x="628" y="200" type="line"/>
      <point x="35" y="200" type="line"/>
    </contour>
    <contour>
      <point x="35" y="200" type="line"/>
      <point x="249" y="200" type="line"/>
      <point x="249" y="730" type="line"/>
      <point x="35" y="730" type="line"/>
    </contour>
    <contour>
      <point x="628" y="-4" type="line"/>
      <point x="629" y="-4" type="line"/>
      <point x="842" y="193" type="line"/>
      <point x="842" y="526" type="line"/>
      <point x="628" y="526" type="line"/>
    </contour>
    <contour>
      <point x="903" y="351" type="line"/>
      <point x="1514" y="351" type="line"/>
      <point x="1540" y="530" type="line"/>
      <point x="1010" y="530" type="line"/>
      <point x="903" y="352" type="line"/>
    </contour>
    <contour>
      <point x="1140" y="149" type="line"/>
      <point x="1630" y="365" type="line"/>
      <point x="1540" y="530" type="line"/>
      <point x="897" y="180" type="line"/>
      <point x="897" y="179" type="line"/>
    </contour>
    <contour>
      <point x="1004" y="0" type="line"/>
      <point x="1624" y="0" type="line"/>
      <point x="1624" y="179" type="line"/>
      <point x="897" y="179" type="line"/>
    </contour>
    <contour>
      <point x="1193" y="582" type="line"/>
      <point x="1316" y="613" type="line"/>
      <point x="1212" y="750" type="line"/>
      <point x="1055" y="750" type="line"/>
      <point x="1055" y="749" type="line"/>
    </contour>
    <contour>
      <point x="1193" y="582" type="line"/>
      <point x="1337" y="582" type="line"/>
      <point x="1481" y="749" type="line"/>
      <point x="1481" y="750" type="line"/>
      <point x="1327" y="750" type="line"/>
    </contour>
  </outline>
</glyph>
<glyph name="dzcaron.color9" format="2">
  <advance width="600"/>
  <unicode hex="01C6"/>
  <outline>
    <contour>
      <point x="1134" y="582" type="line"/>
      <point x="1278" y="582" type="line"/>
      <point x="1422" y="749" type="line"/>
      <point x="1422" y="750" type="line"/>
      <point x="1268" y="750" type="line"/>
    </contour>
  </outline>
</glyph>
<glyph name="LJ.color5" format="2">
  <advance width="600"/>
  <unicode hex="01C7"/>
  <outline>
    <contour>
      <point x="1273" y="526" type="line"/>
      <point x="1384" y="526" type="line"/>
      <point x="1384" y="730" type="line"/>
      <point x="1273" y="730" type="line"/>
    </contour>
  </outline>
</glyph>
<glyph name="Lj.color3" format="2">
  <advance width="600"/>
  <unicode hex="01C8"/>
  <outline>
    <contour>
      <point x="603" y="-206" type="line"/>
      <point x="815" y="-206" type="line"/>
      <point x="815" y="-26" type="line"/>
      <point x="603" y="-26" type="line"/>
    </contour>
  </outline>
</glyph>
<glyph name="Lj.color4" format="2">
  <advance width="600"/>
  <unicode hex="01C8"/>
  <outline>
    <contour>
      <point x="815" y="469" type="line"/>
      <point x="816" y="469" type="line"/>
      <point x="1009" y="576" type="line"/>
      <point x="1009" y="682" type="line"/>
      <point x="815" y="682" type="line"/>
    </contour>
  </outline>
</glyph>
<glyph name="lj.color1" format="2">
  <advance width="600"/>
  <unicode hex="01C9"/>
  <outline>
    <contour>
      <point x="249" y="0" type="line"/>
      <point x="461" y="0" type="line"/>
      <point x="461" y="204" type="line"/>
      <point x="249" y="204" type="line"/>
    </contour>
  </outline>
</glyph>
<glyph name="lj" format="2">
  <advance width="777"/>
  <unicode hex="01C9"/>
  <anchor x="259" y="0" name="bottom"/>
  <anchor x="149" y="794" name="top"/>
  <outline>
    <contour>
      <point x="248" y="0" type="line"/>
      <point x="249" y="0" type="line"/>
      <point x="249" y="794" type="line"/>
      <point x="35" y="794" type="line"/>
      <point x="35" y="107" type="line"/>
    </contour>
    <contour>
      <point x="249" y="0" type="line"/>
      <point x="461" y="0" type="line"/>
      <point x="461" y="204" type="line"/>
      <point x="249" y="204" type="line"/>
    </contour>
    <contour>
      <point x="538" y="-206" type="line"/>
      <point x="539" y="-206" type="line"/>
      <point x="732" y="-99" type="line"/>
      <point x="732" y="503" type="line"/>
      <point x="731" y="503" type="line"/>
      <point x="538" y="393" type="line"/>
    </contour>
    <contour>
      <point x="326" y="-206" type="line"/>
      <point x="538" y="-206" type="line"/>
      <point x="538" y="-26" type="line"/>
      <point x="326" y="-26" type="line"/>
    </contour>
    <contour>
      <point x="538" y="469" type="line"/>
      <point x="539" y="469" type="line"/>
      <point x="732" y="576" type="line"/>
      <point x="732" y="682" type="line"/>
      <point x="538" y="682" type="line"/>
    </contour>
  </outline>
</glyph>
<glyph name="Nj.color2" format="2">
  <advance width="600"/>
  <unicode hex="01CB"/>
  <outline>
    <contour>
      <point x="642" y="-6" type="line"/>
      <point x="643" y="-6" type="line"/>
      <point x="782" y="151" type="line"/>
      <point x="782" y="152" type="line"/>
      <point x="188" y="736" type="line"/>
      <point x="187" y="736" type="line"/>
      <point x="35" y="592" type="line"/>
      <point x="35" y="591" type="line"/>
    </contour>
  </outline>
</glyph>
<glyph name="Nj.color4" format="2">
  <advance width="600"/>
  <unicode hex="01CB"/>
  <outline>
    <contour>
      <point x="667" y="-206" type="line"/>
      <point x="879" y="-206" type="line"/>
      <point x="879" y="-26" type="line"/>
      <point x="667" y="-26" type="line"/>
    </contour>
  </outline>
</glyph>
<glyph name="nj.color3" format="2">
  <advance width="600"/>
  <unicode hex="01CC"/>
  <outline>
    <contour>
      <point x="869" y="-206" type="line"/>
      <point x="870" y="-206" type="line"/>
      <point x="1063" y="-99" type="line"/>
      <point x="1063" y="503" type="line"/>
      <point x="1062" y="503" type="line"/>
      <point x="869" y="393" type="line"/>
    </contour>
  </outline>
</glyph>
<glyph name="nj.color4" format="2">
  <advance width="600"/>
  <unicode hex="01CC"/>
  <outline>
    <contour>
      <point x="657" y="-206" type="line"/>
      <point x="869" y="-206" type="line"/>
      <point x="869" y="-26" type="line"/>
      <point x="657" y="-26" type="line"/>
    </contour>
  </outline>
</glyph>
<glyph name="Gcaron.color5" format="2">
  <advance width="600"/>
  <unicode hex="01E6"/>
  <outline>
    <contour>
      <point x="409" y="760" type="line"/>
      <point x="542" y="793" type="line"/>
      <point x="408" y="900" type="line"/>
      <point x="251" y="900" type="line"/>
      <point x="251" y="899" type="line"/>
    </contour>
  </outline>
</glyph>
<glyph name="Gcaron" format="2">
  <advance width="927"/>
  <unicode hex="01E6"/>
  <anchor x="495" y="0" name="bottom"/>
  <anchor x="483" y="730" name="top"/>
  <outline>
    <contour>
      <point x="239" y="526" type="line"/>
      <point x="902" y="526" type="line"/>
      <point x="902" y="527" type="line"/>
      <point x="700" y="730" type="line"/>
      <point x="239" y="730" type="line"/>
    </contour>
    <contour>
      <point x="227" y="0" type="line"/>
      <point x="688" y="0" type="line"/>
      <point x="688" y="204" type="line"/>
      <point x="25" y="204" type="line"/>
      <point x="25" y="203" type="line"/>
    </contour>
    <contour>
      <point x="25" y="204" type="line"/>
      <point x="239" y="204" type="line"/>
      <point x="239" y="730" type="line"/>
      <point x="238" y="730" type="line"/>
      <point x="25" y="523" type="line"/>
    </contour>
    <contour>
      <point x="298" y="263" type="line"/>
      <point x="688" y="263" type="line"/>
      <point x="688" y="467" type="line"/>
      <point x="298" y="467" type="line"/>
    </contour>
    <contour>
      <point x="688" y="0" type="line"/>
      <point x="689" y="0" type="line"/>
      <point x="902" y="197" type="line"/>
      <point x="902" y="274" type="line"/>
      <point x="689" y="467" type="line"/>
      <point x="688" y="467" type="line"/>
    </contour>
    <contour>
      <point x="409" y="760" type="line"/>
      <point x="542" y="793" type="line"/>
      <point x="408" y="900" type="line"/>
      <point x="251" y="900" type="line"/>
      <point x="251" y="899" type="line"/>
    </contour>
    <contour>
      <point x="409" y="760" type="line"/>
      <point x="563" y="760" type="line"/>
      <point x="717" y="899" type="line"/>
      <point x="717" y="900" type="line"/>
      <point x="563" y="900" type="line"/>
    </contour>
  </outline>
</glyph>
<glyph name="gcaron.color4" format="2">
  <advance width="600"/>
  <unicode hex="01E7"/>
  <outline>
    <contour>
      <point x="530" y="-206" type="line"/>
      <point x="531" y="-206" type="line"/>
      <point x="744" y="-104" type="line"/>
      <point x="744" y="326" type="line"/>
      <point x="530" y="326" type="line"/>
    </contour>
  </outline>
</glyph>
<glyph name="gcaron" format="2">
  <advance width="830"/>
  <unicode hex="01E7"/>
  <anchor x="472" y="530" name="top"/>
  <outline>
    <contour>
      <point x="249" y="326" type="line"/>
      <point x="744" y="326" type="line"/>
      <point x="830" y="529" type="line"/>
      <point x="830" y="530" type="line"/>
      <point x="249" y="530" type="line"/>
    </contour>
    <contour>
      <point x="137" y="-206" type="line"/>
      <point x="530" y="-206" type="line"/>
      <point x="530" y="-26" type="line"/>
      <point x="35" y="-26" type="line"/>
      <point x="35" y="-27" type="line"/>
    </contour>
    <contour>
      <point x="137" y="0" type="line"/>
      <point x="530" y="0" type="line"/>
      <point x="530" y="204" type="line"/>
      <point x="35" y="204" type="line"/>
      <point x="35" y="203" type="line"/>
    </contour>
    <contour>
      <point x="35" y="204" type="line"/>
      <point x="249" y="204" type="line"/>
      <point x="249" y="530" type="line"/>
      <point x="248" y="530" type="line"/>
      <point x="35" y="423" type="line"/>
    </contour>
    <contour>
      <point x="530" y="-206" type="line"/>
      <point x="531" y="-206" type="line"/>
      <point x="744" y="-104" type="line"/>
      <point x="744" y="326" type="line"/>
      <point x="530" y="326" type="line"/>
    </contour>
    <contour>
      <point x="381" y="582" type="line"/>
      <point x="504" y="613" type="line"/>
      <point x="400" y="750" type="line"/>
      <point x="243" y="750" type="line"/>
      <point x="243" y="749" type="line"/>
    </contour>
    <contour>
      <point x="381" y="582" type="line"/>
      <point x="525" y="582" type="line"/>
      <point x="669" y="749" type="line"/>
      <point x="669" y="750" type="line"/>
      <point x="515" y="750" type="line"/>
    </contour>
  </outline>
</glyph>
<glyph name="Oogonek.color6" format="2">
  <advance width="600"/>
  <unicode hex="01EA"/>
  <outline>
    <contour>
      <point x="403" y="-230" type="line"/>
      <point x="521" y="-230" type="line"/>
      <point x="581" y="-139" type="line"/>
      <point x="581" y="-138" type="line"/>
      <point x="403" y="-138" type="line"/>
    </contour>
  </outline>
</glyph>
<glyph name="Oogonek" format="2">
  <advance width="827"/>
  <unicode hex="01EA"/>
  <anchor x="412" y="0" name="bottom"/>
  <anchor x="680" y="730" name="horn"/>
  <anchor x="436" y="730" name="top"/>
  <outline>
    <contour>
      <point x="239" y="526" type="line"/>
      <point x="802" y="526" type="line"/>
      <point x="802" y="527" type="line"/>
      <point x="640" y="730" type="line"/>
      <point x="239" y="730" type="line"/>
    </contour>
    <contour>
      <point x="227" y="0" type="line"/>
      <point x="588" y="0" type="line"/>
      <point x="588" y="204" type="line"/>
      <point x="25" y="204" type="line"/>
      <point x="25" y="203" type="line"/>
    </contour>
    <contour>
      <point x="25" y="204" type="line"/>
      <point x="239" y="204" type="line"/>
      <point x="239" y="730" type="line"/>
      <point x="238" y="730" type="line"/>
      <point x="25" y="523" type="line"/>
    </contour>
    <contour>
      <point x="588" y="0" type="line"/>
      <point x="589" y="0" type="line"/>
      <point x="802" y="207" type="line"/>
      <point x="802" y="526" type="line"/>
      <point x="588" y="526" type="line"/>
    </contour>
    <contour>
      <point x="275" y="-86" type="line"/>
      <point x="403" y="-86" type="line"/>
      <point x="477" y="-1" type="line"/>
      <point x="477" y="0" type="line"/>
      <point x="352" y="0" type="line"/>
      <point x="275" y="-85" type="line"/>
    </contour>
    <contour>
      <point x="402" y="-230" type="line"/>
      <point x="403" y="-230" type="line"/>
      <point x="403" y="-86" type="line"/>
      <point x="275" y="-86" type="line"/>
      <point x="275" y="-174" type="line"/>
    </contour>
    <contour>
      <point x="403" y="-230" type="line"/>
      <point x="521" y="-230" type="line"/>
      <point x="581" y="-139" type="line"/>
      <point x="581" y="-138" type="line"/>
      <point x="403" y="-138" type="line"/>
    </contour>
  </outline>
</glyph>
<glyph name="oogonek.color4" format="2">
  <advance width="600"/>
  <unicode hex="01EB"/>
  <outline>
    <contour>
      <point x="285" y="-86" type="line"/>
      <point x="413" y="-86" type="line"/>
      <point x="487" y="-1" type="line"/>
      <point x="487" y="0" type="line"/>
      <point x="362" y="0" type="line"/>
      <point x="285" y="-85" type="line"/>
    </contour>
  </outline>
</glyph>
<glyph name="Aringacute.color5" format="2">
  <advance width="600"/>
  <unicode hex="01FA"/>
  <outline>
    <contour>
      <point x="364" y="751" type="line"/>
      <point x="539" y="751" type="line"/>
      <point x="539" y="818" type="line"/>
      <point x="304" y="818" type="line"/>
      <point x="304" y="817" type="line"/>
    </contour>
  </outline>
</glyph>
<glyph name="AEacute.color2" format="2">
  <advance width="600"/>
  <unicode hex="01FC"/>
  <outline>
    <contour>
      <point x="760" y="0" type="line"/>
      <point x="1245" y="0" type="line"/>
      <point x="1245" y="204" type="line"/>
      <point x="558" y="204" type="line"/>
      <point x="558" y="203" type="line"/>
    </contour>
  </outline>
</glyph>
<glyph name="AEacute.color3" format="2">
  <advance width="600"/>
  <unicode hex="01FC"/>
  <outline>
    <contour>
      <point x="558" y="204" type="line"/>
      <point x="772" y="204" type="line"/>
      <point x="772" y="526" type="line"/>
      <point x="558" y="526" type="line"/>
    </contour>
  </outline>
</glyph>
<glyph name="AEacute.color4" format="2">
  <advance width="600"/>
  <unicode hex="01FC"/>
  <outline>
    <contour>
      <point x="249" y="526" type="line"/>
      <point x="772" y="526" type="line"/>
      <point x="772" y="527" type="line"/>
      <point x="610" y="730" type="line"/>
      <point x="249" y="730" type="line"/>
    </contour>
  </outline>
</glyph>
<glyph name="AEacute" format="2">
  <advance width="1276"/>
  <unicode hex="01FC"/>
  <anchor x="486" y="730" name="top"/>
  <outline>
    <contour>
      <point x="35" y="0" type="line"/>
      <point x="249" y="0" type="line"/>
      <point x="249" y="730" type="line"/>
      <point x="248" y="730" type="line"/>
      <point x="35" y="523" type="line"/>
    </contour>
    <contour>
      <point x="249" y="173" type="line"/>
      <point x="621" y="173" type="line"/>
      <point x="558" y="377" type="line"/>
      <point x="249" y="377" type="line"/>
    </contour>
    <contour>
      <point x="760" y="0" type="line"/>
      <point x="1245" y="0" type="line"/>
      <point x="1245" y="204" type="line"/>
      <point x="558" y="204" type="line"/>
      <point x="558" y="203" type="line"/>
    </contour>
    <contour>
      <point x="558" y="204" type="line"/>
      <point x="772" y="204" type="line"/>
      <point x="772" y="526" type="line"/>
      <point x="558" y="526" type="line"/>
    </contour>
    <contour>
      <point x="249" y="526" type="line"/>
      <point x="772" y="526" type="line"/>
      <point x="772" y="527" type="line"/>
      <point x="610" y="730" type="line"/>
      <point x="249" y="730" type="line"/>
    </contour>
    <contour>
      <point x="772" y="263" type="line"/>
      <point x="1132" y="263" type="line"/>
      <point x="1132" y="467" type="line"/>
      <point x="772" y="467" type="line"/>
    </contour>
    <contour>
      <point x="772" y="526" type="line"/>
      <point x="1094" y="526" type="line"/>
      <point x="1296" y="729" type="line"/>
      <point x="1296" y="730" type="line"/>
      <point x="610" y="730" type="line"/>
    </contour>
    <contour>
      <point x="402" y="760" type="line"/>
      <point x="528" y="760" type="line"/>
      <point x="643" y="899" type="line"/>
      <point x="643" y="900" type="line"/>
      <point x="437" y="900" type="line"/>
    </contour>
  </outline>
</glyph>
<glyph name="aeacute.color0" format="2">
  <advance width="600"/>
  <unicode hex="01FD"/>
  <outline>
    <contour>
      <point x="142" y="0" type="line"/>
      <point x="802" y="0" type="line"/>
      <point x="588" y="204" type="line"/>
      <point x="35" y="204" type="line"/>
      <point x="35" y="203" type="line"/>
    </contour>
  </outline>
</glyph>
<glyph name="aeacute.color1" format="2">
  <advance width="600"/>
  <unicode hex="01FD"/>
  <outline>
    <contour>
      <point x="588" y="351" type="line"/>
      <point x="1355" y="351" type="line"/>
      <point x="1355" y="352" type="line"/>
      <point x="1248" y="530" type="line"/>
      <point x="802" y="530" type="line"/>
    </contour>
  </outline>
</glyph>
<glyph name="aeacute" format="2">
  <advance width="1380"/>
  <unicode hex="01FD"/>
  <anchor x="462" y="530" name="top"/>
  <outline>
    <contour>
      <point x="142" y="0" type="line"/>
      <point x="802" y="0" type="line"/>
      <point x="588" y="204" type="line"/>
      <point x="35" y="204" type="line"/>
      <point x="35" y="203" type="line"/>
    </contour>
    <contour>
      <point x="588" y="351" type="line"/>
      <point x="1355" y="351" type="line"/>
      <point x="1355" y="352" type="line"/>
      <point x="1248" y="530" type="line"/>
      <point x="802" y="530" type="line"/>
    </contour>
    <contour>
      <point x="45" y="204" type="line"/>
      <point x="259" y="204" type="line"/>
      <point x="259" y="530" type="line"/>
      <point x="258" y="530" type="line"/>
      <point x="45" y="423" type="line"/>
    </contour>
    <contour>
      <point x="802" y="0" type="line"/>
      <point x="802" y="326" type="line"/>
      <point x="588" y="326" type="line"/>
      <point x="588" y="199" type="line"/>
    </contour>
    <contour>
      <point x="259" y="326" type="line"/>
      <point x="802" y="326" type="line"/>
      <point x="802" y="327" type="line"/>
      <point x="695" y="530" type="line"/>
      <point x="259" y="530" type="line"/>
    </contour>
    <contour>
      <point x="802" y="0" type="line"/>
      <point x="1248" y="0" type="line"/>
      <point x="1355" y="199" type="line"/>
      <point x="1355" y="200" type="line"/>
      <point x="802" y="200" type="line"/>
    </contour>
    <contour>
      <point x="802" y="220" type="line"/>
      <point x="1141" y="221" type="line"/>
      <point x="1141" y="331" type="line"/>
      <point x="802" y="331" type="line"/>
    </contour>
    <contour>
      <point x="1141" y="221" type="line"/>
      <point x="1142" y="221" type="line"/>
      <point x="1355" y="328" type="line"/>
      <point x="1355" y="351" type="line"/>
      <point x="1141" y="351" type="line"/>
    </contour>
    <contour>
      <point x="389" y="590" type="line"/>
      <point x="495" y="590" type="line"/>
      <point x="600" y="819" type="line"/>
      <point x="600" y="820" type="line"/>
      <point x="424" y="820" type="line"/>
    </contour>
  </outline>
</glyph>
<glyph name="oslashacute.color1" format="2">
  <advance width="600"/>
  <unicode hex="01FF"/>
  <outline>
    <contour>
      <point x="285" y="326" type="line"/>
      <point x="858" y="326" type="line"/>
      <point x="858" y="327" type="line"/>
      <point x="751" y="530" type="line"/>
      <point x="285" y="530" type="line"/>
    </contour>
  </outline>
</glyph>
<glyph name="oslashacute.color3" format="2">
  <advance width="600"/>
  <unicode hex="01FF"/>
  <outline>
    <contour>
      <point x="71" y="204" type="line"/>
      <point x="285" y="204" type="line"/>
      <point x="285" y="530" type="line"/>
      <point x="284" y="530" type="line"/>
      <point x="71" y="423" type="line"/>
    </contour>
  </outline>
</glyph>
<glyph name="oslashacute.color5" format="2">
  <advance width="600"/>
  <unicode hex="01FF"/>
  <outline>
    <contour>
      <point x="415" y="590" type="line"/>
      <point x="521" y="590" type="line"/>
      <point x="626" y="819" type="line"/>
      <point x="626" y="820" type="line"/>
      <point x="450" y="820" type="line"/>
    </contour>
  </outline>
</glyph>
<glyph name="Edblgrave.color3" format="2">
  <advance width="600"/>
  <unicode hex="0204"/>
  <outline>
    <contour>
      <point x="249" y="526" type="line"/>
      <point x="610" y="526" type="line"/>
      <point x="812" y="729" type="line"/>
      <point x="812" y="730" type="line"/>
      <point x="249" y="730" type="line"/>
    </contour>
  </outline>
</glyph>
<glyph name="Edblgrave.color4" format="2">
  <advance width="600"/>
  <unicode hex="0204"/>
  <outline>
    <contour>
      <point x="488" y="760" type="line"/>
      <point x="614" y="760" type="line"/>
      <point x="579" y="900" type="line"/>
      <point x="373" y="900" type="line"/>
      <point x="373" y="899" type="line"/>
    </contour>
  </outline>
</glyph>
<glyph name="Edblgrave.color5" format="2">
  <advance width="600"/>
  <unicode hex="0204"/>
  <outline>
    <contour>
      <point x="258" y="760" type="line"/>
      <point x="384" y="760" type="line"/>
      <point x="349" y="900" type="line"/>
      <point x="143" y="900" type="line"/>
      <point x="143" y="899" type="line"/>
    </contour>
  </outline>
</glyph>
<glyph name="edblgrave.color5" format="2">
  <advance width="600"/>
  <unicode hex="0205"/>
  <outline>
    <contour>
      <point x="514" y="590" type="line"/>
      <point x="610" y="590" type="line"/>
      <point x="575" y="820" type="line"/>
      <point x="399" y="820" type="line"/>
      <point x="399" y="819" type="line"/>
    </contour>
  </outline>
</glyph>
<glyph name="edblgrave" format="2">
  <advance width="837"/>
  <unicode hex="0205"/>
  <anchor x="431" y="0" name="bottom"/>
  <anchor x="442" y="530" name="top"/>
  <outline>
    <contour>
      <point x="152" y="0" type="line"/>
      <point x="705" y="0" type="line"/>
      <point x="812" y="199" type="line"/>
      <point x="812" y="200" type="line"/>
      <point x="45" y="200" type="line"/>
      <point x="45" y="199" type="line"/>
    </contour>
    <contour>
      <point x="45" y="200" type="line"/>
      <point x="259" y="200" type="line"/>
      <point x="259" y="530" type="line"/>
      <point x="258" y="530" type="line"/>
      <point x="45" y="423" type="line"/>
    </contour>
    <contour>
      <point x="259" y="220" type="line"/>
      <point x="598" y="221" type="line"/>
      <point x="598" y="331" type="line"/>
      <point x="259" y="331" type="line"/>
    </contour>
    <contour>
      <point x="259" y="351" type="line"/>
      <point x="812" y="351" type="line"/>
      <point x="812" y="352" type="line"/>
      <point x="705" y="530" type="line"/>
      <point x="259" y="530" type="line"/>
    </contour>
    <contour>
      <point x="598" y="221" type="line"/>
      <point x="599" y="221" type="line"/>
      <point x="812" y="328" type="line"/>
      <point x="812" y="351" type="line"/>
      <point x="598" y="351" type="line"/>
    </contour>
    <contour>
      <point x="514" y="590" type="line"/>
      <point x="610" y="590" type="line"/>
      <point x="575" y="820" type="line"/>
      <point x="399" y="820" type="line"/>
      <point x="399" y="819" type="line"/>
    </contour>
    <contour>
      <point x="314" y="590" type="line"/>
      <point x="410" y="590" type="line"/>
      <point x="375" y="820" type="line"/>
      <point x="199" y="820" type="line"/>
      <point x="199" y="819" type="line"/>
    </contour>
  </outline>
</glyph>
<glyph name="Einvertedbreve.color2" format="2">
  <advance width="600"/>
  <unicode hex="0206"/>
  <outline>
    <contour>
      <point x="249" y="283" type="line"/>
      <point x="658" y="283" type="line"/>
      <point x="658" y="447" type="line"/>
      <point x="249" y="447" type="line"/>
    </contour>
  </outline>
</glyph>
<glyph name="einvertedbreve.color7" format="2">
  <advance width="600"/>
  <unicode hex="0207"/>
  <outline>
    <contour>
      <point x="517" y="618" type="line"/>
      <point x="633" y="618" type="line"/>
      <point x="633" y="619" type="line"/>
      <point x="586" y="698" type="line"/>
      <point x="470" y="698" type="line"/>
    </contour>
  </outline>
</glyph>
<glyph name="Idblgrave" format="2">
  <advance width="657"/>
  <unicode hex="0208"/>
  <anchor x="340" y="0" name="bottom"/>
  <anchor x="341" y="730" name="top"/>
  <outline>
    <contour>
      <point x="246" y="0" type="line"/>
      <point x="298" y="0" type="line"/>
      <point x="460" y="204" type="line"/>
      <point x="460" y="730" type="line"/>
      <point x="408" y="730" type="line"/>
      <point x="246" y="526" type="line"/>
    </contour>
    <contour>
      <point x="25" y="1" type="line"/>
      <point x="245" y="0" type="line"/>
      <point x="246" y="204" type="line"/>
      <point x="25" y="204" type="line"/>
    </contour>
    <contour>
      <point x="298" y="0" type="line"/>
      <point x="632" y="0" type="line"/>
      <point x="632" y="204" type="line"/>
      <point x="460" y="204" type="line"/>
    </contour>
    <contour>
      <point x="25" y="526" type="line"/>
      <point x="246" y="526" type="line"/>
      <point x="408" y="730" type="line"/>
      <point x="25" y="730" type="line"/>
    </contour>
    <contour>
      <point x="460" y="526" type="line"/>
      <point x="631" y="526" type="line"/>
      <point x="631" y="730" type="line"/>
      <point x="460" y="730" type="line"/>
    </contour>
    <contour>
      <point x="403" y="760" type="line"/>
      <point x="529" y="760" type="line"/>
      <point x="494" y="900" type="line"/>
      <point x="288" y="900" type="line"/>
      <point x="288" y="899" type="line"/>
    </contour>
    <contour>
      <point x="173" y="760" type="line"/>
      <point x="299" y="760" type="line"/>
      <point x="264" y="900" type="line"/>
      <point x="58" y="900" type="line"/>
      <point x="58" y="899" type="line"/>
    </contour>
  </outline>
</glyph>
<glyph name="Iinvertedbreve.color0" format="2">
  <advance width="600"/>
  <unicode hex="020A"/>
  <outline>
    <contour>
      <point x="246" y="0" type="line"/>
      <point x="298" y="0" type="line"/>
      <point x="460" y="204" type="line"/>
      <point x="460" y="730" type="line"/>
      <point x="408" y="730" type="line"/>
      <point x="246" y="526" type="line"/>
    </contour>
  </outline>
</glyph>
<glyph name="iinvertedbreve.color1" format="2">
  <advance width="600"/>
  <unicode hex="020B"/>
  <outline>
    <contour>
      <point x="86" y="0" type="line"/>
      <point x="300" y="0" type="line"/>
      <point x="300" y="503" type="line"/>
      <point x="299" y="530" type="line"/>
      <point x="86" y="530" type="line"/>
    </contour>
  </outline>
</glyph>
<glyph name="iinvertedbreve" format="2">
  <advance width="367"/>
  <unicode hex="020B"/>
  <anchor x="192" y="0" name="bottom"/>
  <anchor x="200" y="530" name="top"/>
  <outline>
    <contour>
      <point x="25" y="678" type="line"/>
      <point x="342" y="678" type="line"/>
      <point x="281" y="780" type="line"/>
      <point x="86" y="780" type="line"/>
    </contour>
    <contour>
      <point x="86" y="0" type="line"/>
      <point x="300" y="0" type="line"/>
      <point x="300" y="503" type="line"/>
      <point x="299" y="530" type="line"/>
      <point x="86" y="530" type="line"/>
    </contour>
    <contour>
      <point x="-22" y="598" type="line"/>
      <point x="114" y="598" type="line"/>
      <point x="161" y="678" type="line"/>
      <point x="25" y="678" type="line"/>
      <point x="-22" y="600" type="line"/>
    </contour>
    <contour>
      <point x="263" y="598" type="line"/>
      <point x="389" y="598" type="line"/>
      <point x="389" y="599" type="line"/>
      <point x="342" y="678" type="line"/>
      <point x="216" y="678" type="line"/>
    </contour>
  </outline>
</glyph>
<glyph name="Odblgrave.color4" format="2">
  <advance width="600"/>
  <unicode hex="020C"/>
  <outline>
    <contour>
      <point x="498" y="760" type="line"/>
      <point x="624" y="760" type="line"/>
      <point x="589" y="900" type="line"/>
      <point x="383" y="900" type="line"/>
      <point x="383" y="899" type="line"/>
    </contour>
  </outline>
</glyph>
<glyph name="odblgrave.color1" format="2">
  <advance width="600"/>
  <unicode hex="020D"/>
  <outline>
    <contour>
      <point x="132" y="0" type="line"/>
      <point x="598" y="0" type="line"/>
      <point x="598" y="204" type="line"/>
      <point x="25" y="204" type="line"/>
      <point x="25" y="203" type="line"/>
    </contour>
  </outline>
</glyph>
<glyph name="odblgrave.color5" format="2">
  <advance width="600"/>
  <unicode hex="020D"/>
  <outline>
    <contour>
      <point x="314" y="590" type="line"/>
      <point x="410" y="590" type="line"/>
      <point x="375" y="820" type="line"/>
      <point x="199" y="820" type="line"/>
      <point x="199" y="819" type="line"/>
    </contour>
  </outline>
</glyph>
<glyph name="odblgrave" format="2">
  <advance width="837"/>
  <unicode hex="020D"/>
  <anchor x="422" y="0" name="bottom"/>
  <anchor x="665" y="530" name="horn"/>
  <anchor x="442" y="530" name="top"/>
  <outline>
    <contour>
      <point x="239" y="326" type="line"/>
      <point x="812" y="326" type="line"/>
      <point x="812" y="327" type="line"/>
      <point x="705" y="530" type="line"/>
      <point x="239" y="530" type="line"/>
    </contour>
    <contour>
      <point x="132" y="0" type="line"/>
      <point x="598" y="0" type="line"/>
      <point x="598" y="204" type="line"/>
      <point x="25" y="204" type="line"/>
      <point x="25" y="203" type="line"/>
    </contour>
    <contour>
      <point x="25" y="204" type="line"/>
      <point x="239" y="204" type="line"/>
      <point x="239" y="530" type="line"/>
      <point x="238" y="530" type="line"/>
      <point x="25" y="423" type="line"/>
    </contour>
    <contour>
      <point x="598" y="0" type="line"/>
      <point x="599" y="0" type="line"/>
      <point x="812" y="107" type="line"/>
      <point x="812" y="326" type="line"/>
      <point x="598" y="326" type="line"/>
    </contour>
    <contour>
      <point x="514" y="590" type="line"/>
      <point x="610" y="590" type="line"/>
      <point x="575" y="820" type="line"/>
      <point x="399" y="820" type="line"/>
      <point x="399" y="819" type="line"/>
    </contour>
    <contour>
      <point x="314" y="590" type="line"/>
      <point x="410" y="590" type="line"/>
      <point x="375" y="820" type="line"/>
      <point x="199" y="820" type="line"/>
      <point x="199" y="819" type="line"/>
    </contour>
  </outline>
</glyph>
<glyph name="Oinvertedbreve.color4" format="2">
  <advance width="600"/>
  <unicode hex="020E"/>
  <outline>
    <contour>
      <point x="240" y="820" type="line"/>
      <point x="633" y="820" type="line"/>
      <point x="559" y="900" type="line"/>
      <point x="314" y="900" type="line"/>
    </contour>
  </outline>
</glyph>
<glyph name="oinvertedbreve.color0" format="2">
  <advance width="600"/>
  <unicode hex="020F"/>
  <outline>
    <contour>
      <point x="239" y="326" type="line"/>
      <point x="812" y="326" type="line"/>
      <point x="812" y="327" type="line"/>
      <point x="705" y="530" type="line"/>
      <point x="239" y="530" type="line"/>
    </contour>
  </outline>
</glyph>
<glyph name="oinvertedbreve.color6" format="2">
  <advance width="600"/>
  <unicode hex="020F"/>
  <outline>
    <contour>
      <point x="517" y="618" type="line"/>
      <point x="633" y="618" type="line"/>
      <point x="633" y="619" type="line"/>
      <point x="586" y="698" type="line"/>
      <point x="470" y="698" type="line"/>
    </contour>
  </outline>
</glyph>
<glyph name="Rdblgrave.color5" format="2">
  <advance width="600"/>
  <unicode hex="0210"/>
  <outline>
    <contour>
      <point x="478" y="760" type="line"/>
      <point x="604" y="760" type="line"/>
      <point x="569" y="900" type="line"/>
      <point x="363" y="900" type="line"/>
      <point x="363" y="899" type="line"/>
    </contour>
  </outline>
</glyph>
<glyph name="rdblgrave.color2" format="2">
  <advance width="600"/>
  <unicode hex="0211"/>
  <outline>
    <contour>
      <point x="414" y="590" type="line"/>
      <point x="510" y="590" type="line"/>
      <point x="475" y="820" type="line"/>
      <point x="299" y="820" type="line"/>
      <point x="299" y="819" type="line"/>
    </contour>
  </outline>
</glyph>
<glyph name="rdblgrave" format="2">
  <advance width="606"/>
  <unicode hex="0211"/>
  <anchor x="135" y="0" name="bottom"/>
  <anchor x="342" y="530" name="top"/>
  <outline>
    <contour>
      <point x="35" y="0" type="line"/>
      <point x="249" y="0" type="line"/>
      <point x="249" y="530" type="line"/>
      <point x="248" y="530" type="line"/>
      <point x="35" y="423" type="line"/>
    </contour>
    <contour>
      <point x="249" y="326" type="line"/>
      <point x="602" y="326" type="line"/>
      <point x="602" y="327" type="line"/>
      <point x="495" y="530" type="line"/>
      <point x="249" y="530" type="line"/>
    </contour>
    <contour>
      <point x="414" y="590" type="line"/>
      <point x="510" y="590" type="line"/>
      <point x="475" y="820" type="line"/>
      <point x="299" y="820" type="line"/>
      <point x="299" y="819" type="line"/>
    </contour>
    <contour>
      <point x="214" y="590" type="line"/>
      <point x="310" y="590" type="line"/>
      <point x="275" y="820" type="line"/>
      <point x="99" y="820" type="line"/>
      <point x="99" y="819" type="line"/>
    </contour>
  </outline>
</glyph>
<glyph name="rinvertedbreve.color2" format="2">
  <advance width="600"/>
  <unicode hex="0213"/>
  <outline>
    <contour>
      <point x="159" y="698" type="line"/>
      <point x="486" y="698" type="line"/>
      <point x="425" y="800" type="line"/>
      <point x="220" y="800" type="line"/>
    </contour>
  </outline>
</glyph>
<glyph name="Udblgrave" format="2">
  <advance width="837"/>
  <unicode hex="0214"/>
  <anchor x="442" y="0" name="bottom"/>
  <anchor x="811" y="730" name="horn"/>
  <anchor x="436" y="730" name="top"/>
  <outline>
    <contour>
      <point x="588" y="0" type="line"/>
      <point x="589" y="0" type="line"/>
      <point x="802" y="207" type="line"/>
      <point x="802" y="730" type="line"/>
      <point x="588" y="730" type="line"/>
    </contour>
    <contour>
      <point x="237" y="0" type="line"/>
      <point x="588" y="0" type="line"/>
      <point x="588" y="204" type="line"/>
      <point x="35" y="204" type="line"/>
      <point x="35" y="203" type="line"/>
    </contour>
    <contour>
      <point x="35" y="204" type="line"/>
      <point x="249" y="204" type="line"/>
      <point x="249" y="730" type="line"/>
      <point x="35" y="730" type="line"/>
    </contour>
    <contour>
      <point x="498" y="760" type="line"/>
      <point x="624" y="760" type="line"/>
      <point x="589" y="900" type="line"/>
      <point x="383" y="900" type="line"/>
      <point x="383" y="899" type="line"/>
    </contour>
    <contour>
      <point x="268" y="760" type="line"/>
      <point x="394" y="760" type="line"/>
      <point x="359" y="900" type="line"/>
      <point x="153" y="900" type="line"/>
      <point x="153" y="899" type="line"/>
    </contour>
  </outline>
</glyph>
<glyph name="Uinvertedbreve.color4" format="2">
  <advance width="600"/>
  <unicode hex="0216"/>
  <outline>
    <contour>
      <point x="186" y="760" type="line"/>
      <point x="342" y="760" type="line"/>
      <point x="399" y="820" type="line"/>
      <point x="240" y="820" type="line"/>
      <point x="186" y="762" type="line"/>
    </contour>
  </outline>
</glyph>
<glyph name="Uinvertedbreve" format="2">
  <advance width="837"/>
  <unicode hex="0216"/>
  <anchor x="442" y="0" name="bottom"/>
  <anchor x="811" y="730" name="horn"/>
  <anchor x="436" y="730" name="top"/>
  <outline>
    <contour>
      <point x="588" y="0" type="line"/>
      <point x="589" y="0" type="line"/>
      <point x="802" y="207" type="line"/>
      <point x="802" y="730" type="line"/>
      <point x="588" y="730" type="line"/>
    </contour>
    <contour>
      <point x="237" y="0" type="line"/>
      <point x="588" y="0" type="line"/>
      <point x="588" y="204" type="line"/>
      <point x="35" y="204" type="line"/>
      <point x="35" y="203" type="line"/>
    </contour>
    <contour>
      <point x="35" y="204" type="line"/>
      <point x="249" y="204" type="line"/>
      <point x="249" y="730" type="line"/>
      <point x="35" y="730" type="line"/>
    </contour>
    <contour>
      <point x="240" y="820" type="line"/>
      <point x="633" y="820" type="line"/>
      <point x="559" y="900" type="line"/>
      <point x="314" y="900" type="line"/>
    </contour>
    <contour>
      <point x="186" y="760" type="line"/>
      <point x="342" y="760" type="line"/>
      <point x="399" y="820" type="line"/>
      <point x="240" y="820" type="line"/>
      <point x="186" y="762" type="line"/>
    </contour>
    <contour>
      <point x="531" y="760" type="line"/>
      <point x="687" y="760" type="line"/>
      <point x="687" y="761" type="line"/>
      <point x="633" y="820" type="line"/>
      <point x="474" y="820" type="line"/>
    </contour>
  </outline>
</glyph>
<glyph name="uinvertedbreve.color5" format="2">
  <advance width="600"/>
  <unicode hex="0217"/>
  <outline>
    <contour>
      <point x="497" y="618" type="line"/>
      <point x="613" y="618" type="line"/>
      <point x="613" y="619" type="line"/>
      <point x="566" y="698" type="line"/>
      <point x="450" y="698" type="line"/>
    </contour>
  </outline>
</glyph>
<glyph name="Tcommaaccent.color3" format="2">
  <advance width="600"/>
  <unicode hex="021A"/>
  <outline>
    <contour>
      <point x="478" y="-280" type="line"/>
      <point x="479" y="-280" type="line"/>
      <point x="479" y="-30" type="line"/>
      <point x="347" y="-30" type="line"/>
      <point x="347" y="-178" type="line"/>
    </contour>
  </outline>
</glyph>
<glyph name="Tcommaaccent" format="2">
  <advance width="846"/>
  <unicode hex="021A"/>
  <anchor x="413" y="0" name="bottom"/>
  <anchor x="433" y="365" name="stroke"/>
  <anchor x="436" y="730" name="top"/>
  <outline>
    <contour>
      <point x="305" y="0" type="line"/>
      <point x="520" y="0" type="line"/>
      <point x="520" y="730" type="line"/>
      <point x="468" y="730" type="line"/>
      <point x="306" y="526" type="line"/>
    </contour>
    <contour>
      <point x="25" y="526" type="line"/>
      <point x="306" y="526" type="line"/>
      <point x="468" y="730" type="line"/>
      <point x="25" y="730" type="line"/>
    </contour>
    <contour>
      <point x="520" y="526" type="line"/>
      <point x="821" y="526" type="line"/>
      <point x="821" y="730" type="line"/>
      <point x="520" y="730" type="line"/>
    </contour>
    <contour>
      <point x="478" y="-280" type="line"/>
      <point x="479" y="-280" type="line"/>
      <point x="479" y="-30" type="line"/>
      <point x="347" y="-30" type="line"/>
      <point x="347" y="-178" type="line"/>
    </contour>
  </outline>
</glyph>
<glyph name="Odieresismacron" format="2">
  <advance width="827"/>
  <unicode hex="022A"/>
  <anchor x="412" y="0" name="bottom"/>
  <anchor x="680" y="730" name="horn"/>
  <anchor x="436" y="900" name="top"/>
  <outline>
    <contour>
      <point x="239" y="526" type="line"/>
      <point x="802" y="526" type="line"/>
      <point x="802" y="527" type="line"/>
      <point x="640" y="730" type="line"/>
      <point x="239" y="730" type="line"/>
    </contour>
    <contour>
      <point x="227" y="0" type="line"/>
      <point x="588" y="0" type="line"/>
      <point x="588" y="204" type="line"/>
      <point x="25" y="204" type="line"/>
      <point x="25" y="203" type="line"/>
    </contour>
    <contour>
      <point x="25" y="204" type="line"/>
      <point x="239" y="204" type="line"/>
      <point x="239" y="730" type="line"/>
      <point x="238" y="730" type="line"/>
      <point x="25" y="523" type="line"/>
    </contour>
    <contour>
      <point x="588" y="0" type="line"/>
      <point x="589" y="0" type="line"/>
      <point x="802" y="207" type="line"/>
      <point x="802" y="526" type="line"/>
      <point x="588" y="526" type="line"/>
    </contour>
    <contour>
      <point x="488" y="788" type="line"/>
      <point x="634" y="788" type="line"/>
      <point x="634" y="900" type="line"/>
      <point x="488" y="900" type="line"/>
    </contour>
    <contour>
      <point x="240" y="788" type="line"/>
      <point x="386" y="788" type="line"/>
      <point x="386" y="900" type="line"/>
      <point x="240" y="900" type="line"/>
    </contour>
    <contour>
      <point x="238" y="968" type="line"/>
      <point x="634" y="968" type="line"/>
      <point x="634" y="1070" type="line"/>
      <point x="238" y="1070" type="line"/>
    </contour>
  </outline>
</glyph>
<glyph name="odieresismacron.color5" format="2">
  <advance width="600"/>
  <unicode hex="022B"/>
  <outline>
    <contour>
      <point x="220" y="640" type="line"/>
      <point x="396" y="640" type="line"/>
      <point x="396" y="772" type="line"/>
      <point x="220" y="772" type="line"/>
    </contour>
  </outline>
</glyph>
<glyph name="Otildemacron.color4" format="2">
  <advance width="600"/>
  <unicode hex="022C"/>
  <outline>
    <contour>
      <point x="199" y="758" type="line"/>
      <point x="319" y="758" type="line"/>
      <point x="319" y="835" type="line"/>
      <point x="199" y="824" type="line"/>
    </contour>
  </outline>
</glyph>
<glyph name="odotaccentmacron.color4" format="2">
  <advance width="600"/>
  <unicode hex="0231"/>
  <outline>
    <contour>
      <point x="335" y="640" type="line"/>
      <point x="549" y="640" type="line"/>
      <point x="549" y="800" type="line"/>
      <point x="335" y="800" type="line"/>
    </contour>
  </outline>
</glyph>
<glyph name="odotaccentmacron.color5" format="2">
  <advance width="600"/>
  <unicode hex="0231"/>
  <outline>
    <contour>
      <point x="209" y="848" type="line"/>
      <point x="635" y="848" type="line"/>
      <point x="635" y="960" type="line"/>
      <point x="209" y="960" type="line"/>
    </contour>
  </outline>
</glyph>
<glyph name="odotaccentmacron" format="2">
  <advance width="837"/>
  <unicode hex="0231"/>
  <anchor x="422" y="0" name="bottom"/>
  <anchor x="665" y="530" name="horn"/>
  <anchor x="437" y="750" name="top"/>
  <outline>
    <contour>
      <point x="239" y="326" type="line"/>
      <point x="812" y="326" type="line"/>
      <point x="812" y="327" type="line"/>
      <point x="705" y="530" type="line"/>
      <point x="239" y="530" type="line"/>
    </contour>
    <contour>
      <point x="132" y="0" type="line"/>
      <point x="598" y="0" type="line"/>
      <point x="598" y="204" type="line"/>
      <point x="25" y="204" type="line"/>
      <point x="25" y="203" type="line"/>
    </contour>
    <contour>
      <point x="25" y="204" type="line"/>
      <point x="239" y="204" type="line"/>
      <point x="239" y="530" type="line"/>
      <point x="238" y="530" type="line"/>
      <point x="25" y="423" type="line"/>
    </contour>
    <contour>
      <point x="598" y="0" type="line"/>
      <point x="599" y="0" type="line"/>
      <point x="812" y="107" type="line"/>
      <point x="812" y="326" type="line"/>
      <point x="598" y="326" type="line"/>
    </contour>
    <contour>
      <point x="335" y="640" type="line"/>
      <point x="549" y="640" type="line"/>
      <point x="549" y="800" type="line"/>
      <point x="335" y="800" type="line"/>
    </contour>
    <contour>
      <point x="209" y="848" type="line"/>
      <point x="635" y="848" type="line"/>
      <point x="635" y="960" type="line"/>
      <point x="209" y="960" type="line"/>
    </contour>
  </outline>
</glyph>
<glyph name="Ymacron.color2" format="2">
  <advance width="600"/>
  <unicode hex="0232"/>
  <outline>
    <contour>
      <point x="294" y="285" type="line"/>
      <point x="507" y="285" type="line"/>
      <point x="780" y="729" type="line"/>
      <point x="780" y="730" type="line"/>
      <point x="546" y="730" type="line"/>
    </contour>
  </outline>
</glyph>
<glyph name="schwa.color1" format="2">
  <advance width="600"/>
  <unicode hex="0259"/>
  <outline>
    <contour>
      <point x="35" y="200" type="line"/>
      <point x="249" y="200" type="line"/>
      <point x="249" y="330" type="line"/>
      <point x="248" y="330" type="line"/>
      <point x="35" y="223" type="line"/>
    </contour>
  </outline>
</glyph>
<glyph name="breve.color0" format="2">
  <advance width="600"/>
  <unicode hex="02D8"/>
  <outline>
    <contour>
      <point x="357" y="720" type="line"/>
      <point x="493" y="720" type="line"/>
      <point x="530" y="779" type="line"/>
      <point x="530" y="780" type="line"/>
      <point x="394" y="780" type="line"/>
    </contour>
  </outline>
</glyph>
<glyph name="dotaccent" format="2">
  <advance width="600"/>
  <unicode hex="02D9"/>
  <anchor x="309" y="530" name="_top"/>
  <anchor x="304" y="750" name="top"/>
  <outline>
    <contour>
      <point x="202" y="640" type="line"/>
      <point x="416" y="640" type="line"/>
      <point x="416" y="800" type="line"/>
      <point x="202" y="800" type="line"/>
    </contour>
  </outline>
</glyph>
<glyph name="ring.color0" format="2">
  <advance width="600"/>
  <unicode hex="02DA"/>
  <outline>
    <contour>
      <point x="228" y="736" type="line"/>
      <point x="458" y="736" type="line"/>
      <point x="458" y="737" type="line"/>
      <point x="398" y="820" type="line"/>
      <point x="228" y="820" type="line"/>
    </contour>
  </outline>
</glyph>
<glyph name="tilde.color2" format="2">
  <advance width="600"/>
  <unicode hex="02DC"/>
  <outline>
    <contour>
      <point x="363" y="600" type="line"/>
      <point x="364" y="600" type="line"/>
      <point x="492" y="639" type="line"/>
      <point x="492" y="640" type="line"/>
      <point x="224" y="772" type="line"/>
      <point x="223" y="772" type="line"/>
      <point x="94" y="733" type="line"/>
      <point x="94" y="732" type="line"/>
    </contour>
  </outline>
</glyph>
<glyph name="tildecomb.color2" format="2">
  <unicode hex="0303"/>
  <outline>
    <contour>
      <point x="363" y="600" type="line"/>
      <point x="364" y="600" type="line"/>
      <point x="492" y="639" type="line"/>
      <point x="492" y="640" type="line"/>
      <point x="224" y="772" type="line"/>
      <point x="223" y="772" type="line"/>
      <point x="94" y="733" type="line"/>
      <point x="94" y="732" type="line"/>
    </contour>
  </outline>
</glyph>
<glyph name="brevecomb.color0" format="2">
  <unicode hex="0306"/>
  <outline>
    <contour>
      <point x="357" y="720" type="line"/>
      <point x="493" y="720" type="line"/>
      <point x="530" y="779" type="line"/>
      <point x="530" y="780" type="line"/>
      <point x="394" y="780" type="line"/>
    </contour>
  </outline>
</glyph>
<glyph name="brevecomb.color2" format="2">
  <unicode hex="0306"/>
  <outline>
    <contour>
      <point x="167" y="598" type="line"/>
      <point x="422" y="598" type="line"/>
      <point x="493" y="720" type="line"/>
      <point x="96" y="720" type="line"/>
    </contour>
  </outline>
</glyph>
<glyph name="caroncomb.color1" format="2">
  <unicode hex="030C"/>
  <outline>
    <contour>
      <point x="211" y="582" type="line"/>
      <point x="355" y="582" type="line"/>
      <point x="499" y="749" type="line"/>
      <point x="499" y="750" type="line"/>
      <point x="345" y="750" type="line"/>
    </contour>
  </outline>
</glyph>
<glyph name="dblgravecomb.color0" format="2">
  <unicode hex="030F"/>
  <outline>
    <contour>
      <point x="381" y="590" type="line"/>
      <point x="477" y="590" type="line"/>
      <point x="442" y="820" type="line"/>
      <point x="266" y="820" type="line"/>
      <point x="266" y="819" type="line"/>
    </contour>
  </outline>
</glyph>
<glyph name="brevebelowcomb.color0" format="2">
  <unicode hex="032E"/>
  <outline>
    <contour>
      <point x="377" y="-80" type="line"/>
      <point x="513" y="-80" type="line"/>
      <point x="550" y="-21" type="line"/>
      <point x="550" y="-20" type="line"/>
      <point x="414" y="-20" type="line"/>
    </contour>
  </outline>
</glyph>
<glyph name="Wacute.color4" format="2">
  <advance width="600"/>
  <unicode hex="1E82"/>
  <outline>
    <contour>
      <point x="499" y="760" type="line"/>
      <point x="625" y="760" type="line"/>
      <point x="740" y="899" type="line"/>
      <point x="740" y="900" type="line"/>
      <point x="534" y="900" type="line"/>
    </contour>
  </outline>
</glyph>
<glyph name="wacute.color1" format="2">
  <advance width="600"/>
  <unicode hex="1E83"/>
  <outline>
    <contour>
      <point x="142" y="1" type="line"/>
      <point x="498" y="1" type="line"/>
      <point x="498" y="205" type="line"/>
      <point x="35" y="205" type="line"/>
      <point x="35" y="204" type="line"/>
    </contour>
  </outline>
</glyph>
<glyph name="Wdieresis.color4" format="2">
  <advance width="600"/>
  <unicode hex="1E84"/>
  <outline>
    <contour>
      <point x="635" y="788" type="line"/>
      <point x="781" y="788" type="line"/>
      <point x="781" y="900" type="line"/>
      <point x="635" y="900" type="line"/>
    </contour>
  </outline>
</glyph>
<glyph name="Germandbls.color2" format="2">
  <advance width="600"/>
  <unicode hex="1E9E"/>
  <outline>
    <contour>
      <point x="239" y="526" type="line"/>
      <point x="584" y="526" type="line"/>
      <point x="584" y="730" type="line"/>
      <point x="239" y="730" type="line"/>
    </contour>
  </outline>
</glyph>
<glyph name="Germandbls.color3" format="2">
  <advance width="600"/>
  <unicode hex="1E9E"/>
  <outline>
    <contour>
      <point x="558" y="366" type="line"/>
      <point x="746" y="570" type="line"/>
      <point x="746" y="571" type="line"/>
      <point x="585" y="730" type="line"/>
      <point x="584" y="730" type="line"/>
      <point x="354" y="457" type="line"/>
    </contour>
  </outline>
</glyph>
<glyph name="Ahookabove.color5" format="2">
  <advance width="600"/>
  <unicode hex="1EA2"/>
  <outline>
    <contour>
      <point x="256" y="838" type="line"/>
      <point x="624" y="838" type="line"/>
      <point x="624" y="839" type="line"/>
      <point x="517" y="940" type="line"/>
      <point x="256" y="940" type="line"/>
    </contour>
  </outline>
</glyph>
<glyph name="ahookabove.color0" format="2">
  <advance width="600"/>
  <unicode hex="1EA3"/>
  <outline>
    <contour>
      <point x="249" y="326" type="line"/>
      <point x="792" y="326" type="line"/>
      <point x="792" y="327" type="line"/>
      <point x="685" y="530" type="line"/>
      <point x="249" y="530" type="line"/>
    </contour>
  </outline>
</glyph>
<glyph name="Acircumflexacute.color6" format="2">
  <advance width="600"/>
  <unicode hex="1EA4"/>
  <outline>
    <contour>
      <point x="592" y="808" type="line"/>
      <point x="708" y="808" type="line"/>
      <point x="801" y="949" type="line"/>
      <point x="801" y="950" type="line"/>
      <point x="635" y="950" type="line"/>
    </contour>
  </outline>
</glyph>
<glyph name="Acircumflexgrave.color5" format="2">
  <advance width="600"/>
  <unicode hex="1EA6"/>
  <outline>
    <contour>
      <point x="210" y="755" type="line"/>
      <point x="364" y="755" type="line"/>
      <point x="508" y="883" type="line"/>
      <point x="344" y="883" type="line"/>
      <point x="210" y="756" type="line"/>
    </contour>
  </outline>
</glyph>
<glyph name="Acircumflexgrave.color6" format="2">
  <advance width="600"/>
  <unicode hex="1EA6"/>
  <outline>
    <contour>
      <point x="612" y="808" type="line"/>
      <point x="728" y="808" type="line"/>
      <point x="685" y="950" type="line"/>
      <point x="519" y="950" type="line"/>
      <point x="519" y="949" type="line"/>
    </contour>
  </outline>
</glyph>
